/* XPM */
static char *e207a43583e94fa7a832075ae86c89e6[] = {
/* columns rows colors chars-per-pixel */
"128 128 51 1 ",
"  c #2C2C2C",
". c #392C1B",
"X c #27271B",
"o c #423023",
"O c #27231B",
"+ c #503527",
"@ c #27272C",
"# c #5E3E2C",
"$ c #351B1B",
"% c #47392C",
"& c #303039",
"* c #625035",
"= c #3E3527",
"- c #3E3E3E",
"; c #504230",
": c #352C27",
"> c #594B35",
", c #505050",
"< c #594B3E",
"1 c #675447",
"2 c #626262",
"3 c #473E35",
"4 c #393947",
"5 c #6B5439",
"6 c #4B422C",
"7 c #39302C",
"8 c #8B624B",
"9 c #1B1B1B",
"0 c #704230",
"q c #947027",
"w c #352727",
"e c #866B23",
"r c #2C2723",
"t c #986B54",
"y c #39391C",
"u c #42421C",
"i c #86705E",
"p c #674750",
"a c #796254",
"s c #4B3539",
"d c #593E42",
"f c #423030",
"g c #2C2323",
"h c #705059",
"j c #7D5967",
"k c #947D6B",
"l c #795942",
"z c #30303E",
"x c #AB7962",
"c c #232723",
"v c #A68B79",
/* pixels */
" ...Xo.O +.@o.XX@..o+. oO@XXXXX@O.oo#o.$..XX. ooX.X.o%oXo .&.o . ...Xo.O +.@o.XX@..o+. oO@XXXXX@O.oo#o.$..XX. ooX.X.o%oXo .&.o .",
"*%%===%=-%=-%;%%*%%%=#==%%=:=;;%%=%>;% %=%=%%;;%:%%&;;-%:;;%;;=+*%%===%=-%=-%;%%*%%%=#==%%=:=;;%%=%>;% %=%=%%;;%:%%&;;-%:;;%;;=+",
",<1>12,<<34;1<;;1<;;,>>>1<><1,,;<;15<11>;<5<1<,4<;<<1-,,<<;<<;;<,<1>12,<<34;1<;;1<;;,>>>1<><1,,;<;15<11>;<5<1<,4<;<<1-,,<<;<<;;<",
"%=%=--#;>++-%#+=-%=4+%==%%;-%%-=%%;#=-X-%;;&&&-#%+#;%= ,;%=%===%%=%=--#;>++-%#+=-%=4+%==%%;-%%-=%%;#=-X-%;;&&&-#%+#;%= ,;%=%===%",
"&&=%&-;%6==-%%%o%&=+7---:-%=%%=%+-;%%&&%%-77%%;+o%%-==% ,==;;;:%&&=%&-;%6==-%%%o%&=+7---:-%=%%=%+-;%%&&%%-77%%;+o%%-==% ,==;;;:%",
"%==%o:68o===:=--+=%=:-%*o9o:%%-===+==:%1o::7%%+%%-%%=%60X,:+:%=#%==%o:68o===:=--+=%=:-%*o9o:%%-===+==:%1o::7%%+%%-%%=%60X,:+:%=#",
"%=-:=:1q;:: ====-%:wo%*e%9==&77=77=::r0t%rw== ::::=:==0to  w:-:=%=-:=:1q;:: ====-%:wo%*e%9==&77=77=::r0t%rw== ::::=:==0to  w:-:=",
"7:& ==61.::===7%;=: =-%1.9::7r===%rww:%1.wr--=:==:7@:=61X= =-&:r7:& ==61.::===7%;=: =-%1.9::7r===%rww:%1.wr--=:==:7@:=61X= =-&:r",
"=%&%=777=:==::o%o::==::::::=+-:-==:-:--::::3==%========o--#-% =+=%&%=777=:==::o%o::==::::::=+-:-==:-:--::::3==%========o--#-% =+",
"%&=;-=;=%w:=%=== -=-======+=%%===&=-=-%&-::-==%====++==;;#+%==++%&=;-=;=%w:=%=== -=-======+=%%===&=-=-%&-::-==%====++==;;#+%==++",
"-%=;--=+==%;%=-==o#>--=%;-=%=:=+==;=:=;%+o#%&%+=o&%=%---+====%%=-%=;--=+==%;%=-==o#>--=%;-=%=:=+==;=:=;%+o#%&%+=o&%=%---+====%%=",
";%%=-;==%%%%&;;-%%%%-;;%;;%o%+=-%-&==%++%+;=&% ==4+=4++;=%%==%;;;%%=-;==%%%%&;;-%%%%-;;%;;%o%+=-%-&==%++%+;=&% ==4+=4++;=%%==%;;",
"+%=%= %--%=%=;,%#=+%+;%=%%;+=+%%--;=+==;%++%=;=%%--&&= =%%;+=-;o+%=%= %--%=%=;,%#=+%+;%=%%;+=+%%--;=+==;%++%=;=%%--&&= =%%;+=-;o",
"=+%:==%;===-%;%;%+&--=&===%-=+=%=:=;==--;;=%;=%;=-%&=+&%=%;%%#oy=+%:==%;===-%;%;%+&--=&===%-=+=%=:=;==--;;=%;=%;=-%&=+&%=%;%%#oy",
"&%%%+%==&;;%%=%%====%=%%--%-%+=+:::%:=-;;=%=#-%%%%===;%+-;;=-#;%&%%%+%==&;;%%=%%====%=%%--%-%+=+:::%:=-;;=%=#-%%%%===;%+-;;=-#;%",
"%==%---%&;#&%=%%=%%;;;-+-;+%=%;==::=;%=%%%-=;%%%:=%--=&=%;;%%=;#%==%---%&;#&%=%%=%%;;;-+-;+%=%;==::=;%=%%%-=;%%%:=%--=&=%;;%%=;#",
":+;%%==%:&=====&:%;;0;-=%===+-=====;=-&;;-4=:=%=%%%-0;=#%+%--%%&:+;%%==%:&=====&:%;;0;-=%===+-=====;=-&;;-4=:=%=%%%-0;=#%+%--%%&",
">;-%=#+=%%=:=;;%%=%>;%=+&=%=+=&+=%%=-%%%-% =+;+;;-#%&&-%%+--;=%=>;-%=#+=%%=:=;;%%=%>;%=+&=%=+=&+=%%=-%%%-% =+;+;;-#%&&-%%+--;=%=",
";=%==;%%;%+%;--=%=>#%;=%%=% &=%%%%-%=;;#%==++%-;;++=;%=%=%%;;o++;=%==;%%;%+%;--=%=>#%;=%%=% &=%%%%-%=;;#%==++%-;;++=;%=%=%%;;o++",
";;%o%#0%%%;-%%-=%%;#=-%%=++%%%%=%;-==%====%%=--%& &%&%==+;;===y%;;%o%#0%%%;-%%-=%%;#=-%%=++%%%%=%;-==%====%%=--%& &%&%==+;;===y%",
";%+%%%;%=-;%%%=%+-;%%&==;##&%+%:0--%%&oo==%;;=;-%=%=&%%+==;;;%yo;%+%%%;%=-;%%%=%+-;%%&==;##&%+%:0--%%&oo==%;;=;-%=%=&%%+==;;;%yo",
"%:+;===;#%#=;%-%%%+%;%=:%-%==--%=#>%%;%;+=-;o==%+%=+%==--&&%;+=:%:+;===;#%#=;%-%%%+%;%=:%-%==--%=#>%%;%;+=-;o==%+%=+%==--&&%;+=:",
"&&%%=#;;;+;;4%%%%%%+#%==#-=%-;-#=%;+--;#%%#oy-;;;u%%;==0#%&%===:&&%%=#;;;+;;4%%%%%%+#%==#-=%-;-#=%;+--;#%%#oy-;;;u%%;==0#%&%===:",
"=4=%%+%;%;%%%:;;;#:==%;;;=:=%&++%::&&:=%:-#;%#%%%%%#%;;-;%-=+=%==4=%%+%;%;%%%:;;;#:==%;;;=:=%&++%::&&:=%:-#;%#%%%%%#%;;-;%-=+=%=",
"======%%+==%#4=-;%=-=-;==ii<1p<<1i1aa1a1=%=;#==+%=;;;--;-=%%+% %======%%+==%#4=-;%=-=-;==ii<1p<<1i1aa1a1=%=;#==+%=;;;--;-=%%+% %",
"%%--+==+%=#=;+=%=&=-=-==711%1sdd;1<;;<;<&-%%=:=&%%-;;%--%=%===--%%--+==+%=#=;+=%=&=-=-==711%1sdd;1<;;<;<&-%%=:=&%%-;;%--%=%===--",
"==-;%+#%;-=%=:=+==;=:=&rw%%<<3ddd;%;<;;a&;=%::=-&=0--%=#==+=:%;;==-;%+#%;-=%=:=+==;=:=&rw%%<<3ddd;%;<;;a&;=%::=-&=0--%=#==+=:%;;",
"=%;=4%%%;;%o%+=-%-&==%+:r33%<f3d1%;;;<<a%;o++=--%=%;;=%&=====%-;=%;=4%%%;;%o%+=-%-&==%+:r33%<f3d1%;;;<<a%;o++=--%=%;;=%&=====%-;",
">%&=&%=;%%;+=+%%--#=+===w%%3%d31%;1;1<%1:==y%%-;+=%%&==%=;++;;+%>%&=&%=;%%;+=+%%--#=+===w%%3%d31%;1;1<%1:==y%%-;+=%%&==%=;++;;+%",
";==%yy%%==%-=+=%=%=+==- w%<<%3%<<;;;<;;<%;%yo;;#%+==%=+;;==;--%%;==%yy%%==%-=+=%=%=+==- w%<<%3%<<;;;<;;<%;%yo;;#%+==%=+;;==;--%%",
"-y>%%;;;--%-%+-+:=:%:=-=73%%%<%1%<<;;;d1=;+=:%====+&+%---#%;;-=%-y>%%;;;--%-%+-+:=:%:=-=73%%%<%1%<<;;;d1=;+=:%====+&+%---#%;;-=%",
"&-;;&=---;+%=%;-=:=:%=::37:wrww=w=:w7ww%%===:=:==&%==%%%=+;%=%%%&&%% :&&&%o=:=%&::=:%=::37:wrww=w=:w7ww%%===:=:== =::===:o%=:===",
"-%%%=;+:-#%&;+==71<<1<<1<1<1i11ag:77+7 ==+=%==%;%%%%-=+&%:%%%%+-:1<h<ja<111i111h71<<1<<1<1<1i11ag:77+7 ==+=%==%;:<<<1a<111<1a11k",
"*%%===%=-%=-%;%%w<%;<%%%1<1<<%;1:r:==:r+%+% %%;-;+=%-;=-%=%%%++=:;%;pl<<<%<55l5,w<%;<%%%1<1<<%;1:r:==:r+%+% %%;-:;;l1;<<;;%<1<11",
"-%;+;,-%%:&=;%=rw%%;131l1<<;a<;1==>#%;=%===---;%%%%-;#%%%-;%+;=@:1d;dd5%<<%5<;djw%%;131l1<<;a<;1==>#%;=%===---;::;<;;<1<55<%1111",
"%=%=--#;>++-%#+rw;;;;11l1l1<;1;<=%;#=-%%=:%;;-=%=&%%%4%=%;#%++%r31%%;;d%5<f558%,w;;;;11l1l1<;1;<=%;#=-%%=:%;;-=:7;%1;511<;8la<;<",
"&&=%&->;;==-%%%r7%;;;l<1l1111;;1o-;%%&====%-;===+%-;=;%%=;%;;=%=:dd%<;;;;;%;;%;<7%;;;l<1l1111;;1o-;%%&====%-;==r:<%<;1<111<11;1i",
"%%=%+%=%&%%=o%- wdd%;<<<1;11<1%;=%+%;%=:+;;+%=;;===;=%%+===;=%=ow%1;d<<%;ddddl1<wdd%;<<<1;11<1%;=%+%;%=:+;;+%=;=3;<<<;5<5l;;<;%<",
";;-+;%%=+%%&;%%=7%s1<511;;;1i111=%%+#%==;--%%%%%%%;+%;%===%%%-==7%d85%;%%;85%55a7%s1<511;;;1i111=%%+#%==;--%%%%::111;<<15%;;;1%<",
"=: &%+%%o=%;;%==w7w:33=www73733=%+r::=%%%%&:=&:z%+&%%%%&:;%;-4=rr7:73=;:7:%:%:=:w7w:33=www73733=;#:==%;;;%&:=&: :7::7=7:3=w:wwrr",
"hjj<a1a<%o%+==+=.rr.:r:.=a1ixaika<a1111171<a1<<11<<1axaa %%-% =:r:@:r:777ahha1111h1aaa1,wrr:o r-;%=-=-;=71<a1<<11<<1axaa3a1<<;-;",
"s1d%<%;1=:==%%=:c r r:::7<1;<t111;<<;%;1:;<<1%<1;%1;;%1a;%%%=#=r:@r= :=r:l%7d;;;5<<1;<11:ror=:r%=&=-=-==:;<<1%<1;%1;;%1aw;1;%3%7",
"3<%7;<<i:=%;%=-==o#>--=::<l1111;11<;;5;<w<<<%%;<d<d;<%%1%%=:-+++-%=;--=::1%f<;d;<<<1%%1a%-=%=:=+==;=:=&rw<<<%%;<d<d;<%%1:<;<;%;3",
"<;;%;%;1=%%%&;;-%%%%-;;::<<1d1l1<l115d%1:d1;t1d%733%f<<<&%=4+%==;%%=-;=rw1;%%%<d<5;<13di%;%o%+=-%-&==%+::d1;t1d%733%f<<<=1;5;1<5",
"1<;;sd%;&%=%=;,%#=+%+;%r=l;;dl1%5;l;<;;1:%<ll%1ssp%<;%<a=&%#=---+%=%= % :s%%%;%5<%<;<1p<=%;+=+%%--#=+===:%<ll%1ssp%<;%<aw11;1l55",
"11<<;%1<:==-%;%;%+&--=&r%<l;;;;;<;;<%%1i:ll15;%3%33f%d;1+%;%=-,;=+%:==%=g:%%;%;%;;%;;;%1:=%-=+=%=%=+==- :ll15;%3%33f%d;1=11a11;l",
";3<;5;%< ;;%%=%%====%=%:%;;;<%;;;l;%;11<r;1;<l<<%%7%<<;<&;%++;-;&%%%+%=rrd<3111;;d%<;%%1&-%-%+-+:=:%:=-=r;1;<l<<%%7%<<;<=1511<;5",
"w7%::wgr %+ =:==:==%%%&ww7==%:%w7:::ww7:w=7::7:::7:ww7::;=:&:&::===%---:7frrw=:=%r:w3r::&%o=:=%&::=:%=::w=7::7:::7:ww7::77d=7:::",
":<a1;<hhii2<a1ai:1;1;;1a1iaaaa1arrr7r @77  rrr:r=1ia<1a111aia1a1r+;%%==:r@rrrrr@:1;1;;1a1iaaaa1a:1a1<a1<a<11-<1i:r:.rr.7.rr.:r:+",
"=d37317%d<11;%51=;3733%;<<<1<;d1r::r ::: :cr:=:==1a1;;<%;%151<%<;;-%=#+r::rrr==:=;3733%;<<<1<;d1:;%;;1<<3%3%%<;a:rrr::r:c r r::%",
"7;3%171;%f;1%11x3%<3%<;;1;5;5<d<=%-%=;;#%==++%-=711;%%;%;1l;<11a%=%==;%%;%+%;--r3%<3%<;;1;5;5<d<g%;;1l<<%%3%<<;a:=%;%=-==o#>--=%",
"wd7%7%1;;1<1;1;1:<%1<1<5;5<<;13<=;-==%====%%=--:31<11l<11<;;11<1%;%o%#0%%%;-%%-r:<%1<1<5;5<<;13<7;<<%3<;<11d<;%i=%%%&;;-%%%%-;;%",
"w<d7:1<l1%%1<3<h:311d%%18;517%3;#--%%&oo==%;;=; :11111t1811;<<<<%%+%%%;%=-;%%%=::311d%%18;517%3;w373<%3%13<;<<<1&%=%=;,%#=+%%;%=",
":;7d1%;1151<<1%<7%%:%%155;%;%3%<:#>%%;==o7-;o==:=11aa1111111l1;<=:+;===;#%#=;%-:7%%:%%155;%;%3%<w7<<:%%%%73;1<;a:==-%;%;%+&--=&=",
":%fd%l1<<1<11:<;w<3%%;5<51<%1331:==+--=%:=#oy-;=31aa11111a51<5;h &%%=#;%%+%%-=%:w<3%%;5<51<%133173<%<3%%%%11<<1k ;;%%=%%====%=%%",
":%r77:7=::=%==ww:7w7:3===:::w=7:=rr&&rr:r&o::o:r3333%3==7::333:::z:==.rrr:rrrr:r:7w7:3===:::w=7:w=3ww:7::7::w33= =+ :rrrrr:%%%&o",
"a<;p<aa1:<;;<<<1<<<aa1ai7a1i1iii<111;11;7;<1iiiaaaakaa1a71aaaaa1a<;p<aa1:<;;<<<1<<<aa1ai7a1i1iii<111;11;7;<1iiiaaaakaa1a71aaaaa1",
";;1l11<<w7d:;<<;1;11<5<a7%;;3<;%13%<%s<1:3<11<a111<1a<;a%1;1<<;<;;1l11<<w7d:;<<;1;11<5<a7%;;3<;%13%<%s<1:3<11<a111<1a<;a%1;1<<;<",
";1;11;f;=<33131;<<1<1%%h:d<;%%%%pd%%%%7ar:%<<a<<11<a13<k=;11<5<;;1;11;f;=<33131;<<1<1%%h:d<;%%%%pd%%%%7ar:%<<a<<11<a13<k=;11<5<;",
";%l18<dp3<1<3%<3d;<%%%;<w%%7<p1s%s%%%ffp7s%%3:%11;11<;1i31aaa1<;;%l18<dp3<1<3%<3d;<%%%;<w%%7<p1s%s%%%ffp7s%%3:%11;11<;1i31aaa1<;",
"11<;1<%2w7<<;<7:%%3l1f7h7d3%%dd3%%%%77<;r3d%<::73<%1a;;a=a111<<;11<;1<%2w7<<;<7:%%3l1f7h7d3%%dd3%%%%77<;r3d%<::73<%1a;;a=a111<<;",
"1;;<;%d1f<%<d%3<s11111%hr<%11<3%%37%11327<<73%O7<%<<1<1a71<55;;t1;;<;%d1f<%<d%3<s11111%hr<%11<3%%37%11327<<73%O7<%<<1<1a71<55;;t",
";11171<;73<<;d13<;;<<131r71111<1%31%77<1:3%3<3<<;;11;%1i=;811;18;11171<;73<<;d13<;;<<131r71111<1%31%77<1:3%3<3<<;;11;%1i=;811;18",
"=%3::wr7=:7=7=77==3:=337:777w73:33=7f77rr:777w::::::7:733:=:3=::=%3::wr7=:7=7=77==3:=337:777w73:33=7f77rr:777w::::::7:733:=:3=::",
"w1aaa<aa111<1i2a31,a<<<<<12<ai<<w11xaa1<<<11aa1<:aa11h<<111<1aa1w1aaa<aa111<1i2a31,a<<<<<12<ai<<w11xaa1<<<11aa1<:aa11h<<111<1aa1",
"3<11111<1;111%%<w11;;%<<<71%1d<a31111l<13%<;l<<a7<<<;%%d<71%<l;13<11111<1;111%%<w11;;%<<<71%1d<a31111l<13%<;l<<a7<<<;%%d<71%<l;1",
"3l;;<5;;;1;%<;%<:5l1;<<%3331%;3<318a11;l<%%<15<i=1<;;;;;3l;%11la3l;;<5;;;1;%<;%<:5l1;<<%3331%;3<318a11;l<%%<15<i=1<;;;;;3l;%11la",
"%1;<1;%1%%;<1<%a71ll<;1111<l<;dh71l11111<<;1<11a=1<;1;<%%%%1<<1a%1;<1;%1%%;<1<%a71ll<;1111<l<;dh71l11111<<;1<11a=1<;1;<%%%%1<<1a",
"7;;;;%<;l11111<1=;l5;<;%311111%<w<<;11;%%<5<11;1w%l%3<3;%%1;;;<i7;;;;%<;l11111<1=;l5;<;%311111%<w<<;11;%%<5<11;1w%l%3<3;%%1;;;<i",
"w1;<;<<l1%;a111a:<1;1;;11<%<;%<<:;<;;;<%1<;;;%;h=;3%1d3%%3%%;<;<w1;<;<<l1%;a111a:<1;1;;11<%<;%<<:;<;;;<%1<;;;%;h=;3%1d3%%3%%;<;<",
":%;11;<1%<5811<a:l<5<1<11;%%13<1r%d%<<;<1d;t1;11:%%f3s%<sd<<5;1<:%;11;<1%<5811<a:l<5<1<11;%%13<1r%d%<<;<1d;t1;11:%%f3s%<sd<<5;1<",
"373===37:::=3====%:::%=73w:77ww77=::www777773%7:w77ww7:rr:w::=7=373===37:::=3====%:::%=73w:77ww77=::www777773%7:w77ww7:rr:w::=7=",
"aaaiaaxi7<1<1<<ia<11a1<a=1ha11haahh111h,wa1ii1<a1aa1<<11:1<h1<aaaaaiaaxi7<1<1<<ia<11a1<a=1ha11haahh111h,wa1ii1<a1aa1<<11:1<h1<aa",
";<;1<11a7%;;%77%;;%;1;;1w33;%3d13;33;5di731<5l;<%11<<1%1:%%;pd;%;<;1<11a7%;;%77%;;%;1;;1w33;%3d13;33;5di731<5l;<%11<<1%1:%%;pd;%",
";<1<<11a=;;%d3<3%;%;;d1pw<s%%%%<;11<ddpa73;15ll<<l<;<%32ws%;;d;<;<1<<11a=;;%d3<3%;%;;d1pw<s%%%%<;11<ddpa73;15ll<<l<;<%32ws%;;d;<",
"1<%;<1<a:<1<d%%%3<15d;s<wpddd3d1;;3<d;d1w7%1<15;<11%%3%;r%s<;11;1<%;<1<a:<1<d%%%3<15d;s<wpddd3d1;;3<d;d1w7%1<15;<11%%3%;r%s<;11;",
"1l;<1111%1811<s%%%<<1d3hw%%3d;;<;3<11d;17<<<1;;;;;%3<7d;:73;;<1<1l;<1111%1811<s%%%<<1d3hw%%3d;;<;3<11d;17<<<1;;;;;%3<7d;:73;;<1<",
";la11%;1:8<1;<d3s3%%;7%1:3<s%%<33%;;%%3<:1111;18;<;17ss;7%<;<11<;la11%;1:8<1;<d3s3%%;7%1:3<s%%<33%;;%%3<:1111;18;<;17ss;7%<;<11<",
";<<11%11718;<%3%%<%%%731:%%331%%;11<<<<1w;11;1;;%;%<3ss,:d3%;<1;;<<11%11718;<%3%%<%%%731:%%331%%;11<<<<1w;11;1;;%;%<3ss,:d3%;<1;",
"3=33=7;7%7=::7f:7:77w7:::7:7www7:=:w::wwr73w::=:7w7r:7777:ww=:7%3=33=7;7%7=::7f:7:77w7:::7:7www7:=:w::wwr73w::=:7w7r:7777:ww=:7%",
"=axa1iivk1a1a1<2=<<<12<h111<;<<2:1<111i1111;phjh:1h<;<2<<;<1iiaa=axa1iivk1a1a1<2=<<<12<h111<;<<2:1<111i1111;phjh:1h<;<2<<;<1iiaa",
"=<<1l1<111<5<;;<:1d<3333%d;3<%%<wd%%1<<1;1;sd%;<7d3d%d3<<;;<l5<<=<<1l1<111<5<;;<:1d<3333%d;3<%%<wd%%1<<1;1;sd%;<7d3d%d3<<;;<l5<<",
"d1l<15t1a55l;<1a7<f%;1<3;;<11;<1:7d1<%11;f;;d;%;rd1d<33;%;;;<51ad1l<15t1a55l;<1a7<f%;1<3;;<11;<1:7d1<%11;f;;d;%;rd1d<33;%;;;<51a",
"=115;<111<51<11i=;;<;%;%;%d11<<<w%1<;;%%%<%1%%%<:%31<d%<3;;;;;11=115;<111<51<11i=;;<;%;%;%d11<<<w%1<;;%%%<%1%%%<:%31<d%<3;;;;;11",
":<111;%55<<l;1<i31;%;1<;%f%%13%a:<1<13;;%7<%;<<17d<d3<1<;%%;%<li:<111;%55<<l;1<i31;%;1<;%f%%13%a:<1<13;;%7<%;<<17d<d3<1<;%%;%<li",
"=a1%<1<l;<1<<51a31;<1111;;<;%%<<w<;f%%;%%%%%;%;a:;<d<%13d3;1%;11=a1%<1<l;<1<<51a31;<1111;;<;%%<<w<;f%%;%%%%%;%;a:;<d<%13d3;1%;11",
":a11%1l;%%<;;11a=1;185<;%%;<%<32w7%%%1<;;<<1%<<1:;;;;1dd<%;l1;;1:a11%1l;%%<;;11a=1;185<;%%;<%<32w7%%%1<;;<<1%<<1:;;;;1dd<%;l1;;1",
"7===w3%%:7::77:737%%%=:::37wwww:::::777w7:=w==www77:7ww:7:777ww=7===w3%%:7::77:737%%%=:::37wwww:::::777w7:=w==www77:7ww:7:777ww=",
"1aaia1<j3;aaaa<1a1aaaaia=ii<1p<<1i1aa1a1:a1hh1hh111haaa1=11i<11a1aaia1<j3;aaaa<1a1aaaaia=ii<1p<<1i1aa1a1:a1hh1hh111haaa1=11i<11a",
";15l<%;jr71%1;1<;1;;1<1i711%1sdd;1<;;<;<7;d<1s<%%%%3;;;a:;;%f;1;;15l<%;jr71%1;1<;1;;1<1i711%1sdd;1<;;<;<7;d<1s<%%%%3;;;a:;;%f;1;",
"<<15%%5h3ll1<%l1l11<<<1<w%%<<3ddd;%;<;;a7;1%%%%%3d%d71;a:%;;%l11<<15%%5h3ll1<%l1l11<<<1<w%%<<3ddd;%;<;;a7;1%%%%%3d%d71;a:%;;%l11",
"l;l;df%h:;<<f;;;1;5<;1%<r33%<f3d1%;;;<<a=;%%fs1%%%3<;;;aw%;<<111l;l;df%h:;<<f;;;1;5<;1%<r33%<f3d1%;;;<<a=;%%fs1%%%3<;;;aw%;<<111",
"51l;%fda:l<;<<5%%11<1;;1w%%3%d31%;1;1<%1=;<%13%<<dd1%<51w%%13%%;51l;%fda:l<;<<5%%11<1;;1w%%3%d31%;1;1<%1=;<%13%<<dd1%<51w%%13%%;",
"1apfdff1:11;<<1%<1%%;%<1w%<<%3%<<;;;<;;<w%%%%<<33%;;1;;1w;f%<%<11apfdff1:11;<<1%<1%%;%<1w%<<%3%<<;;;<;;<w%%%%<<33%;;1;;1w;f%<%<1",
"lilds%da%5;1a1<;l;;;<;;h73%%%<%1%<<;;;d1w1d333%<<1;;;<%<7<%33%;;lilds%da%5;1a1<;l;;;<;;h73%%%<%1%<<;;;d1w1d333%<<1;;;<%<7<%33%;;",
"3%fw77::w::d:37==7::==::37:wrww=w=:w7ww%3:=7ww:::7:::w3w::7f:7=33%fw77::w::d:37==7::==::37:wrww=w=:w7ww%3:=7ww:::7:::w3w::7f:7=3",
":1<h<ja<111i111h71<<1<<1<1<1i11a711<a1<a11<<<11a:<<<1a<111<1a11k:1<h<ja<111i111h71<<1<<1<1<1i11a711<a1<a11<<<11a:<<<1a<111<1a11k",
":;%;pl<<<%<55l5,w<%;<%%%1<1<<%;13;;5;;%;<1;%%1la:;;l1;<<;;%<1<11:;%;pl<<<%<55l5,w<%;<%%%1<1<<%;13;;5;;%;<1;%%1la:;;l1;<<;;%<1<11",
":1d;dd5%<<%5<;djw%%;131l1<<;a<;17;1;<%;;<;;1;;;<:;<;;<1<55<%1111:1d;dd5%<<%5<;djw%%;131l1<<;a<;17;1;<%;;<;;1;;;<:;<;;<1<55<%1111",
"31%%;;d%5<f558%,w;;;;11l1l1<;1;<:;ddddd;1;<<;<;a7;%1;511<;8la<;<31%%;;d%5<f558%,w;;;;11l1l1<;1;<:;ddddd;1;<<;<;a7;%1;511<;8la<;<",
":dd%<;;;;;%;;%;<7%;;;l<1l1111;;1wd%d%%%%%;11l111:<%<;1<111<11;1i:dd%<;;;;;%;;%;<7%;;;l<1l1111;;1wd%d%%%%%;11l111:<%<;1<111<11;1i",
"w%1;d<<%;ddddl1<wdd%;<<<1;11<1%;w3d;%<<5;%%;11;a3;<<<;5<5l;;<;%<w%1;d<<%;ddddl1<wdd%;<<<1;11<1%;w3d;%<<5;%%;11;a3;<<<;5<5l;;<;%<",
"7%d85%;%%;85%55a7%s1<511;;;1i111w;1%d<5d;;<1<<;a:111;<<15%;;;1%<7%d85%;%%;85%55a7%s1<511;;;1i111w;1%d<5d;;<1<<;a:111;<<15%;;;1%<",
"r7:73=;:7:%:%:=:w7w:33=www73733==w::::==3::7777::7::7=7:3=w:wwrrr7:73=;:7:%:%:=:w7w:33=www73733==w::::==3::7777::7::7=7:3=w:wwrr",
"hjj<a1a<7ahha1111h1aaa1,=a1ixaika<a1111171<a1<<11<<1axaa3a1<<;-;hjj<a1a<7ahha1111h1aaa1,=a1ixaika<a1111171<a1<<11<<1axaa3a1<<;-;",
"s1d%<%;1:l%7d;;;5<<1;<117<1;<t111;<<;%;1:;<<1%<1;%1;;%1aw;1;%3%7s1d%<%;1:l%7d;;;5<<1;<117<1;<t111;<<;%;1:;<<1%<1;%1;;%1aw;1;%3%7",
"3<%7;<<i:1%f<;d;<<<1%%1a:<l1111;11<;;5;<w<<<%%;<d<d;<%%1:<;<;%;33<%7;<<i:1%f<;d;<<<1%%1a:<l1111;11<;;5;<w<<<%%;<d<d;<%%1:<;<;%;3",
"<;;%;%;1w1;%%%<d<5;<13di:<<1d1l1<l115d%1:d1;t1d%733%f<<<=1;5;1<5<;;%;%;1w1;%%%<d<5;<13di:<<1d1l1<l115d%1:d1;t1d%733%f<<<=1;5;1<5",
"1<;;sd%;:s%%%;%5<%<;<1p<=l;;dl1%5;l;<;;1:%<ll%1ssp%<;%<aw11;1l551<;;sd%;:s%%%;%5<%<;<1p<=l;;dl1%5;l;<;;1:%<ll%1ssp%<;%<aw11;1l55",
"11<<;%1<g:%%;%;%;;%;;;%1%<l;;;;;<;;<%%1i:ll15;%3%33f%d;1=11a11;l11<<;%1<g:%%;%;%;;%;;;%1%<l;;;;;<;;<%%1i:ll15;%3%33f%d;1=11a11;l",
";3<;5;%<rd<3111;;d%<;%%1%;;;<%;;;l;%;11<r;1;<l<<%%7%<<;<=1511<;5;3<;5;%<rd<3111;;d%<;%%1%;;;<%;;;l;%;11<r;1;<l<<%%7%<<;<=1511<;5",
"w7%::wgr7frrw=:=%r:w3r::w7==%:%w7:::ww7:w=7::7:::7:ww7::77d=7:::w7%::wgr7frrw=:=%r:w3r::w7==%:%w7:::ww7:w=7::7:::7:ww7::77d=7:::",
":<a1;<hhii2<a1ai:1;1;;1a1iaaaa1a:1a1<a1<a<11-<1i=1ia<1a111aia1a1:<a1;<hhii2<a1ai:1;1;;1a1iaaaa1a:1a1<a1<a<11-<1i=1ia<1a111aia1a1",
"=d37317%d<11;%51=;3733%;<<<1<;d1:;%;;1<<3%3%%<;a=1a1;;<%;%151<%<=d37317%d<11;%51=;3733%;<<<1<;d1:;%;;1<<3%3%%<;a=1a1;;<%;%151<%<",
"7;3%171;%f;1%11x3%<3%<;;1;5;5<d<g%;;1l<<%%3%<<;a711;%%;%;1l;<11a7;3%171;%f;1%11x3%<3%<;;1;5;5<d<g%;;1l<<%%3%<<;a711;%%;%;1l;<11a",
"wd7%7%1;;1<1;1;1:<%1<1<5;5<<;13<7;<<%3<;<11d<;%i31<11l<11<;;11<1wd7%7%1;;1<1;1;1:<%1<1<5;5<<;13<7;<<%3<;<11d<;%i31<11l<11<;;11<1",
"w<d7:1<l1%%1<3<h:311d%%18;517%3;w373<%3%13<;<<<1:11111t1811;<<<<w<d7:1<l1%%1<3<h:311d%%18;517%3;w373<%3%13<;<<<1:11111t1811;<<<<",
":;7d1%;1151<<1%<7%%:%%155;%;%3%<w7<<:%%%%73;1<;a=11aa1111111l1;<:;7d1%;1151<<1%<7%%:%%155;%;%3%<w7<<:%%%%73;1<;a=11aa1111111l1;<",
":%fd%l1<<1<11:<;w<3%%;5<51<%133173<%<3%%%%11<<1k31aa11111a51<5;h:%fd%l1<<1<11:<;w<3%%;5<51<%133173<%<3%%%%11<<1k31aa11111a51<5;h",
":%r77:7=::=%==ww:7w7:3===:::w=7:w=3ww:7::7::w33=3333%3==7::333:::%r77:7=::=%==ww:7w7:3===:::w=7:w=3ww:7::7::w33=3333%3==7::333::",
"1aa<a11aa37<1<aa<<11<<iia7<a<ia31131a<aa1111<aaa<aaai<3a<31a3<aa1aa<a11aa37<1<aa<<11<<iia7<a<ia31131a<aa1111<aaa<aaai<3a<31a3<aa",
"11<<<<33<<773<<<;<33333<<3<<<137133<373133<<73<<<<3<<7733<3<333311<<<<33<<773<<<;<33333<<3<<<137133<373133<<73<<<<3<<7733<3<3333",
"iaaaa111<1a3<iaii1a1aaa1<<a<3<ia<11i<73aa1ai<3aaa11aa33i<1iiaa<3iaaaa111<1a3<iaii1a1aaa1<<a<3<ia<11i<73aa1ai<3aaa11aa33i<1iiaa<3",
"<<1333<33<173<3<<3<<<<1137<<33<11733<731<<<1<333<<<3<<3333<<3<77<<1333<33<173<3<<3<<<<1137<<33<11733<731<<<1<333<<<3<<3333<<3<77",
"aaa<aaaa1ia3aai1aaa<<aaai31iaiiia31ki3a<<3<a111<aa<<a111a1aiia<aaaa<aaaa1ia3aai1aaa<<aaai31iaiiia31ki3a<<3<a111<aa<<a111a1aiia<a",
"33777333733r3377337337333:3333733:733:77:7333373777773333773377333777333733r3377337337333:3333733:733:77:73333737777733337733773",
"<377777733:73777333337733:333773777733773-7377333337773377733377<377777733:73777333337733:333773777733773-7377333337773377733377",
"3333<<<<33313<333<1333<133<<a<137<3<<<3333<3331<3<133<1333<<<<333333<<<<33313<333<1333<133<<a<137<3<<<3333<3331<3<133<1333<<<<33"
};
