/* XPM */
static char *ed90a915b1fd4d2cb8c5be7e7d9f9bc7[] = {
/* columns rows colors chars-per-pixel */
"128 128 88 1 ",
"  c #704230",
". c #4B422C",
"X c #4B4B23",
"o c #4B3E1B",
"O c #5E4B1B",
"+ c #5E3E2C",
"@ c #503527",
"# c #423023",
"$ c #501B1B",
"% c #47392C",
"& c #3E1B1B",
"* c #39301B",
"= c #354235",
"- c #4B3539",
"; c #741B1B",
": c #423030",
"> c #3E3527",
", c #231B1B",
"< c #503539",
"1 c #352727",
"2 c #30301B",
"3 c #392C1B",
"4 c #591B1B",
"5 c #2C2323",
"6 c #2C1B1B",
"7 c #39391C",
"8 c #2C2723",
"9 c #352C27",
"0 c #351B1B",
"q c #593E42",
"w c #27231B",
"e c #AB1B1B",
"r c #7D6723",
"t c #471B1B",
"y c #594B35",
"u c #7D4B35",
"i c #705E23",
"p c #1B1B1B",
"a c #70591B",
"s c #674750",
"d c #27271B",
"f c #826B1B",
"g c #795942",
"h c #1C1C1B",
"j c #9D5942",
"k c #675447",
"l c #625035",
"z c #23231B",
"x c #AB7962",
"c c #8B624B",
"v c #BD6754",
"b c #705939",
"n c #705059",
"m c #6B1B1B",
"M c #796254",
"N c #986B54",
"B c #8F1B1B",
"V c #594B3E",
"C c #232723",
"Z c #981B1B",
"A c #707027",
"S c #39302C",
"D c #39391B",
"F c #947027",
"G c #8B503E",
"H c #7D5967",
"J c #59501B",
"K c #2C3930",
"L c #AB5E4B",
"P c #273027",
"I c #866B23",
"U c #67591B",
"Y c #504B1B",
"T c #2C2C2C",
"R c #504230",
"E c #621B1B",
"W c #27272C",
"Q c #861B1B",
"! c #7D1B1B",
"~ c #3E4B3E",
"^ c #AF8F42",
"/ c #595923",
"( c #506759",
") c #947D6B",
"_ c #3E3E3E",
"` c #A2792C",
"' c #4B5E50",
"] c #B49886",
/* pixels */
" .XoO .+@O++#$+.+@+@%%@& +*o++ = +X -O;++:># + +O++O@%,@+@.++#<1o>+o>+++  <+X+#2@o@@++ OO*=# %+ %.o+<@ oO++X3 + +4+&4+++.5@13&5@",
"@O+@>63@73#o*++ ++@@#@31@813#:@++++#&8*3####+< &@+ 3o3916@#0@ + o+q837##@>3@3@*Oow#11#939###5@& @+ 63w81*@13#<@+o e#*@#1*,13#Oqo",
"r+ O2*59tw33+yu&@@&+3828ww85@<+#+o#+*ww88232i+<#Oo @881w#115@O +X<%@p6353#3#<o:4+Oo:635w3368&&+%+@qu88*8w881 y &iu y#w18w293  @+",
"X3%&a33#302+@O36t5#os2wd38,+o@#Oo#  f33,1#8+@+#++@O=g88wh58+Oj++o1w g#80238 +.#+ 8o+k#w#828 t #@%#++lz28,h8O#@> O+@%x#*,388%@ #X",
"c,3++s1983y+ 3+vg#8>@g9@@5-4q3#+b@5:Xg2##3+ +*#Os#8@#f5w50++-8#<a#3@@bww13+++#@#b#8@Ob#3+1#+<9d n+1%+n3w83  @w53g88@1q8156+%u@o+",
"m86h&5b8h*.+5*+efo53 +M3#@+O533&n*38O.O##%+y*8+ N>#8&obd#@>1wz&oa329%$s28 @+*1:-;#83@Oc82<<+8w# g70doXl0w&#@88*@B361@1N#,@O+883-",
"Vh,w6ooq@@@112+ig1383+Og+  921#+co583 +gs++##3o+g*32w+0g-o@#C8d@g3661@5g+@ 239d<b#3#3m@Z3+#w**++f#863++g.+@88830A888#+oc@$:h*,&+",
"g1362w@*1#8213#-g#3#33@@+#11wd8#g92338+   3#389#g48#3@:1@%##w,wXb&86#8@-#+###18*n8w#20+@X#86887+b#8,pho # 3*tw6pO126#8,O#S1h83wo",
"c80,2#@-+;86h0*@a##81#.OXN138#&+c18885&+Xn#383@+c#8328+ @fo+8w#+k881*2&@+b58881@c*8w3*@-@g*+883@g9366h&+ c#d0,5#D6#8,8+o@g38w3#+",
"ko,h8o 4.on28,*4g*338+@+ ug333@ b#*#1-#X+@g2#@#@f#289+:FuGc,h88Sl*#83&@ +3f8883&H:2*# 1+@&N@8##-b106wt**X<c386p&D,6#9@@@p6kwh8#@",
"g13w+@ *2o+J0*3-M@8w<<.*31 g82#Xg#58X#ow5+ c313oq938<++@9+%$6911bdz8<+@,8&ob6w*@g:81+@<8*u;c#88 n*w*@#+p1& f10,p-p681t@#w5&g6,@+",
"a@2<@;w36#+@f 9 c#3<@+3888O+k#3@g@3.  *1*3 Xb1@+a:0o<+5+>o@-;2@-qoK:<,0@two2q61#b13<& 3,22uLc230s82qP,pp,1oyf8*-J86t,06,66#PO,6#",
"@oX +883#63.<go#+o ++#89388#@M#+ 1O>o#3w388%+Ao oo.O<@+@*%& 1&*@#q*@X+t@@$:-uN*1+3#<@8@38*#S+f8+<+%.S,6p,h2@&bd-*8@>w*6,,6pw-t,t",
"+@ :23#82#3* +@+ O+ 1832##33@u +o+O@@#3*3*23-:u<*%u +IS&6@- t#*@3>++&+<++@@3 +00#6 @33528388@@++X +y36hh89p60S@31$2w666h8138@>5&",
"2@oyl+U.gIuU# @ O<Olgullykl+@@<++ +lgloukuqu+u@% @@@@@4#>2@*@$3*t+#3 +<+1-%<  >p:#2g.u+YoS+A# @-  +ytS&y:2o$hT61%O+Ro&YE+tl.#165",
"u+ @+@O   +o*i%@+@ Gu++<  O+oo#*:O@$q++ @@u%@+u+@ X.+E:@@*+-@O6#t@@-+##T+qt@@@1p>+.++@oy@+&@0@@@@++@@,&2@2t&,pp3 @.25W+uu&&0;=&p",
"@# @+y+o X<@$@#O+. y  ++uO ++yq@  O+ @qo+%<;@ ++ OO@<+#.@wh55,w555533&w>+2+>@<Tp@:&@-+ @@ @+%.@< +-=$o@6,52S6&p+m-SCwz@uO+:+#+ +",
"u :#6*3@@o#@#:@u O #1####9#*o++$:X+1oy>+ @o++ +% +<3#z35,w,3dh,,3833d#w3whdd3@0#@ @ @++t++X31-@  +;@15hh5,,50,#0@+@30C86&3&8##oy",
"@Oo+853133@*++@ u@o+#89388@8X@@O+u %OO3$O@o+O O 8w335d35,w5dw5wd5d353d6h5d3,336h#o@++O#o:o . %@@ <+@ww26hhz,6w&*o#4@,1h82382@&%X",
"O@  b333938+.o3++##yA*53#*# Koo+O#-og+O#+-+-+3333333d5333,d5h553w3,3553&333#3wzh556<o #< 6@+4@#<+1*@l3h,dz,,,1@o#oO np238182@y4 ",
"g15-+g#91#X@+3#-c#3  c388#O  13+c -+ ++- oO333d3#3335,,ddd35,,h,h,3356zz333d33hz535z5o  +&@&@<@+g3,<%tpp,,1w:pd+O6h@&D888w@++wP<",
"n01#uob@3@@+38>Xgo33O+b3#+@X3@#%g<+@+ &.+53333135583w5w8333ww,5w,3ww5w555&h,3#w,,355038 <@@<>t+SV668Xp4zp52@,,9@V380o@bw60@@38#;",
"b3831@Os  -5w8> N32#2+ f< %#w8+ c+o+O@ 33331d53353d5d,z3#5z5wzw55zwz,z35,,53333z3585153w53>3@:+3OO8685,b+@0,h89@No#wwpt$>#t359*G",
"A923#w+@++3w281@b33513;+oO3#2+<++@Ooo338335z53d835533533#333353w335zddwhz313ww,z5dw33d83355@XOy#nEO8w#O2536,26pXgo#312y@q233884q",
"f9,*3* @+b1851#oc#8833++ f#3 ++O+< +cd33z33333333333335#331w5333335h35w553333wdd8,dhpw55355P> ++&@+%83&&#$86dzd@Y332w8+#2Q8383@@",
"k#*#3u +1Xg3#w#+g@315+++ Oc ++@o+  +Obf538d53w5333535383,w5Cw533833w5h8w,61w35555d,h5585h56>u+-+T+3#6>tz5#q1,5,1J#,63@- 4ub85*# ",
"go**s O#9OXg839@f#88 +O89+ob+  <+53.oO+cw33385533335w133w63,d3dwd#33,55z,3333w53w#33w5z3o-$4+33 11;q3#+#@@:b0p#6q38w+1$31o+g3*3u",
"c+9+++9333< g1@ufo3X+y1@3O+  O+y333w<uO g3553333d33w3333333d5535h3336hw8d83133568,p533h+Oy<o3333@@#+=@O21t@#gh8Sp61#+0#828+>c31X",
" ou+ 8##*13++b+%X@<% 2*8+ +o ++5335d+<@O gldw53w5333hz5,355,,50833358h,5zw3w5#h555,1,&:+OO :8d0d5 +@-:P:8*wy>b35#d&<+833318 0n15",
" o+u#383#8133 + :   w#8O  @++ 53w333u @ +@:a535353633d338558333583333z3hh5535z3p5556++@#+:.+wd35h3<*O4:1u*89% oo&p@O8#9338*w&o<@",
"++ uuuu+uul+#   @.O+lUgs.++ +38338553+.<%+++nw33335,w5555,383dw3@538z518#3h,33w3w33@#@@#@+#3333,d5#o#;#lagR.o #+&t0go+++lugY3Ou ",
"@+s +< + + +o+ #@ y<+@X@+@O 333d3d35wuoo@+ X+cg5dw5whw5d5w5hw,33553363d3353hw#5#8 @@.@-&E@+383533d53o tt#+6@q::tPp26z#3&+>y&&t-@",
" @u++ @ >@@+4  &.o++@o ++++#h53w35333@  <@ #%@og3353d335,35z5,13o5d3335w355pzh6w%<@o+.+t+OO53&d333333 +60tS>-#:z+w15+*@p#% +@++ ",
"@++oo#o&##@#@:+.$<O9++o ++333w33333wzd+ +@@ X +og53333535wd33583533zd583m33553z0@+++#1-+  w35333333353 -O%@+&u+  $16d38Cd3#3# +<",
"+@@+*2#33#8@+X<@#+  @+*+@o383333335353.+O +    OofVd3w3wzz5wd335d316d55wd3338&-X + -+##. +wz5h55338333+3+3@+&++@#+o0z309P81# ++@",
"+#+ M#8*3#3+%X9&.9+@.+o@+3#w3538335335X2.-@o@+  o+<m,8w5zw,1w583855dd3333333+@+0+++ 41pwpp55,5dd3335358  @@qO##+@3X@b88*868<@<# ",
"g@8:@N3#*3@@.3d n#<0#O.+385d33333333333j @+@  +.+++@f5w,353d583533335,58w#3 @#1p6@ @#>&656853533d3dd335w+@@o++1ug71-+l62,w0@ 61@",
"c3#wO H89 @:53#+c++ <#q3383333333335mC#L4 ++ O+ :+@@ 4b63,5353355zddw53352ooS#pzo#@@#+@-+,383w3333#135h,,&<1@@3+m35w1,q63-4@,3>+",
"b#188+ HO+ 82*o%g @+@+%33553333338#3##5#y4@@+u ++@o@3 tg3355dz3385w5553dw#o#64*@.p&5&--o%hzddd33333538whw&*>@0+@458hp,&V#1u93##<",
"l@33#8-#.%*3881uf>-@@u33553533333353#3d3y@ @++d+++o#3#&+b#&5,h33535zw5d+@  #+@@.@51&,#1&3h5,613d33d5533d550>@#%3n3,,wd2p5>#302#o",
"g18333+@+s8386@+c+2*#+d33353333335d83533+@o<Obw&@@@&zott@sm,38338338d : @+:O>**-3&@03++@535w535d5533533338&o@:o3qh688,><@g83*53o",
"f9858@+%- g3*w@ ny@3#ddwww5w3533333z33w3 +O+Og363@@<+O+@.OOn,dd3z#3,@@###@y+<y@5h5uju+#@653d533w33358C33333@ t@<n39#6$@@&+b3#d#>",
"f388. +38@@J33#+Z+5&Sz8d53w3333355wd53335@ O qc530hO* @w&@51g$3335<@+ +$%1+%.53,ds+*+ %35w3585355d3w333d835<@+$$V@32@@tw8@.b5,5$",
"g86@< 8d2*@%bw1+%.@q+wd33d53533335z35w5#3 ++uyc55zw5++St&z+@%afw3o*   w*.%+ 3#8whpp2* @5335d3555d3d3535w35ww<++$c#3+ 56#,6o<gw1+",
" #3< #w8w22#%b#oqu#g5655dzw33833335533353@+u+@gw053w5++ +#@W#p#b+;@uj10@@6z5333wd+ @  +35w535dd53335333,&w33+u+-1uO<+#1368!+%g,2",
"+@. #688*3*# @#@#@l3333ww33335335535&33333+<o +g136,55w.&<,@-&@#@y+O@++,&d56,55z0@@#+ 3d5,333333385w3ww,5d335@-#ojO w2389868@&w@",
".@@uuU+l+luu6+:#6+k55535dz35d338353d583333 o+Ouc53,,535,&&5+@.+6#+.:&1@=33&3333d+  %XO33335333338355w,h3#333,>@>&#.yl~l+++<l3>5o",
"@*o#O++#++Gt@#+:O+A58d#358583338w533d3w33w+ OX@g3d3wz3wh,,wto#@+@0Cw-Xwd8,d3,35z+++@@o58d,,555333d5536353w3d601w->@#@@.3S% $$-@X",
"p;<q*<+@-@uO+@o.@g833##355353w35d33w135335<+@ ++M3z6h38w35,%o&6@$1 +y35331ww335@4@ @+ dd5php5353d33w55,333dw5do>0&*&@+u<++ S&oq#",
"&p-11o@#3###o%<++g533853333385w33z533338383O o og3w53533#3++@ @00++ yb03583w333-@@o*#5d5z,w03z335d83568#35653w~&>%w31+33 #+5o&@-",
"& y 81w3#3** +- @b333333%#513w8535w33335033@ .OXg35,d5855+ +#&0#&:+@X+g5335,585:0p++z5wd,d33,,35,,p3353,p36zww. @z$&#@o*w382*> @",
"+3+#a23#883Xy-@@k55z53338d3&5wz5d5w53d333#w .X+<+g5633w,1# j+##@# ++# +Vd5w535t2p5$@o#35z3333853335d3355,5zz535u+-.@H8,3w@!+To3t",
"g1w2+c3#1*@@#@+Xg35,d33d353833588333335z53d5 +@++b65d3r++@   @*3@+>&qoX@gg3335*#5%#+d533d533335d5z583d5,h5w557#@E+  qf8w83eu.1*.",
"l351 +b08<-@+y+@n33,535ww35zd38,53hw55653#33@@O+.s3CwO+O+@+@0%5533#$+*  &@^3w8@+O5u>53851dw555ddwd3335d8h5w83530-O+o+@nP8&+@8836",
"go8## <q@++8+@@+b55wh,ww5533355z3d55dw,33083+>+<OO+#@.StOp@<z683316S ++#+%oc33+&*+OOw53535whwp6,h3d1zz5w5w03h55++@@<1+Kgo $*83*>",
"g #833O@o+oX@+1+bdd,w355#33d,8,5h3dd653565d53++O+@+%@2t3+&o35h3#zh,5#o+%;ooyb++s+@+35z,535w66h,p,,35353w,55h,55@+O+**w+++#,33@1@",
"g@#581O++f#XOy@+ld3353w13d53,5355333w&35d5535.+O+ @+ O:<$35d5#3#wd53#d *+*O +&t&++163,3553,5533wdwd5w8dww5,,zwd:+<@5@3 :#!w129#O",
"b1*35+@:y1c  @ b3w55d5&555w@38,3w#3333w5858d3O+y+#:S@@*O333,hd33dCp3w5w>@@  +@+<.++3533d883whz5wwd5553335ww,w,5z&S@  @<#@$gw38#:",
"Y3*3@ .83+ AO<1a8,333353w35335,355z553w,w353w+ #$o@+%#.36d3dd333333d33333+@ow%y+# g353z5385&5335333d13533638dw,3#O++- +38<-b#89O",
"g#3O <#332 &+< g5538333,3333 35,,&6d85d3355w<@@+o<t2@d#83w58d55d33533563w5@o@- X+@Ok-353z355z533333z550533553z5wXu:+<+8333@+f3#t",
" o@ +88*828+oy+l3z5,33C3wh53+3833dw3538553+++Oo+ @#%3dz3w853+3w33wd53w3d33d5+@>1< .@Obz,zw383d335551853333d5zw3w@$<++13#*32+ c@@",
"+o1o2938120o%#*;wd6,z5d3333#w333dwd5,h5354<++. OO+ @gw5w3335353353553d3w3334;X:@o;@+O:Azhd535w,35w333,553d35w553+ OS@##,8319 y o",
"O @ullloY;ug@O g3335d5,w53d85353353C,,w6:t-  O    @yc3w55d3335w5333,5,d5533@+O@&%+ @@ X-g35553w3,z35z5,w055d5w33X+%kbq/lnqlu*+%.",
"&:O+  +o++o> y+b3353h,86z53w35d85Cw58w@o3+O<   +3@@q >z3#d85zw53d3333d353d3EO+y3o+-++oO +!d3&33333ww555,w3555538 #+-+=t +3O+O+ @",
" +%% O+  O + % c3353##3z5d53356z55833.@@+++++X353G#o0m563d5&68dwhd5555353z@%+@+53X@@+%++@ c333#w3#3dd,,zw53w3333O#6w +  @uO O++ ",
"X<+1#+#3#1+ujuOZ5533d53zd3ww3@#3wwd++.y+@@ :@w35w@@%>s3033C535,3853d5z335d+ +@+335+ o+. + +ng33333338355w5dz33d3  <w@#*3#o#+@ +O",
"u#++313@#*2 u:ugz33w338,dw5333z835+oO@++@:+33w3z3t@+.+@3633553w5zz58555z33@@+-@53335Xo+Oo  u+l13333333#d33533355$+#2O93333##   X",
"@#+ugd*1**3 u+<N33w83353d3hww#3,,@-O +O ;+3d383wd3@+@@s,831wdw3wd33333338:t+@Ow3d3d35@ +++@%O gR38353588dw333333o<5%b335833O+ @ ",
"c#* Og#88t Mq@@g3w553z5553wd,8304mo+ @  .33dw5333d%+=+b338z3h138z3855d383. ++@5d13333d3+++o@ +@.lC3333w535d33333uo@ of1123++ ##+",
"l@88o+c#*ou++  g3dd3538333d833u:#@o++@:3353333w5#6@@@=@u3335d8,3w33d33353O o+yzwdw335335o@-o+++%@b335333333333z3o +O  a21@  3*>@",
"b*3d#+<N @++<++g5&zdz3w3833,5j  +@++;<333335583ww5w@#o#gh35535dd3533#33z:oX <535,w3533353+o OEO@+yc%8333&8333333++y++O#bo+O999#o",
"a33353 +<o*OO+yg#3d&,z55335@o. u6~+<35333#3883dz33w2O++Yd55wd8333553333d.+@O@h6wdw53w553dw3+%O +#+X@g5333333355%@ 2@O8.y@ 33*@@+",
"l9338@+O#g#O:@O+f3d0w8#335@;@-ow*++335333333383dw3d+   +@d33#wd333538533 .+@;3655w3333d33d33O<&+O +OOn38533d33w+@@  @w.+@g*333#O",
"g##2*@O+O+g2+OX+g333d3553 @K&:>$*o33338w3#333dd3w,5d+@@-b535zw553333353O%++ 3356w3&d335333333@O+  @+  c@3533338++<:.2  q++b812#o",
"c#2*<@+#*  gOX. g353335o+++#$Xt*tMbfcgcngccgccnbgg:@ O 3lsgalggBgcggbffu+.@OsglbgbffngcgcMn+O@@X +y++ u f383838*@+#+#+@83@ob33@-",
"f#2+o+@913ounO Og5355d+# +<#oo10ooXo+ @yo ++%+< *@@+@o++.:+% >@ @+ @3.@+  %O+&++:@@y@+#+  +++O+-o:@+ u  +N#z33d+;o+ @#6#83+ a#>.",
" #+- #93383 O sOn3w53-1@*#+:oo:++O++O@ +O   O++@+-:#@.+#o@oX++-#+@+X +@++< @ @@++%++;u+O@+-@+@O+%@++   + @b+63w@@+@ +2###5#K s#@",
"++y+3##3#38#+ @+: 3+ +@+:+X>@+O +X@+++O  O #+ +o @+t*&+# @+Lru&#O2# :%y+O+++% +@+- @Su@%.O  @@+.OO @ + +  O@bw+@<+O@###8*132X+o+",
"+  kllYlulul#= .:+O.uX+o :++ @+u X.++O u EqO<+ +@+  --o   03#555wd3z6w  u@@yO+ +O+;@+-  Oo +q +@y +.     O<+*$ ++ @/lulUqll<7+o ",
"#+.oO+@++ O +@+ y@33d3533d,w3333338833d533333533353w,@+ u+M,Ood35d335.@@   533553w33338333h5335w8333333w3333d1:+Oo# O@+ :++u +-+",
"  +&++O @<+<OO   % #5,5p1z5685555533335533w33h353w135+@+Sogdd33553335+@  u+3833z533363333d55dw33333383d335533s+#@@   + X-+y:.++>",
"+ o@*&*#@#3o# +@+;a353dwp,6h,,hz6z35ww5355333w5633533 ++++-%355d5d35d@%% O+35wdd33333533w3d5333d333#333333358+u+ ++@o#1###31#:@*",
"  .o63*83811O +y@yb5d3wzwhw355h53h553355z3333333833w3doo@@.+08333#5d3o+ O+3d35d55w553d8355353333dd3333333d533%yX @+o3633833#  y3",
"+3# c #3888 +  + <+b5,w535w8ww35335535#53333385zd35353+@o@#g33533533@.+++@3333d555w3z53333d5w3533dd33z35d33w.+@+  X+g132#8#<X+@+",
"l1@OuH83*8+X%3#+ @<g05,5h,5,d3w58hdd333333335355ddddw,#@+++.>05z3333<++++@33533ww5z3w33333w33535h335w35353z0:<X c73+Ob81w*++X*# ",
"bo*3O g18 @+383yg+-:bpC55hw,,38333583335333w3,3333dd3,5;%+><o3w55553 @ +o33333ww83w365353335833833353336335++ + g@8#O.g38  O29@+",
"n##83% f ++32*@-c.%qc,w65wzddp,8353#333333533333d3d3333 @@$<M38335wyy%Oy+83w3z3d3+350533ddd33zw33335385,d13+ OyXlo22#uon+++##@#+",
"g3@###O%@ 583w# g<+@@swC,65556w135535383#35333533335335 @ $++>z3338@q+ @+33535833355w353d55,33313#3383353d++ +<Gc13333+Xu@3###1@",
"c@#*#* s@b#93*>>c@: 4A,z55z,php5533d333335533d333385533d>$++:@83858Xo++@5303d11158h55,313dz33333333333333&@O@. uc#*328+@yM3#8#@@",
"a1@1#++++yl3@*@@q: -12b1zd,,ww,3,wd553d3333333h33dw38w3wt # 1g336d*2@O+@533333w5553w3w33h383335,3@3333333 +i++ +g@33#@Oy+ g#2##+",
"fo## O #3+of#@9Ok.-1z%cw33563555555533333333333533d5w5zz:r>>++@333<+o: O3355w5,68d353&5hww58w&33d3335d333@u  O  g@33< u3#++g89* ",
"co3O u9#*#+Xb#oObC**+32b33w5553333,,3z5333d33353w85,3533*uO+2@@5w5. @+oO3355d3dw835z355h133#368,3w55#w33#* +g++<A3*+ %83#3++b2@+",
"+# OO*#883#.Og7%@9:z30#2aw533d388555383553d33,5333355w35d+@+@#b53#>u @ 033135553w15,,555653#53wd5513,w3o@+@ Eg#+ #   #83333:yno ",
"@+  #3332#*8+<y +@%@@+  @gd&d3w3583wz333#,553h838333d3d3d@#u>*-oz+@1++@3w333z335wdwdw3w3w5w33353375w33+u @+%@O<+ +X+#82223*3+@ +",
" GOulu/ll.ll3 +OuO<YmV@++b,w3333d5,3w333#53533d553z35ww53:## + Ew@+y -o333533w335333333phdd333355d55##-+Ogcf@@+O@ +YquYUkgul@u+ ",
"y-ui+O.  uO:yX+++%@@##+2y@gww355386w53d355353zw33683w,w5zz &+@&>q@+@X+385535333zz5533335533zd3553353d@O++:@+O@++@@>Ou <+@@+  .O ",
" +.<y +O+<+u:++ +u+@o-oO#5@;583353w53333w33335d85353wp,wz1@+o$@:#+X X<w333331188335w5335533ww35383#3+Xo % X<@ Oi+:-%@uy@   OO@<+",
" O<3#*#o@>+@*o@++ <#13@++ @+lz3d33dd3#3333dd3w35151w,z5w3d@->>+@@:y+++33333518d53333535835858ww3335@@ + +O913oO++.+3*9#o3##@@% -",
"++ O86523#33.>s@@++O222+<X<@1b355333#333333#33333336h6577,6+@oo ++>+@53383d3335533338w55p553w3d833 uo+ +j11# @   OG+92##w##8+y &",
"+@O<a8*233#@+o+  #@@l333 + +++Hw3d533333338333353336555338,-+6+t+@*$@3353553388533363wz,d33,63535+@O .e 338< <@:y3u+l338w81 X o ",
"g>3++g*w23 O+31@g3#:+b388+++u +g3z3583333#33d5553w33h33z55dO+o3@#-3 +d,33d5w3wdd3335dwzhwdh3#8w3no X@b@w2*1  31 c5#+:f38w9+ +3o+",
"g333yOb38+++91@Oc788+ c*6.o Oo +g33333383335335w5w5303ww,55w3+@> ++qzw533335d3wd335w553d55z6w38bXy+++@f39+++83@1n339@#nzd+@.#3*-",
"n#3#3++c<  1#8#oa#53*+@b-%@+@XO Xgc33838333835d355zw5,35z13d  X+++y+5z33333533383d3336,h355&3cny+@+-@#+fX<%!2*9 c*913++g@@$13*@ ",
"b78t*3o@-q8833#.c#28*8@y;@33@+ #@ +f33333303z8,33ww,353z33w8:o3o@ #+553w3w3533385333z,,3d3dzg +u+Oo@88&. @12*1@ c38888:  ;#9*1#%",
"g13##1 + c83386@co3528o<@s8w3@@OoO@@ldww6d68d53355wd3,3586z#3+u+.<-3353335535w53333+5h,63z5m%@0%f++8#8O+ b*1317+c@2w2#+ Og*93@3+",
"g@833. @+on3#3#+g@333 #oO@f*83#@gu#O+ca3335833,d5303555z553d5< +++ 355#3d533533w55,515315gV@.o#og-282  +y+n382o*N#2#2@@+*@M331#y",
"b@#3+@X32#@a2w7%c@31++.33S+n83oIg@@+@@+4g3dw53w33355555d55w33o++4u+z33338d555w53dd,5z5,(g+##@o*1g318+++88 +c*31of*2w+y+3# <c389+",
"s#9++<3682@+c83 f#9 +o3833.+fw* N+ t>+@++ga33d3553ww33333wwd58q@@X3353d333553wd333333Mg >@@$m+i+b#9 O@##w2@og##<b*#@ +w833 Xn2#@",
".9OO%8#w*33+Ok@yS8@ww8w1*8#+og## #+  -+@@++cn558356z#3mm5h53d3<+O 63333355353wd3353b4 @<#@+ <g#<So+:+#38238)@g@+<1 .+223391++f1X",
"S  y*2*3+@83@Oo2>:+u6ww28832+Oq o++-+++u++yXybkc353053#m7w53ddq#@ 33133353333553gab.#+t@#*% +  ++ #%31311339@+>+-O+o383t3333OOO@",
"qO y+Ul+.lY+6<+&o:Oqtq/Rll+uo-OO + lugcgfg@y#+#OcQg533 @335,83z1ow3533d533d35Aca@* $+gqabbn+*>Ou q.:_l$yRqll0%O#+4 luuD$lNIu9-+:",
" o@+@4@<yo3O O@ +@. o1@O%+ .++OO+; + +++@% Xu%+#o$qpggNg0wwwh55#@,58333nbgngg%6$O1+q+o<@+<+:*+`+->@+ oS#*@-++O+++Xo   O+<L+<:O  ",
"$X@O@@-@#%+#. uy@+ y..+@1:*$O+@ u.+@  < +% @uO E*+@;&$#@t4spOboq-bggggg   +  @&+-+ ++u#@o@+#+o*@+@+O++>opOt+$+o&$#O@ @+o+@ yo++-",
"++S###@65@133 +  + #8>d361#63@to+@y#917@#do3++O++-++u+%@&&1X@ <+.++<+    +o+ #:@@XOoo*1#o##@**3@@#O#711333##*#o@@%$#6*@d88613@++",
"+i+@+@8688831++O+XOe@1###33#@+%- X+ 883#*332+ +>O&C@@t>o&$ @:&-<.++O ++ % @@ + u.*+<8313333#++@@ 3+-035w9,8*@ X++ @@32#w8,,6oO@0",
"-1#Ogw1w866oX *@o8+ c331#93m%<3  @  N2#3@@*+-@@1+#.@n<%-1@w,@#toW< 2g++o+o +++3++@%<b8@8338+@.31+8<.pw*28,8.@L3@y1##b333w16@ O3 ",
"b*5T%(18w, @@8@Xm*8:.aw9#*   3#<fo# uf3#3* + 83$g@3@*s8 +@@o4:5+'++ +b +<@ .O##%g32 @b&3*2+#3,*+b80o%432wp1+O3#@Z#2O6ppz33+ @#3q",
"q6w8o+xww% @33+ g#83%.g83 + 8*# c7#8X+f38@OX833Og#33>+bp&S@@3,,pc&9wq%b51*@+38*-l#2#++cw3@> 38@ob#3# $;6z,-o881+b883o aPwOoo*21+",
"sC9#w&@(O+@682@+b#3#9 @s.o<#813.g*8#3O<c q 1883 c##38>&g@ @#88&1A3*13<@l3@ #33w@g#38w@+a<2+8#81@b#3#1 %a#+O33d1@g8888-+m   2##8@",
"k,3888T6,:98683<c3#3#8 ++O8&58#uc983#1 O@+#3333+g989*8+ Ou65@8,Pl8w2#2 o@+3983+-go8568y %#33#*o+c1893,+O++*58#3mg13*32@++O53d23+",
"V&w,50@uGaw33#8@bd3w8#+ +g288*8.c#*9#1+<#c233##Og#8#3w+%+g185@3ocd*863:@Ob15833*bo3#8#@u+l31#39.c*3333+:+g3353#oq18#33@:+c888#*.",
"]88w2@yeuOc2#31oc1#w8+    c333# l@3*3@+-+On8*8#+b##32O+ + b3*33%b1@83@+* @f2#31ON133d@y@#Sg82##<go#38#.X+Ob33C7#D#t881++.On853#@",
"A788-O+# . g8,7 4338i#<82<@f33@ g@#3O+;#*+ bdw9<g932o@%d8 Ob*38t4,,3+>+83+<;211$M#8*y++#w@@f23oub#33++q23<@f32*+b733@<+#3+Cnt29<",
"n#8 #.82331@lw1#l9##O@1#23O b31Xgo3+<>#3*#@+b#3;g+*@++#118# m88og30+@+8#@22@g39#a8w#+@1083o@s8#+g:3+o#3128&@;11&l#*++ 233hz+c8#+",
"O8:@ #*3#8w%Sb3#@0;+X833853+ foO @y@ #33133ook#q+#yO;888w8w&*n+;+8<++83#388+@g#y&dO.10z888z0@go0#8++ 1383zhp+Y7 @#+:<9323hwo-g##",
"@++@8#288031@O#S,@-X#3*@*w82@@+y +@<333*2w2w @3o++ @#83w8#2#<@o@+o -6#8339Pw+#+ &-@#23,w628,u + @<$4881,18w8@@@#@o+y33@33d82@@@%",
" ooloUuuU+tS*@ 1@wou+YuY+U+l1+o-+.@uy+ll++lu#yOo@+@++++kullu@+#@$ @lY<lul4Y+8%tE&@oRqqo+lYy+3  u#++ly/lylu:$8&o++:#<+qkY..oy##3@",
"Ou%@  :@@>1@@#3+O+& :@+++o1-:@+e+@E3 o@: O@ o++ %@.-+ @+%+>;E@++<E@@@.+@%O @+o %-&#@X<#O%>&@+iOS@+<+X<+y #y+ #-+* @$o1+@@.+<w@3:"
};
