/* XPM */
static char *dfba8bd7c7eb445de563ca92d0e02950[] = {
/* columns rows colors chars-per-pixel */
"128 128 23 1 ",
"  c #3E3527",
". c #423030",
"X c #352C27",
"o c #473E35",
"O c #2C2723",
"+ c #47392C",
"@ c #39302C",
"# c #2C2C2C",
"$ c #594B3E",
"% c #675447",
"& c #705059",
"* c #3E3E3E",
"= c #4B422C",
"- c #4B3539",
"; c #504230",
": c #503539",
"> c #796254",
", c #505050",
"< c #2C2323",
"1 c #23231B",
"2 c #86705E",
"3 c #352727",
"4 c #947D6B",
/* pixels */
"  .XoXX.. . oooooOOOOXXX XO   XXO  ooo XXXX XOX XX o X.X.XOXX. . .  +@OOOOOOO@@...@@@OO@@OXOOO@OOOOOOOOOOOOOOOOO@OO#OOO XO . XX ",
"$$%%&$%$$%%%%%%%$%*%.O%$$**=$$%%%%%%%%%%$%%$*%$$==%=%=%%=====O+$oo$$$$o.oo@@.=o$$o..o$ooo=oo...ooooooo..***$$oo$.@##@#O*==$=%$=$",
"$%%%$$%$$$$$%$%%%$==X.$$$=*$$$%%%%%%%%%%$==%%$$===*$$%$$$%$%$.+%$oooo$oooo*o*oo$=..$$$$$$$$.oo$o..oo=$o.***====o.@.#@O@=$%$==$%=",
"$$$%$=$=%$=$%%$%%$$=..$$$$%$$$$%%%$$==$$$=%%%$=$%=$$$=$%%==$$X $$oo*o*oo*oo*%o$%ooo$$%%$%%$$=*=**=*==%===**ooo%%o.-++O+$==%=====",
"$$$====$=$=*==$%$%=*XX$%$=%$=%=$$=$%=%==$=$$$=%$$%$$$=$==*==%  %%$=****=====$$==*$$=%%%=$$$======**=**$%%$*oo*o$ooo;;#+$%$=%$=%=",
"=%$==$==%===$$$%%$=%X.===$$$==$**%$$$$$=====$$=$$%$%$=%=%*=*= o%$===$%==$$=%$=%=****=%$$%%$========***$%%%%*ooo$%o=;-#.=%%$$%=%$",
"*==%$=$====$$==$$$%=XX$$=*$$***==%%$$%======$=*=%%$%===*****= o$=%=======$$$$%===**=$%%$%$===%=%*====$$%%%$ooo%$%oo;-@@$=$%$=$%%",
"*==%===$=$%%$$$=$==$  %$==$=%=====%$%%===*=$%=$==$==**=$==*$% X===$=*=$=$$$$$****=*$%$$====*$$*=*$=*=$=*$%=o*$$$%$$:@OO$$$=%$$%$",
"===$=*=$$%%$$$=*==$=XX$%$=$=$%%$%%%$%$=$=$=$$=$$=%%$*==$%*=== X$==*==$$%$$$=$$==*=$%$$%=*=$$%%$$$=*=$%%%=%=%oo*=%$$o$O@$$$*=%$$=",
"$==$=$$$$$=$====*%==XX$%$$=$%$$$$=*%%$=$$$$=**=%==%%=$=%%$===XX==%**=$=%=$$$$$===%%%$$$$**%==%$$=*=%=$$%**%$%%=%$$$$;#@$%=$==%$=",
"===$$$$$$$$$=*==*=$=XX%%$$%%==%$$=*$%$$%$$$$===%$=$$%$%%%$%$$ .$=%===$$=*===$==$==$$$$%%$%=$%$%$==*=====**=$%%$%$$$$.O@$$=$==$%=",
"===$$$$%%$%%==**==$$X %$$$$$$$=$$*==$$$==$%$$**$=$=$=$%%%$%$$  $$=*==$$==**==**===%$$$$%$$$%$$$$=%=$%====*==%%=%$$%;.O.$$$%$==%$",
"$==%$%%%%$%%%==**=$$oo=*%===%$$$==*=%$==*==$$$==*%%*=====$$==O %%===$$%%$=%%**=*==$=$$=$$$$=%=$$$==$$$$$====$%%$$=$;$.X===*=%===",
"$$$$$%%$=*=%%%$%%=%%oX$=*=======%=%%$=$%======$==$==$$===$%*=XX$$=*==%=$$=%%****==*$$=$==%*%=*==*=$$%%==%$$$%%%%$=o$oO.$$%%$%=$$",
"%=$==$$$$===$$%$$%$$  $*==========$$%$$===%$$=%==$$==$===$%$*X %=*=*=====$=*****=%=$%======*=======$%$=====%%$$$=$ooo@ %%===$$$$",
" XX OX.  XOXO ooo    o XXXXX o    .X  XX. X X X . X..X   X  OOOXXO.      XXXXOXXXX X. XX OXXXoooX.X o  X..o X  XX  OOOo ..XXO   ",
".XXXXXXOOXOXOXo;oo  .o   . o  o   ooooXXXXXX  o X.X XXXX XX XXOXXXX.X  OXX OXXX.X  XXX . X   oo..X. Xoo  OOX XXX..XXX@o o XO X X",
"$$$$=*=********%$=%=%$===%%=$%%%%%&%$==%=**=%%$o %==*%==$=$%==**%=*%$$$=%%$$$=*$%%$$%%%>%&  %%%==*==$$%%=$%%======$o$%%$$%%==$==",
"%%$==****=****=*=%%%&%$***=$==%$===$====***====oo>$$=%%=%%$$%=*==*==$%%$=====$=$%%%$$$$$%>  %%$=*=$==$%==*=$==%%==%o%*$=$$==$$==",
"$$$====*=*=*=$%$$$$%$=*=**====$$*=====%=*%*==%=..%$$%$%====%=$=======%%$%====%=%%%$$=$$=%>  %$$%$=**==*=$====$$%$$$=$$$=$%=$$$$=",
"%=====%$==%$*$=%%%%%$=$*=*=*===$===$$$====%===%.X%%%%$===%===$%===*===**=$===$=$$$$$$$%$$&X $$$$%$===**$=*$==%$$%=$%==$%$=*=$===",
"=====*%**=*==*%=%%%%%$$$%***=%=$$%%%%%$=$%$==$= o%$$$%%$$$$$====$==%=***=*===%$=====%$$$=& o$====*$$$=**=====%==$$$=*==$=$$==*==",
"*===$==%*=%==%=$%=$&%$%$====*****=$$$%$$%%=====  &=$%%%==$=%%$=%$=*$=*=**===%=%===*===$$=&. $=$=***==*=*****==$%$$*===$=$%%=====",
"======*$=$%=%=$$*=$%%%$%===*=****%&%$$$%=$$=%=%  %=$$=$==$==$$=%==*=***$==$%%****=%=$%%%$& X%==$=$=%$=**=$$$==$==%$$$$$==%===$%$",
"==%=$====$*$*=$$=$$=%%$==*===%==$$%%%==$==$$%*=Xo>$=%$$$$$=%$$====*==*======*******$$%$=*,O %$$$$====***$$$=$=$$**%$$%$$$*====$%",
"*==$$==$$$%$==*====$%$%==***======%&$$%$%$%$$=$ o%==$$=*===%===%%$$=====%=%***=******=***=O.%%=$==******$$$$=$==$$==$$$$%====$==",
"======%$$$$===$=$=*%=%===**=*=%===%%$$%=$$==$$$  %==$===$==$%*=$=$=%=**=$$*==*=********=*$ .%********$%%=$$%$==%$$=$$$$$$%%$%=$%",
"=$$%%%%%===$====$==*=*==%=%===*=$=$%%===$$=%=%$XX%%$=$=$$=$%$=$=*$$$$=**=***=%=%%$%=%*==$>  $$$===****%=$%=%***$$%%$$%$=$=$$%=$$",
"$%%%=$%$====***%%$==$=$$%=***===$%%==*=$$=$$=%%  %=$$$==$=$==$$==*=%$%=*****%=*=$%$$$$===$  $%$$$$$$$*$$$$$%$*%$=$$$==$$%$===$==",
"=%%$%%$%%====$$$=*$%*==$$===**===*=$**%=$&%=$%%oX%%%%$$%=$$$$$$$%$==*==*=**$$===%$$$$====$X.$&$%%%%$$***=$%%%%%$$$$$%%$$$$$==%$=",
"*=%&==%%%$==%==%**=======*=$%==%==*%=====$%====  %$%$$$===%===$%=%=**%===**%=%==*=%%$$%==%.X%=$$%%$$$=**=$$%%%=$$===$=$%$==$%$$$",
"X.XOOOXXX.. OOXX.XOXXXOXXOX.XOX.XOOXXOXXO X .  ooXX X..XX XOX X o   XXXXOXOXO XOXXX  XXXX oo .  .oooo o  .XXXX..X oo.XX. o . Xo ",
".XXXXXXXOXOOOOXX XX.XO OOOXX  XXX.XOXOOX.X XX .XX  oXXXX. XXX   o  XOOOOO<OO@ XOX XXX.Xo    o   XoXXooo     .X    oo.X .X  X OXo",
"==**===*=======******====%=%====*XX=$====$$$===*=$$%$$======*==$oooo@@.=..@XO$==$%%$%$$%$==$%%%=====%$$%%$=$=$==%$%%===%%%$==***",
"===*=**=**==*=$=%%$==$$===$$=%*$=XX=$$=$$$$$%$$$$=$$$$======%=$=*$;@=o.o..@OX;;$==$$$%%%$%%*%$=*====%%$%=%$=%%%%%%%%$%=%$%$=****",
"*==*=*=*=$$=====$$==**==*%==$%%$*XX=>==$=%========$$$$$$$$$=$$*=$$====$ooooX.$$$$$=$%%%%%$=$%=======*=$$$%%=$%%%%%%$%%$=$%$$***$",
"%==*$=*========$$=**========%=%$=X $%===$%*%$%==%=$$$$$$==**=$=*%$%===$=o==X.%$*%$$$$$%$===%$=%**%%$==%==%%%=$$=%%%%%$%$=%=****$",
"=$==$$%%===*=$====*$$$=$===%$*=%$  $,**%$%===%===$%$$%=========$$$===*=%%=*O.$$==%%$$=$%%$=%%%$====$%%$%%%%===$$$%&%$$$=%=*****=",
"========$====$%===$$$$$===$$$$=>$XX*,*==%=%%=$=$$$=====%***$===*===***==*==XO$$%=%=%$$$%%%%$$$$$=$$%$%$=$%%=**=$$%%$$%=%=====*=*",
"$=**=%$&%$$===$$*===*===**====%%$ .=%**==*%==*$=======%==*%==$=***=%====**$OO$$%$$%=$$$%$$$%%$$$%$$%%$$%%$=***=$&%%===$$%=%=%%$=",
"$===$%$$%===%===*==$***=**==%$$%%..%%=*==$===*==$%%=%*===*==$***===%==**=*$XOo$==%===%$%$%$=$$$$$==$%$%%====%===%%$===$%%$=*=%$$",
"%==$%%%$$%==%*=****==***==*===*$$X $%*==$==%=====**=**=*=$==**=======$***=$.Oo$====%%=$$&%%=$%%%%$==%$$%$%$&$%%===%%==%%%%===%%%",
"$%$$%$$====$$$=***==*=======$=$$=XX*%=*=**=====%=====***==%=%%=*==*====*==$OO.o=%====$$$=**=$==%$%$%$$%%%%$$=$$=%%=$=%%$$%====$$",
"$$$=%%=====%$$=**=%=$$$$%=$$%$$$%.X=%=***===%$=====*%$**=$======*===*====%o@Ooo***===%$=====$==*%$%*=%%$$$%%%=%$$=%=$$%%$$$$$%$$",
"=$=*===%%%=$%$=*****%$$$=$$$%$%%=XO*$=%=*===%**==*=*=***=$$$*=*===$$$$==%=$@.ooo.o;;;;;;o$==%=$=%$%==%$%$$$*$%%%%%=$$$%%%%==%==%",
"%$===$%*===$$=*====$=$=%$%==$%$%=XO*==**=%=*=*========**=$%====*==%****==$oXOo@@@ooo$$%$=%%==$%$=**=$%%$==$=$%%$$%=$===%$$$$$%=%",
"%========%=$$=*==%$=*=%$$=*=$%$$*OO=%$=$%,,,,%,,,%%%%%&%%%$&=$$%$$$%%%%,$oo<O##1O@Xoo.@@oooo$ooo$..$$$$$=*==%$=$$===$=$%%%==*==%",
"XOXOOOXX.XX   .X . o.   oo OXOXOOXX. XOOOOOXXXOOXOOX.X.XXXXX. XXXXOXXXXXX<OXXO<11   oX.XXX. o ooo XoX  XX OO  ..X. XXX ;;   XXXX",
"OOXXOOX.  X  XX.XX oooo    XX XXXX OXOOOOOOXOOOXOXXXXX.X..XOXXXX.XXXXX .O<O.XXXO.X oo  X..X o  oo o o  XXXXOX .XXXXXX ooo    XX ",
"=%%*==$%$$$==%$==$=%oo%%$%%$%%====$***********====%*%=**$$=*$===**=**===*o$=oo*=$%$%$=%$=%=%=$%%&%%%$$$==*=*  %=$$$%$$%$$=$%$&%=",
"=$$$$$$$$$$%***=$$$> X=>%%%%%=$%>%$$$===$$==,,$$&%&$=$$$%,,,=$&$$$==$===$%$=$&$=$$$%$%%%$%%%%%%%%%%%%%$$=%$$XX$=%%%=*$%%$$%$%%$$",
"*=$$=*=****==*====$>  $%$$===$=$$$==*******==*=====$%=$%$=**====$$*==******%==*===$=%%$=$%$$%=%%%%$$%%%$==$= .%$%%&$*=$$$$%===%$",
"==$=*=*=%=*==*=$*$$>X %>***=$%*======****=*==*=======$$$$$=*=*=$=$===**==*=%%**==%$$$=$%$%%$$==%%%%%%$=$$$$*XX&$$%&%%&$$$=$***$$",
"=$%=$====%$%===$=$%>o =%**==$====**==***======**=*===%$$$=%$*=$==$%=%====*$$===$=$=$=%=$=%%=$$%$$%$%%%$==%$*.O%=$$%*=$%$=$$=**=%",
"==%==%$%==$%*==%%$$>o =>$$=$==$$$=$=**=*====$$=%$==$$%$$$==*$$$=*=$$$%==**=*=**===$=$%$$%$$$$%$$%=$$$%%==$&*XX&*===$$$&$==*=$***",
"%===$=$%%=%==$$%$=*% o=%=%=*$%*=*==*=====$===$$$======$=$=====%=====$%$$==*=====$*$=$$=$$=$$===%===%$==$=$%=. 2=%==$$$%%**%=$$=$",
"$$$$$=%=$$=$$$$$$*=>o %>=%*=%==***=*========%$$$*===$$$$%==%=====$%%%%%$$$$**=%==**=$$$%%%%$=$=%====%%$$$=%$o &$=%=%=$%=**=**%**",
"$$%$$%%$$%=$$$%$%%%%o %%===%%=*==***$=*=$==%$$$%===$$$$=**$====$=%%******=$===%$%*==$%$%%%=$%$$=$==%$$**=%%%oo2%=$$%====**====**",
"$$%$$=*%$%$$%$$=%==$  =%%$&%%$**=$%==%====*=====$%==$%=$=*=$$$$=$=*******=$$*=%=%$*$$$$$$$=$$$$$$*=$*%=%$%%$..>$%$===$%=*=*==***",
"=%$=%%$$%%%$%%$$==$%o %>%%%%%%$$*=$==$%===**=$$$%$==$$$%==$$%%$%===**%%==%%$=%&$%$===%$%$%%%%=$=%%%%%====%==.O&$=%==%$====*===*=",
"=$%$===$%%%%$$%%$$$%oX%>%$%&%%&%%$%=$$$=====$$%%$%==*=$$%$%$$%&===$*%$$=$=$%$$$$=$=%=%%%$%%===%$$%%==%%=%$%%..%=*$*%=$**=**==*==",
"%%$$=%=%%$=$%%$$%%%$  %>$%%%%%%%%$$$$$%=%=$$$%$$=$=$===*==$$%%$===%%%$$$$$$**$$&==*o$$%%$$=%=$%%$=%=%%%$$$$*XX%==%==%==**%*====*",
"%$====%$$=$%=%$$%$%% X$%%%%%$%%%%$=$=%$$=$%%$%%$$*===%=*$$=$%%$==$$$$%%%$=$*%$$%%$oo$$o$=%=**%%$%=*%$%%=%$%%  $====%=%$=$$******",
"X XXXX...X .X oo  o .O.o;o   . ooo  ..o.X    . OX.OO.;++@O@@++@@@XX.@X.  X OX OX. XX .OO@XOOX+ ooXOOO XOOX  XX X.OOOXXOOXOOOXOOO",
".X.OXXXXOXX.XXooooo X ooooo o X oo .XXX.X X XX.X@XOO@OXX@@@@@.@@@O.OO@@XX.OO.X. ..X.X@OOOOO.O+XXXOXO  XXXX o O .XOOOOOOOOOOXXXOO",
"=$==$$%%=$$%$%%%%%%$,%>>>>&%%$$&>>>,&&%%%%$%=$**o*oo=.o;O#=@.;%%$=o==%%&&%$%%==%$%%%=**o..oo=@Oo=*=*=%%$=***$====***************",
"==*==%====$%==$%%$$=$%%&%>$%%&%%>2>&%%&$$$%==$$*==*oooooOO$.o.=.o**o==*$$$$$$o***oooo*****oo.OO==****==*=*$%===***==************",
"=%=====%=*=%=$$$%*======%$$$$$%$$$====%===%%$$=***o*$**$@@%%$$$***%o****$oo$o;;..ooo.****o***OX%=====*=$===%%$$=***=************",
"****==*=%====$$$=*=%=%=$%$$$$%%%%%$==*==%==$$$=**==*=**$  &%$$=**==*oo$oooo$oo$**o****oo****=O =$%$*=======*$%$%==$===**********",
"*=*****=$==%==$%=*$$$%%%%%%%$%%$$%===$%==$=$$%**$*$****,O ,=$$$=$$%o*o*ooo$oo$$**o**oo$o***=% X$%=$$**====*=%=$=$$$=%$===*******",
"*******========$=*=%$%$%%%$%%%%%$====$$*$%=%%%*********,XX%$=$$$=$$%$%**=$$==$=$====$=$===*=$oo%$%$$$==%$$$$$%$%%$$*$%=**====***",
"****==*==%===%$$$=%$%%$$$$%%$$$==**=$$%%$=$$$%$$$=*****,  >$=$%$$$%$$===%$$=%$$$===$$===$$$$$o $===%*=%%%$$=$==%%$$=**$$*=***=%*",
"==**=%=====$$$%$$=%$$$$$$$%%=*=**==$$$==$=%$==$$$%$$$$=% o>$==$$%$%%$=*===$$=$%*==%$$$$$%%$%$ .&$=$$$=$$=$$==$$=*===$$$$%==*=$==",
"==**=***====$$%$$$$$$==$$$%%%%$=**%$$%%==%$=$%$$$%$%%%%>X %=%%=%=$$$$$==*=$==$$$$$$$%$====%%&X.&$%$=%====%=%$$%%=====*$=$$==**==",
"*******=$%$===**%$$%$=$$$%%%$%%%%=$%==*$$$$$=%$$$=%%%&%>o %$====$$=%%%$==*=%=%$=$$$$=*=*===%>XX$$$$===%=$%%=$$%===**=**==$=*====",
"**==*==$$%$$====$%$$%$%%$%%$%%$$%%%$$==%%=====%$$%*==$$%.X%=$%%%$==$%%%%$=$====%%=$$$=$%===%%  %=$$%==%=$=$$===%***=***===%==%==",
"*======%$%$$%%$=*$%$$$%%$$%$%%%%%%%$$$%*=====%$$$%=$**=% X$=$%$$$%%%$$$$=======%%=%====$==$%%  %$$$$%====%$$=$%$==%===%=====*===",
"====$===$%$$===*===%%$=%%==*%%%%$$%$=$%==$=$==$%$%$=***$X.$=%%%%%$%=$==%$$$=$**==**$====%=$&%XX$$$$$%%%==%=$%%$%*=%=$$===$%*%%=*",
"$===%%%=$$$$$%$%$$$$$$%%$==**=%%%$$%$$$$$$%$=$$%$%==$%==X >$=%%%%$$%==*%$$=*===$$===$%$$%$$>&.X==%$$$$%%$$==$=====$$$$%======$$*",
" X   ooo oo  .       oo XOOOOO ooooo o  X .; .  XX..X.X  ooo   +X o; XoooX.XX X X. .  .. X..XXXXX .  o OXXX .X.OXXX  ..XX XXX O ",
"XXX X  oooo    XX  XX o .XOXOXX ooXooo;oXX oooo .OOXXX.o ooo  OOXoo     oo..XX XXX  . X.X.  ..X.XX  .       XXOOXXo XXXXXX33 X  ",
"*=$$=$$%%%%$%$=%%$$===$$=***=****==o@Xo=$$$$$$$$o***==$%%%%%$=$$Xo>%%$$$$$$==$=$%=%$$$**=$$%$%%==%$$%%$$=$%%==ooooOX..ooo**$*=$%",
"=$$%$=$%%$$$$$$$$==%%$%%$===%*=*==%$X@$$%%%%%==$%*$$*==$$%%%%=$$X >%%$%$$%$$$%%=$%==$=%%$$$$$==$=$$$%%$$$====$===oXOo===**=**$=%",
"=$%%==*****$%%==*%=*%%%%%$%*=*=*$=&$OXo=%$$$$==%$%$%===$$%%%==$%.o>%%$%%$$%%$%%$*%$%=%%$$%%%$%==%=====*=$$=====%$$.Xo=**=***==*%",
"$$===*=$%$*$%%======%%%%&%%%=*%=%=%,XX=$%$$$$%%$%$$=*=%%$$$$=$$&Xo>%&%%$$=$$%$%==$$$%%**$====$$%$%=$%$$=$$$===%==$XX=********%%=",
"=$=%*=$$=$==$$%$==$$%=$%%%$%**=*$=&%X.%%%$%$$%%$=====%%%***%$%$%.o2%%%$$%$%%%$%$%$$$$$==%====%*=$%$%$=$==$$%==%%=$XX*********=$$",
"======$*%%$=$$$==$%$=%$%%$%=$**=$$>,OX%=$$%$%%%$*==%$%%*=$%=%$$&oo2%%%%$=$$$$$$$=$$$%$$$===$$==*$$$======$====%=$oXO*******==$$%",
"**=*=****$=$=$$==$===$=$$=%$$%===%&&..$=$%=$$&%$=$%%%===$$%%%%%%oo4$%$==$$$$%=$$$$$%==$$$$%%=*==$%%$$===$%===%%==.XO*****=%$$$%$",
"$*****=$==$=*$$$========%$$=$$%%%%>> .$$%$$$$%%===$%%%%$%%$%%%%%o 2%%=$*=$%%%%=$%$$$$==%%=$$$=====$$%*====*=$%=**#OX*====*=%$$$$",
"$$=****======$%=%$==**====%=$%%$%%>2 o%==$%$%%%%$%*%%$$%$$%%%$%%oo>$=****$%$%%%$%$%=%%=$=%==$$=*=***$=**%$=%$=**=@XO*==%$***=%$$",
"$$%*=$%$===$$$$$$=*==%=%=$*$=$$%%%>>oo%=$%%%%%%%%$$$%%%%%$%%%%$oo &$==***%$%$$$%$$$$%%$$%==$$$%=*===%%****=%$==%*@OX*$%$==%=**%%",
"====$%%$%$%%$$%===*===%%==*==$%$%$>>oo%=$$%%%%%%$=%%%%%%%%%%%%$$ o>%=%**%%$%%%%$oo$$%%%$$$$===$=*%$$=%===*%==%*o*@OO=%%%=*===%%=",
"%=%$$=%%$$%%%$=$**======$=**===$%%%%oo%=$=%%%&%===$$$%%%%%%%%%$@  >%%$$$$$$$%===**o=$%$%$%$$$%$*==*%$$======$==o@.OO%%%$%$%=$==%",
"$%%%==%=%$$$$$=%$**=$=$$==*%%%*%%%%% o>%%%%>>>>%$&%%%$%%%%%%$%o@O >$$%$$%$%$$===o$$=%$$$==$$%%$===$==%=====%=%$o@.OX=$%$%%$%%$=$",
"%%%$%=$$$$%$%$%$====$$$=$=$=%%===%%% .%>>>>>>%%2&>>>>&>>>>>%%%$o X%$%%%$%%=*=$$%%%$$%$%===*=%%%$$%%$$%==%%$=$=****XX**=$$%$%%=$=",
" oo XXXOOXX.XXXXXX    X o X X o . oX o   XXXXX  ...XXX  oo  +o..   o      OXX. .@.@ .XXXXOX ..   X.  X.X.X    O3@@ OO..X   ooo .",
"XX ..XOOXXXXOOOOXOXOXXO o o  o oo XX   XXX.OOOXOX .  . oooooooo+.ooo   ooX X.XX@@@XOXXX   X oX XOXXXXXXXXX.X  XO.3XXXOXX o ooo  ",
"%%%%%%*==******==**=%=$  $=$$$$=%======*==$%%=====$$%%%%%%%%%$%%$$%%%%$$%$%$%o@O;;$oo=$%$====$%====%===%%=**$$=*oo*$$=*=$%$$%%$$",
"%%%$===*=*=%===*%==%=$$XX$$$$=$=%=========*$$%==*==$%%%%&%%$$%$$%$$$%$$$%$%o%oXOo;$*o=$$$=====$=======%%=****%===o*=$$=$$%$%%%$$",
"==%%%$*=*===*==%===%=$$XO====%$$=$=%==%=$$$====*=$$$%$%&%%%*=%$%%%%$%$$$===*=o@@==o$%*===$$$$%=%%$====*%%*=*$===*=*$===%$$%&%$$$",
"*$$%%$=%*=%=*====*=%%=*XO===%$$$$$$%====*%=$==%*=$$$$%%%%%$$$$$=$$%%$=%=$=%==o@@$oo=%%%%==$$%===$======*====$==*$$==%%%==$%$$%$$",
"*=$%%%$=*=$$$=$=*=%====XX=$=$=$$$%$$$======$%==%=$$=%%$%%%&%%%$$$$%%$$%===%$=$+@o=$$&$$===$$==$%=%===**=***=$$=*$$%$%$==$$$$$$$$",
"==%$%%$=$$$$$$$=**$$%%$XX***=*=$==%=%=======*$$=%=$=$%%%%$%%$$$%%$%%%=$$%=**=%@Oooo=$$$==%=$%$$$==**=****=%===***=*$%$$$%$$%*=$%",
"=$%%%%%&%&%%==$===%%%%%XX=****=%=*=%===%%=%%*$=%%$=$%%%$=%$$%=%$%$%=$%$$$==%=$.@$$o=%$==%=*%=$$$==*********==*======%=**=%$%=$=%",
"*=$%%$$%&%%$=$$==%%%$*$X $****===%=**==%**==%===%%$$%%%$%=$$$=%$%$=$%%%$$$*=*o.@$$%===$==$=*==%**===***===*==*=$*=$$***==%$$=%=*",
"=%=$%&&%$%%%$%$$$%%%$==XX%===%========**===%%%$$%$$=$%%%%$$$%$$%===$$$$$$=**==XO$$$====$%===*=$%=$=*===%===*==%%$%%=$$$%$$$=$===",
"==$%%%**====$%%%%&%%$$$XX==$$=%%===%%$=%=====%$%$=$$$$%$*$%$=%%$===$$%$$$$===%@Ooo%=%o$$=**%=$=**=====*=*===$===$=%$$$=$$$====*=",
"=%%$%%%$%%=$$$%$%&%%%=$  =$=====$=%%%==%%=*====%$%$==%$==*$%%$%%$===$$%$$$$$%$@Xo=$$ooo****o$===***====*==**$$=%$=======%$$%*=*=",
"=%%$%$=$==*%=%$=%%$$=$$ .=**%======$$$=%%$*=$$$$$$$$$$=$%=$$==%%%=$$%=$$$$$$$%.X@@o$$oooo****oo$=======****===$$$$==$$$%%%$$$&=$",
"$%%%$%=%====**=%$$**%%%o3***o=$$===%%$=%==%=%%$==$%=*=$$$=%$%%&%%$%$=%$==$$$ooX<@@o@@.=o@*oo$*$$==%===*=*==%%%%$%%%=$$%%$%%$$==%",
"$$$$$%======*==$%==$%%% O*o**ooooo$o$oo====$$$%=$=$$$$$%$$$$$%%%%%%$$=$%==$o=o+Xooooooooo$$oooooo===$=*==$$=$%==*%$=$$$%$$%%%$$=",
" o.. XXXOXOX..  oX .o;oXX<OOO3XOXX.XXXXXX     .     . X   XXX o  XXX   .XX  3X .<X.X3 XX .XXX.XOOXXXOOOXX    X.XX X .  o  ooo  X",
"o X XXXXXX.. . X@@@++++@OO@O@@OO@OO.XXXX@@XXX@.@@@@@@.@@@OXX.XX.XXXX oOOXXX  X.  33@.@3.3.33333@OXOOOXXO.  o XOXXXX    XXOX  X.O",
"$===%=====*XOo*o%%=$$$%;oo;=;=oo=o..***$ooooo$$$$$=.ooooX@oo*$ooo%====%====%$$%==$$===%=$o$o$ooo@@1Ooo====$$===*=*=%%%$$===$$$=$",
"%==*===****X.ooo%%$$=o$=;;oo;==o;$oo*oo$$$oo.oo=;;;oo$ooOO.oo$oooo%*%=$%$%$$$$$%%$====*=%$$==**oo.<<***=*=$=========%%$$$$$$==**",
"%=***==*=**XXooo$$$%$%$$$%$=%$$%$o*ooo$oooo$ooooo$$$o$$$@Oo%$o$ooo$%%%%$%$$$%$$=====$=%===$**=%o%o X$===*=%==***==$%$$$$%==%=**=",
"$=****$$===. %$==$$%%$$$=%$%%%%$==%$=%==&=$$=$%o%$$***$$@+%$$%$%o%$$%%%$==$$=$$=%=$**=$=*****==%o*O $====***=**==**=$==$=$$%$==%",
"$===*=$%=$$..%$==%$$%*===%=$=*$==$$&=*=%%%%%%%%$*$%oooo$@.%$$%%%$$%$%%%=%=$==$==$$====$**==**==$=%XO=%%$======****%===$$$%%$$$$=",
"$%%=*===%%% .%%%%$$$**%$$=$$%==%=*===%*=$$$$$=*=o$$o$$$$@@o$%$$$$$%$$%=====$===%$$%=$=====$%====$=OX$$===$%===*=====$=$$$=$$$$$$",
"$$=%=====$$.X%%%$$%%$$=$$=$%%$%%%==$=%$$$$%$$==$%$$o$oo$++%$$$$%$==$$=*=$%=**=======*====$$=%***$=X $===*====**%$%%$*=%$$%=$%=$$",
"=$==$$$===$X %%%$=%$%$$%%$%%%$%%$==%%=$%%$$$$%$%$%%o*o*oO@%o$%$$=$=$==%%=*====$===$=*$$$$=========X ===****=$$**=$%$$$%%=====$%=",
"=%=*$$=*=%$O $%$==$$%%$%$$%%$$==$$%%%$%%%$$%%$$=%$oo$ooo@O$%$%$=====$%$$$=*=====**==*====$$====%==.X====**==**=$$$$$$$$$==%%==%$",
"***=$$==***XX$$%=%$%=%$$$%%%$%=%$%%%%%%$$$%**$%%=$o*o%$$@Ooo$%$o*=====$$$$$======%$====*=*==%**===XX%===**=$**%%%==$$%$=$$==$%$$",
"$==$====***OX=%%%$%%$$$==%%$%=%$&%%%%%%%$==**$$==$$$$$$oXXo**oo$o==%$$$*===$=%%=$$==$$===$=*=$==**O $$=****==*=%%*===$$$$&==%%%$",
"%*==$=****=OX%%$%$$%$====$$$%%%%%%%$$$$$==%$%$$%%$$$=$oo@.o*o%oo$%%==$$%=====**=$$=$$$==$$=======*X $==*=*==$=%%%%$====$$$=$$%%$",
"%***==$==%=  %%$%*$===%$%%$%===$$$===*%$==$==$===%*%**ooOO*o*o=$$$$%=====$====$=$$==$$==$$====$=$=Xo$$====*====$%%$===%$==$$%$%%",
"=***==$&$==XX$%=*=$*=%*%$$$=%==$=$===$%$$$$=$%$%=====*ooXX***==$%=%==$$%%%$=***$$$==$============$Xo$%==%******=$=**===$=%$$%%%%",
"XXXOOO  X X   X. XXXOXXO.  o XX  X .. oX        o  oo.XOOXXXX     X     X.XXXXX oo    X.Xo  XXX XXXXXXXXXOOOOOXXXXXXXOOOOO  o o "
};
