/* XPM */
static char *eec9c196dce643b1824759ab1dcea79f[] = {
/* columns rows colors chars-per-pixel */
"128 128 53 1 ",
"  c #1B1B1B",
". c #231B1B",
"X c #2C2723",
"o c #27231B",
"O c #352C27",
"+ c #39302C",
"@ c #47392C",
"# c #3E3527",
"$ c #423023",
"% c #352727",
"& c #392C1B",
"* c #504230",
"= c #473E35",
"- c #594B3E",
"; c #23231B",
": c #2C2323",
"> c #2C1B1B",
", c #423030",
"< c #594B35",
"1 c #503527",
"2 c #393947",
"3 c #303039",
"4 c #4B3539",
"5 c #625035",
"6 c #675447",
"7 c #796254",
"8 c #705939",
"9 c #5E3E2C",
"0 c #505050",
"q c #795E39",
"w c #5E3E42",
"e c gray51",
"r c #704230",
"t c #6B5439",
"y c #3E3E3E",
"u c #593E42",
"i c #795942",
"p c #503539",
"a c #3E4B3E",
"s c #594B30",
"d c #2C2C2C",
"f c #4B422C",
"g c #86705E",
"h c #8B703E",
"j c #7D4B35",
"k c #947D6B",
"l c #82673E",
"z c #351B1B",
"x c #8B503E",
"c c #3E1B1B",
"v c #794B59",
"b c #674750",
"n c #8B624B",
/* pixels */
" .X.oXXXO+@@O#$#$#%%&#@*=---@**@@#+@@#$X;...:&>.>o.;+O;:o&Xo. &.    .O#O%X%O%OXOO+o::O::X%X.   .oXXOO%%O%OOOO%      ;XOX:XX  .  ",
" o,=---------***@@@##@@-*---=<-<<*****<@*<@**1+23+,4,+#O@*@$$&&XO. O+--56<<66<55656**<<==@@##=,@==@@@@@1@@@,@@@=-==6-=6*<**OO,:X",
" O=677-66666688<<<<<<<<55<5766688-55<59<555<=-566660*5q5**@1*@o :. $*--<5w67e6555<555565<<5556688<**<<<r<**4*9,-5t-=*19@@--*OXX:",
";=*-77666666685<56655r<886777777766655555<*4y44******<65911***o oO.@****u4u6665r<<<<<w66<<5--5-88**<555*****4,=<qq6*<*<91*<6@+..",
" *56-65<-*---<*<-6-<*<5-5-6i-6666--****p1@+y3=*y*-*=*6*<<q-91*. OXo@<<@@,*-=-***1**p***<*@*=*-****=*9<5<1+OXO---666*8<*r<9551$.:",
" <65--<--*--**=**<99=<----66666-5-<*@1***,3y=66-6-----=-<86<19X.#$X9r591@**--***1*p****<**@**u***==*9<<<@4***55*--=*-55<*1r<@O.X",
"O<6---6--*--<*1**955*---656666--t--<*9<<9@=i6i--6-=u====-67585$oOO*58<*1@@*=u*<@@@@@1*@***@**u@@*<<*5554,=*--*=--5ti58t<*95<*@oX",
"@586665u-----<195t8t-66<6-666--------<5<**--66--a--y=<==-568tr$o.O*98r$$1*=@@@<111**@**=****1***<-**865p**-<<<*<5t8t*****9<*1@X;",
"O876665*=--6-9199t86--<***5<60-<<6<--*<<=--6---yy-==-=<--6-<tq1& o$$*9199*******9999*<**-<<-@1**<--*<----y*==*5**<5=*-<@+=**=*XX",
"O5q-65-u**<--<999*55<<****9<t5t555-**<99==-=y==yy-=*==---<-=s81@ X$X@995-***<***9*99<<*<<59u1@*--6-=*-<<=a*---<<*<**-tt-==*6==OO",
"O8q<-5--*=--*99<**<*9<<91@*<t55=----*999@=====yyy-==y-=-<<<=<89@ +@=6<99*<-<9*1*999<9919995<*@*-------*<*----=*<**<-<<t---6*==Xd",
"O58-<56---*-9****<-995-<9996<ti<---**991yy3y===y---,d,=<5<6=*t*: #@*6<199<<*<91*<<<*@9*1**t54-------=--6<==y=*<=*-*-<**<--66====",
"O66*5-5--6<<<=@*<---<--65555*t7666=@*99@=y-===y-6t-===*<5<i=*t=. O#=y*$19991*99@**<9955*<=99@=**=--=y=--5*-----=<-*<-**---55--OO",
"O66*5<<<<t---=p*****--<-6i8t5tit76-*<99*=--8-=--666*,@==<55<*9@. %O6-*=@**1111*@@@*95tt56**@=+*-**-==---66---5--==--*=<----*==OO",
"+86-655**9p*<*=--***---5-8iitii576u@***<<7-7---=---<@+=@==*1191 .OO*6-=**@111@@11@@99r595<-*===**==,=--=---=*<---***<**<--8*Of#O",
",67--5***=@*--*--****--<55iiti7t6-*99*<-<i=--*6-9<**=@==,==11r1. OO*6=*@+@111**@@*@=@999<*-==--***========--**<t<*=**<1=<<55#*OO",
"@77-*<<5**<<<<**<-<**-<<<5t55i7i-**@*-5<---i-*=11*<=*--*,=*9959  X@56--*<,91*5-,=-=y=*955*======*-=====--===**5t<-=*=@@@#*5<**O+",
"+675<<55--<--<-**---<<<-<9r9**gg5*@,1999*y8h7-=11*<*-=*-=*<*j51 .o<66-=*8,@19<-*--==*99<<-======-===y==<--=@=*55<****@@@@@55**+#",
"+55<*9<*<-<--<-<**<<<<<**11@15k69*@@,111*y--*<199<<t-*==@9**991 oo@5*4@=*=1<*-55--5t911*<---======*=,=-*-*,+@<t<**@@***@@@<<*<=@",
"@6r<<999**<<<<<**=1@*<*91@$@*t75*@@@*9119*i-=99rrr5t--**11@9r91o.X*8511<-=-u4*9999*5t55----6----4,,###,@@##$155**1@@@=,#@@<5<<@@",
"#7q<-<551*<<<<**@***1*9911@,*6i<@,*4*1195<8-=$19991995-@1$19911>O#565<**==**=@9911$O-6-------*-**@1*#@@@##$$+#@@11*@@##@@@<-*@O@",
"@7l85-<9119<<@1$#@@19*9***p=1t8-,@<-11$1991**1119@**<9199999r11OO@@*<**@==@@@=*91@++@<---6-@***-=,**$@**##@,+O$,991*@@@**@*<$OX&",
"@ll8<**119<<1$$#@$@9*9<*tt6<155<$1**,11199@119111*<*@19rr999j11%oOO<-*1**=@##@9r9===@=-*-*,@99*@@#91$@91@##+$#$111$,$#11@#=<@$X#",
"#8qt<*99999911,@,19<9<9*t6699-91191$1111$$$11911$@-*9999r99rjj9& o+*<<91@,@,,@19<===*=66,O+@9*@@@@1$$@@$@@@$$#1$$11$$$$@@@<p*@#@",
"O68t5<*599991**,@*---5*9<55911199r91111@@$1*991119*9*99rr119jrr&.:**5***$$@@@@9*9*==**=-@,$@*@$@1991$11$191@11111$%$$&$@@*<1#@&#",
":855t5-<*11*9999<<555<*91<9911$999999599911119<99559*<<9r911jr9:.X*9r<,,+,@@**==*--=@@,=***$@@@9<*<<5895t51@*9111$$1$$$&O,--#$O#",
">8r5ttt9*191*@*5<<<-<<*,@<999$$111999t599*991995t<55t55<9999j99>O%*@<*4,,=======#@@$@@=@*<<*11*11*<*9t*9591@191*11$111$$%#=5@@OO",
"zrqt9<9<59r9*@*<<---<91$@99*11$1119r999111991@*tg665555rr599j99&OX*,****=,=-=+=*@$$11=*<<**91@@*19919**=**9*11*1$$$91$$$%%+9*@#:",
"zrr9*<5-t559995t5<*<*11$1r<u<1*11199999111@@19<6766t<95t9999xrrXO%*#@*<*-===$$@1@,1*1*-5**@*@@+*1tt99@**@*@@111*$19911111$191*+%",
"$rj9*<<5<<<<5-t5-<<*@9*1999599*1999999119*1@19t7gt5<<<<99111rr9ooO@O=<w=*=@$$$&OO,***119*#$#,=@@1tt599r<<<@1991@$$*91111@**91@%X",
"$rr9*<5<<*556t<*<<<*9*119r5<99999991*919111***tt5<t5-<9<911$r91$XO,O@**$#%%$,O##@<=$11111@@O@@@$1159*9599*19559@@$$1$@911*rr9$>X",
">9rr<<<*-<<<-<**<-**99199@***19999r9191119***@*95<5<**9r9919rj1..O==@91&%$1$O#@*--,11*@@1*@+++@1r5911@11119*99<*11$$@1*@@1<911>:",
"&rr8<@1959<<<<9*9*9**<<599***99995991119@****19i<<<9**<9199rrr9$ X,XO91$$1##OO=-4,@119*11*1$$,95t<91111$199991911$@@$11*1*91@@$+",
"&rr85*1<59**9@@*<9@=9<<*9****99119<91@***@1@*1$<111@@=*9919rrx5O .$$19$$$$&%XO,@@@19*1199111@@959991119**11111$@111@@1111*9r1@$+",
":rqr5<19<<*<9999*1**955****1*91$11*91$15<@$@**9rrr*,#,*99119rxrX :O$991&&$%:%O$$@@19999911995191111*19111111199<*1$,191$11991$O:",
"&jrr9*99<55<<55r59911*9<***19*@99111$$1<5*11@*5i8tt11**9911rqq9X $119=1$$1$&$11$$@1*99991159tt9199911@111*9*9**<@1$$%,,$$$99$$%X",
"$lrr*<<<-<59*<<5<991111*@@**<*@,119991199991@@@-5tt<599*@$#*<8<o>:@@*+111@@$11@1111@1995<9558t9999***9119*1@@$9t@11$cO%O1199$$&>",
"9ll891<55*1$1@1*$*9999**1*919**$119r99195<9111955<6<<<**@@19<r*.:.O$191$@11191$11@1@*1*5<*5tt9111******$1$$$1$**$111$$,$$,*9$$&>",
"1qjq599<<<1@*=11199919919*9991*@@199r9*11*9111199991*19*@@1rrr9 XOX&191119*19@@*1*9*@1***@@11$1$1<**1@*@*11$$$$$$$111111OOpp$$%X",
"$rrr55<9*15=@@+*<99*199951999111119rr91*@#1999999591@1#*@$9rqq9.o$:$94$11111*@#@1*9***1119@111111<<9911**9911$$$$1@$11@@@,*4,$&:",
"1j9r95599*--*5@*r919s99*9**99991*9rrr*95*1999995*1999919*19lqq5.:%$*<9111$$,,O$#@@*9*@1199*@1@111**99****1991111$1-@11@*u,*4$@::",
"$jrr95<<*=6-*-**599<99*<****<*11911*9@<t*@*9919i59119999999lq89o%X#@r9911$@1@#$@===<*@1*****1@$119@*9*<*1119991$$1911**==,++@@>o",
">9rqtt-<<<<<9999955<9<<*--**<91r91111*,#$@1199955911999r55t8qrtXo:+1rr9111@#@,O+@,,,19<**9591@***<111199@1111111$$1199*$O#4@**X:",
" <rrt5<<5<<595it9<9*9<<*-<**r91r99191<5t*#1951995rr999r55t59rjt$..@@119111@*$#$$#%$@15t<<8t911@1**@$$@911#+$$1111$$111@&#@**==O%",
".<9<***9<*991*559*99**=1****9919999995rt9@1*9111999999995599qj<o. O,*11$$***@$@1$+@<@****5t*@@1@==@%$@99*@$$1@1111$11*91$@*4=,XX",
".*r599<5559<1@1*@*<*<*1*9599119999999<<919911$11199r99119119r5*+. X#*4,+,@*11$11@@=5@<9**99@****=@@,O,$$$#$$$1999$1@1<59911,,#X:",
" 1rr95t55955s99119**5***5r5919999999<-9<*99*$1r9*9r8911119rrr<<O:X&$*9@*,@@$1@@19*9*@1@*@***-0----*,,,1@@@+$$9991$$*19<991++O##X",
"%@<r****1*9*9<99*9***@1**9<911999195<***1@111119<rr9$1991199j89oX%1$99*@@@@@@*1@95*=====**<<-------@,,@$11$$$111$$,4111555r+,=+X",
"X$<r*999995<<<9991111199@1*@$@*19195r911$@1*99995jj991991119jr9..>$$14$$1@*@1@1$$@**=u*=*1***-66----=++$19111$19911,1915*55*==O%",
"#9<<*$99<999<*991*@*11<955<*11111111111$%$19999tqtr9tr991199hr9. :1$1*1991@11==*@=*-==-@#@**99*<-----=+@@9@@111991$@,11**@57*@:X",
"O9<<@199*11*9*9***1**199t<*9*91195911$$@$11199955r5rt9911199rr1  %O%9<195911***156===*9*@$1rr995<*<-0-,$1@=<1991911*11,,==5v**OO",
"X99r91*@@**<9<**999<<9<55-<<*199565591$@1@195r59999999919999991  >&$9r91*9999959<-*=u*1@#O19*11@1*----@#$*u-11r99999<@4===-5*p+#",
"&rrrjr919<99@@@*999<5<*-<<99991-5t5911$@1@199tt9119911119$$$r1$  .$$9<99@9911999*---*9*=O$1*-91@@*<-<<p,,--*@<5r9*u5-@#@*=-b11+,",
"zr9*999999*@1@<55rr<*******1999<<59911$$@@,9*559111199*11119j9$.  %$rr9119199*91@9**@<@@$$**-*1***1@@@=,#@*<u==*9-*5-@,**,*5*@OO",
".r5<1@*999<5995855*1**9**99*9959*11911991@$$@1911191599919<5r11& .&$rr99199rtq59@*@,@#,,@***p*@@@@1*@@@11@==,,=*<p,@,$===#-5-*%:",
" 99111199999<99t<*****<<**99999999r1199911$,,11**@@$*19*19j9111: >$1r99999rjjqq9@**$@=@@@=@191@@$@@=*@191**<*@-***O,11,O$=68=@>.",
".9<9r*1999**<995r*<*--<<=@*9*19919r999911111911=<*<@@#*95jj**1$  >$9999119rjti8t11@@1@$,@#@11111111,**1@1*****<=$@=@1pp,,*-<=@%>",
":9<rr*19*9<**<<5r9@=<-9<1*<5<9*91r9999999*11991=5=t****r5r<1111o .1r5**199tjrtr9**@****@@@1119@11$$$1@**9*@@@,*#1@,,94++=y,1@#:O",
" O<<-<<--*<-**-<*=*u*499999-999119999r9r9*11911===*p65r9<**@$$$> >&9j9*1@15r99r1**1p@*91**<*$$$O$99@*@**@@@1@#@**$$,<*4+**@,$O%#",
" :-<-----***1<****-*@**1199<<9111*<511911*1111@@==@*9<9111*%O&:o .z1j51###199t5$@11@1<<@*<<1$$$O$@*111*<**<**11<9*@,*1+@==@,:>X$",
" #*--66-*<--***---*@@<*11*9999199*55$1$11**11@$$@$@1<*11999$&>o. . $9<1=<=*9rt<11@9****@*<*@$$$%$@1911*<-***1@@***11,@O+@*O$$z.X",
" .X=------<------==@5<99***19*9599<991$$$11$&$$%%%#1@@@#%&O.>oX > .> 1$<t*#9r91$=**199*@**9@$$$%111991@***<5<1@#*1*91@1@@$O$XXXO",
" ..O===@=+O+O:O+OOOO*@O#OOO$@#$$$$$z$$&$&$$$1@$&$%O@@9<$X.%  zo ..    :O=,X;>X:&O%O#@@@O#$1$$$@$191r9*@@**-<**OOXO%O$##%%%:   ::",
" o  O++,@Oo:...:ooo%OO:X.  :>X:X$%$z..>:>>>X&&>&%>.>z%XO&>>    ..$o >..OO++# >XOXOO%XXO%&$$z$&%$O$@$$$1$$O:OOXO+:o.:XOO.>:$..X:%",
"   :O@@111$@XXX=,@+O OO$$$1$1&&z. .>&>:.X$@#$#$#$O%$&$z>>z:+X>&z . .OOXOO+XO$#$+@++O+@*1@+O@#+@@*@1$zo%O&:>>>z&$O&o::>:O&>X  o:o",
"o&$9*#*tr9rr*<<66---=#999191111$>>z&$O:&$*@#@***1@$,@@$&11O$%>.o..o#@#==*=@=*1**-=*9*<<5*<--**9<<rr99111@,1919rr9199955911$$#Oo%",
" #:$*<rjjjjr<866q86775jrrrrrr9r999999**95765558qrr5<p99$$@,Oz$&$ >&**@u-<**<99rt5<<r<<<<<6665r<<5jj8885r<<rrrrr91955rr5999@$1> %",
"  O*8r5rjjr<<q8887776qr99rrrrqr9999+11*<<685-55888r9w9++1%$O&1&1 O@<<r*u<<<rrrrj85<<58r<<5665r9r588ii8559<9r955556qq5999999@*$.X",
"o#<*r81111**<55t<-y=5rr999991991111$$$19*<--**5<*5*14++@4%O$$$&1 @*****<99999999<<**9<*,@*<<-<9<<9*99***1@@11*99<<6<<rrrr5<*91$ ",
":#999999*<9***<<<*49r99rrr999199199111****5**@@@=**1$%+1,9911&>$.1r5<@@1*9911111*1@@@1$$1955<<5<*<**9111111*99**@@1@*9919999119.",
" X*<<959*-*19*11111199rr8rrr11999rt919***<*19*@==*1$$$$$19pr5$$@o#5r<$@111$91111111$1*1*995**<t5t****$111$5t*@11@$@@199119r91$1.",
".$<5r5t5<65rj91*1991919rjrrr9919rq89199<*999*1@**1@@-$$$$99rr1$@.$r911@@19$999*11991*1999999<-*-6<**11@1$*<***9*@+111111*6r1*11X",
"#5iq5-<-<<5t89*9191191rrrrr9919199r1111*y=*1$1@<*@@9=$$$$1*491$$o1rr111$11199*91199*<<599999<-*--<-*111@1****@56-@111199@*<9111.",
"O*in8---**98qq99111119r99r991559$111$11@O+=@$11*1*151$$$$91191:&X1rr9911$1999911@1**<<999rr95--66--*1*1@9*==*@@*@*11$$*9*<99**1 ",
"o@8qq----*95q8<911191r9rjt9198tl9r9,199@*==y,1111@17*&$$199*1$:z&1rr9911$1999999*@19*1119r91**-5--****<<<9**1*@@@@*11$11*=*<*@$ ",
" O5r<---<*99*<91@,1$$11999t9rt9t991$91@@=#@#,@99111-1$$$$*999O>z$1rj5911$1999919999<9119*9911*9*-<<-*@*5999rt<@**9**99<9<-6<**1.",
" %19*=-<***9**<<@$$$$1119rrrrr99rr99r1111@@@,@91119r9111$9994:>:&19r91119199*99<****9199*999911@***@@@@@$1*<<@******---<<-65-55:",
" O9<**-**@1*-@=*-@1$1111$19rr1119999r9911##$@*9111*89@191999+zO#X$99119191199999<<<99119t9$99991*-**@1@@1@@$#$**1**<---<<*<5=s1:",
" &98j--9*191@*===111$11$$$9rr1111991rrr9@$%$*<99*1*5*,919u99+>%@o$rr999111919911**9<9@@9991@1*9-55**999*59@1*1*11**<--***@p-**=+",
".1995t9999911@$1191,$1$1$&$9r9111*59rtr99111*599*1**@$111up=1>:=X$rr999<599999*11**11191@19*<1@u<9*4*=*55<1**9*999s5<<<<<@pp=**#",
" 195r59**91$$@$1@@,@@@$111$199999<11*99999**1*191@@*111111<<9:>OO#rj99<9<9999919*1@19999999569**@**,*@1=@119<<99<<<<*<--**5<@<@>",
" O999*999@,+@191$+,,@,,@11991111111$$1119r*9*@1$@$$@$$$@1,=p*.XO##5r99<<9r911$$99*@1995rr9r9<99*@,==91@@@*<9555<<<*****-**55**+.",
" &9*<*99r9@@p111$+=4$1@11991111@1p@&$@$$@<*$@11$#O##@#,,,*-p1.+$O$rr9559*9999$$9*9199*911$9<-<55@,==@@*@1<-9199<**<9******55=@:.",
".@55t<99rj91$$1$,@==,,@988r11111$$$11%%O$9@*@@OO#1*@1@,,,*p<+o+$.9<r95911119911199**9111$11*<=*@=@=,**@@991*111***<99**<-<5-@@#:",
".&@9r999rr111$$$$@*=@@$9ttt91111$1111$++%11*@#+$$*=**=,+@up41>>%.99999@19999111159@@******11s*<4=@@@1951$@@@99@@****@$@<--<5@*O:",
":O@5r99991@11$$11,,=**1199591$$@$999%XOO$19111,,@*===,,@4*-<@OO> 19r1111999911111$1*9**<9119<-@=p*<**65@@*@1@*@9**1111*1*-68<*Xo",
"&@@5<tr911111#$1191p1*@@@*11$$$$$11$&&%&$191$14@@@=y==@,@*94O#+o $9r*91199999911*@*99*9***19<--<s1*<t<1**@@@@**99*@1$991*=*56*&o",
"%$155r5s11991+$1991@*@@@@@p@$1$$$@1111&&$19111,=@$====,,@4=+OO;..@<9*11199r9r91**95t<s*959@=*-5i99<<<999*@@1*<<99*191111**<56*&&",
":$19955**911$OO1191,@@*@*#,O$@1%>>1191$$&$$1$1$*@=---=,$$4<OX  O.$<999199999999@995t9**5<9*9<*9t9*<91911*@111*9999199111*@*551$$",
"&198r<95991@$1$$1@,*1@@*@$@1@@,&111111$$OOO#$1@*@@=u=@1$11p+:  %>$1*@@@1999991119@*591999<*@*<*@@#@*111*9*1199*99999r9rr1<<r51%O",
"o9*q5599*9@11$$114@*99*=@@*1$1@$111$$$$O+#OO&1*OO$,==O$919=+z&z@>$*<11999rr991***9**99591<<**5<1*=@$$11***9919959*999995119r91%O",
" $98q<919<*1111191@,=5t<*@1$$119*11$$$$OO+%&$1*@=,#O,O,,O$=9$1$&&$*<**5ttrr5999*<9**rrr9*<9<*****=@=*9111*$19**999911999119jr1&X",
" 19nq*1@96-111999**==5<*=*1$$@199*11$$$%:%&$1$,=,==OOOO%$$99$$$&&$9911958t559*9**99*9955-*9*-<59*u--*5919@$9*999*9r91199999991@X",
" &9qr9*11*6<$99r91@@+,=@@*@1$#@99@+1@1$#&X$#@@=@@+,%O+$$$$9r1$o.$$9519195r999111*99919<<5<9*<5595u-<*5999@***9*99rr9*19rrrr9<*@O",
".&1rr9*1$$=@O11911**@=,==<*111$19@&$1$=,$&%$,#,@@$+=#+,191991$..&1rr91111911991*9**999tt5<5<*95*59*<<99991**<*911111*11999rr**#X",
" $9rr*p1$%%%$&$$1999******<11@$$&%&$1@5#1$&$$#$@@@@,,1@11@*1$1.o&1rj99*<51199*@199919rt5<**5<*59999**1@1*1***991*@#,@$$19999<1O.",
".&9r5*991&$@@$11*9*p@1991**91$$&$$$$$@==1@$$$O$,====*11@,@<9$1>:1rjrr<*--9*111@119919tt5-*9t51*9999911*p**@*@1@1@,$$$$19959991%.",
".%158999999***@*9999*9591***1*1$19@$1@@@$11*@OOO+==y#@@$=*-<$1&&$rrr99*5<9199@1@1<@@@rt5<**9*<195599911@@@p******111@@*9s99rr1%.",
" X$8r***9999*@*=***<**<9**<9911$@@$@@@$$$*,1$1@+=-==@@11*4p@$1%:>9rr11@11195891@*9*@99<55****<1199591191,@,=*--<**99<@*995rrr9@X",
" $18q--9*19*9*@@@,1<9**<<*11911$$,###@$$$@$$$1*=*=<**,1$***+O,  >1r9***@1999tt91<**@9*99*<<<**91959*11**@@#=9==<**9**@*9*5<rr9@o",
".$9rr<5r*@9*9**@111@9<<<*9*1$1@,1@OO$@,@OO$11@*==*-*=**1@@++$#.:.+5r*@9**999r591**@11*5919<9*599r591@#=*1**+@=***19@*@**@568r9@O",
" $5lq<99@@,1**599@919*1*@@@$%%#,$$$O$#+$,#$$11$@=*@@==<@O:++#@:&:+rr99**199r9*11*****5<995<<1911rr9*,,4@1*4@**@@@@***@#$9<<8591#",
" 1978<9*11119199**1199**f9**$%+@%OO,$O@@,$1$91$1111$#@49++*4@1O>&1r91@*<<99<<9***1@@989919t9*1@119*1@,=*<*@*<*@1$1***1119919rs11",
"o199r<*911$111@@111119***9@$,O+,O$+#$#=@&$111911$,@,@$*59w*4@1$oO1999**<5<19r99*1@$,959995t999*1111191@9<*1***=p@@1**1111199r*1$",
" $99r<$1$1$191111*911****@@$%+++$#,#&+,$$&191$11$+=-*#9<9@w<@@$&%*<9*<=*<*959*91991@@99991******991199199*@@*==@@,@**111@@<8r91$",
" @1rj9@119911199<**191$1@111$$O$$O+O$#%%O&$$1$111@=-*@199$9<@#XX&*<<w<==<*9999*19**9995991*@*9**<999999<*@9@@$$$$$$11**9@985r5@O",
" $995*19**9111****<<*1$1*9*111@@$$@@9@$$$1111$11p$,=*@1999w*$@X:&9<<<*u***595911*@995591911***1955<<9999*@*<*@@,$%&$$@*91*<5r91O",
":$19r<9r99@199@@***99*$1*9111@@11$1@11,111@@1$1=@#,,@19119r91*$ %**<<@***@@**9111@$*5t**1999*19<9**<****9@*<*<1+$@$$$$19@@*<s9@O",
":,95jr99599591$11*,1@$1111@*@@@*<**11%$111$$$1$@@*@@1*1*19j5**Oo&9*******=@@@*1@9911s9111*9999*91@**19*@1119<1@,@11111191*<991$%",
"@@9rr<1999**91$$$$$+@@*191$@@=@@@91**@+@1#$911$#@115<**r9<86<*#O.<@***@=-=@#@1$19*9*911991**@*<t9***@*9*$91*9$@@<**@*1$1$$*9991O",
"@@9999911$1@1@$11111@@*91999**@@#@@*1@#@@#$11$$,11*5***99r<***,# @4-<*@-6u@$111*<551*11r899911**<<*@**<r91111O$@**@*@1$@*199151$",
"O$19991111$$$$$119<<999r91@*****@@=*@@,+$$1191$*9<******<65*=*++.,*56=--=**@1111*999919r599911**s*@@@@9r**9911*<**@1#$11119r911@",
" &199r99911*119999*9<9*9999<***@@@@@@@,+$111,@1@1**<<**5<86u*=OO O,6**-*<**11111119i991999999991@1191$$@111199*@1@1111@119551111",
" &1rrrr9991*9*991191*9@@@@9**<<*@,#@@@@$11$$O$919****<***66-<+OO @<qr*****@1111$$199$$1999999*@1$$111*@@11$111*9*111@@***95911$$",
" $19r91999@*1*991@11******999--*1===@@@$$*@$$1111*1@**@*-66-*O#+.@*889**<**11@$%$$$%$11*1199**1*11@$$9<1959911991$1$@$@@@1599*$O",
" 5199919911@@1*991**<***<*9<<*@*<==@@1@@$@@,$@1$$$@@**99*6qr=OO@o**5<1*11*@@191$1$$$$@1111911$19119$$<5**9*19999t9111$@*=*<<1@O:",
".**rr91r91*1$@119111******<99<@=**1*@==@$$@@#@11$1<1@199*<5u@@:@o@*<99*99@119t9191$@@119111111#1@@91@<-*111<91***-*1***=**99@#oX",
" @$rj99j911111$19@1*1*<<<**99*@@191*====@@@*$#111*9r*199115-=+&#O@*9*199*1*9991$1$1$$111111*111$O$$1@*<9<1@<*,@$@*-*955<*9rr@#.%",
".@$991991111111$1@191119@@@11*$,119@@@==@#$@@@,1@=***<59j5<--=O+oOr5<1911*@5<111$$$$111@@11191**91@$@1*9*<@1*@***@*511@@11<91O o",
" @$99*1@$1@1111111@1$@*1@**1@$@#1,1@@*=@$$O#=41*<@*****<88*<6w+,>%rrr1991*@1$1@9991$119111$191*<<9*@@@**<<****<***<*@11$@1<9$$>:",
" X%19*1@$1@@11$111$$11@$#*<*9@@@##19***@1*@@@19<-*@=****<***w*O+>&*r19r99991$11999911@911@1$111****1**9<*@@*@*--*<t911$$,1*111:&",
" .o19p@=*==y,#$,1*@9r91$@*=@@@@#O@1********@1199<*@,=*<56*-**@XX %<r91999tt<9991911$1$111**$$$11#$@@@9<*91O$+=<*-<*9*11119*119>$",
" $*@@u-*-==yy@#@@@=1111@@*@,,,,$@@1**<-@@#@*1**<<=+,@,<5<*=*#+X+.X1r91119*-<9t9951*1$111@*919911@$@@*<**9*$@@=***-<1111999r<$1z$",
".:@*@*----,==,,+@@@,@@@1@**$%O#@@11****@@@**9<<-*=y=*5*<**=+OO ; X*+9*@1**<*1*111*5999111119rr99@@@155*<511**@@*<-<51<<111991$$$",
">%:@@**<-==--=1@#=@,,@,**1@$$$@@111****@1*<<*-<*-+=y=-=**-*OOX   %@ 999911**11999***111199999t911*1@**1<t59991*<<<5<9r9$$1$11@%$",
" :O+$**99===-**<=,+,=@O@@1*1,@=***@****@199**<*======ay@*<-Oo%   ::$:1$&&&$1*1$111$&....$&151$$$1***@9<955<11*@*$#<911$$&$@1$@: ",
" .o  ,19*@,#$@@##,O%OO:>X&&$$$#$%O:&O+O$@O,@*=@,@+=,yy++11%o :  o:.$:O:>>>&&&%>>&O$&....  .OO%::oooX$@91<5t919<1$@@$$#$&&&$$&   ",
".    .ooo>:o:ooXO+o::o. oo%&&..:...o..oO:XX.           .        ....&@$>:%.....>&O@$$$@@#%%$%>.o:oO:o:&$$$*$>&@$#@#$$$#$:>&X&oo "
};
