/* XPM */
static char *_408399fdd96449ea839f81c91aa08eb[] = {
/* columns rows colors chars-per-pixel */
"128 128 72 1 ",
"  c #504230",
". c #352C27",
"X c #47392C",
"o c #594B35",
"O c #473E35",
"+ c #3E3527",
"@ c #39302C",
"# c #27231B",
"$ c #393950",
"% c #424262",
"& c #505062",
"* c #393947",
"= c #474754",
"- c #30303E",
"; c #423023",
": c #27272C",
"> c #303039",
", c #2C2C2C",
"< c #232723",
"1 c #6B5439",
"2 c #86705E",
"3 c #675447",
"4 c #986B54",
"5 c #82673E",
"6 c #796254",
"7 c #8B624B",
"8 c #795942",
"9 c #8B703E",
"0 c #594B3E",
"q c #705059",
"w c #62627D",
"e c #74749D",
"r c #595970",
"t c #4B4B74",
"y c #505086",
"u c #625035",
"i c #705939",
"p c #5E3E42",
"a c #503527",
"s c #B49886",
"d c #4B3539",
"f c #503539",
"g c #593E42",
"h c #795E39",
"j c #505050",
"k c #626262",
"l c #947D6B",
"z c #423030",
"x c #5E3E2C",
"c c #4B422C",
"v c #7D5967",
"b c #A68B79",
"n c #6B6B8F",
"m c #AB7962",
"M c gray51",
"N c #3E4B3E",
"B c #352727",
"V c #2C2723",
"C c #94793E",
"Z c #1B1B1B",
"A c #674750",
"S c gray44",
"D c #3E3E3E",
"F c #D3B4A6",
"G c #594B30",
"H c #866270",
"J c #30301B",
"K c #2C2323",
"L c #231B1B",
"P c #23231B",
"I c #8282AB",
"U c #8B8BB8",
/* pixels */
" . XXoO XXX  X X  +.XX++@..XX@#.$%&**%$$%&&=$$$$$&$%$*$$$$$$*--*XXOX.XX+@@@X  X@XXXXX@@XXX@XX++;:>:>,,:,>::>,----:<>>-,-->-:->*$",
"Xo123456766683964983830oq03133++>%%$wertt%&&ytrr&ryr&&rrrr$&&%*-X  X063u3303865833iu3088u80 303X>%$$-$$&*%%&&$$$&&$$&*%$%$$>>-$*",
"X0313ooOu1u000o663246863331836o+*%$$$%r%%%&&$-$$%%t%&%$&rt&r&t$= o  o  oo00uoo 030o3u uoopaOo00.*%&r*->-$$$*>**&-$*$$$-*---*->*>",
"X uu603oo0000o61i622s6o X003663d*%%&*$%%$&%=%%%%%t%%t$=w$&%=rrr>+f333 X 3 ou38 gOXouoX u8p o363X>%%&%%$*>*->>*=-$--*%%=*$$>::---",
" u3188033033330i8h633u0 XX  u3o %%%t$%r%%%%%wr&w$%&wtrj%$$%&trr- puuuo oo q0ououoou u3ouo33u088X-$$%&%rw&r%r*-k$-=*&$-*-:*>::>><",
"Xo03iuu3uo00o0qoiou03oO X.XX 16a*%$%%&&%t%%%%$t%rrw&w=&tr%%%&=&>+ou3 ou3u o033o5h922203uu0qiu65+-*%r%$&&%%%%=***>*$-$**-:$$&=&>-",
"Xo3o ou33i31812iooiu  3Oo@0q 3oX*%%%%=rr%%%t%%%ryt%r%&$=%%t=&r%:Xouoguo  gpp oo620  0iu0q0uuu86 -=%=&$$%w&%$*$$&$---%$&=*-%%&%&$",
" 3uuoo33q0k6u o3u36hoo0 3 33o30@%%wwr%=r%%r=w%t%%rr%$%**%%%%&=t-+ouu333 gggoo0o00 ooo1u3o o 885X-$&=$%$$&$*&*,-$%$=$%t$-%&>&*t*-",
"ul0q5831u680 o uo0626033oo3o 66O*$w%rw$$%t&%&w%t$w%%%==$r%%w&wy-X 3oouo3u3u30330q000z6u 0o3uu19 -$***%&%$*$&%&*=%*&r-$%*$*$$%*&$",
"u2718532o88  oi18q666uogoooXg36 *%wtr%$%%$=&%&tr%%%%%%%=$r==$ry-X033oo O3 3  o0u030 xouo08ouo68X*=$*$$%=$--$%$$$$*$&%r%$%*%**%r*",
" 82ou16u    o58uuooouuu0608o0863$t%%t%$%$%%%&r%%%%$&%t%$&=$$-$r-. o30 3  303o  33oo uo3u3uoiu83c-$*=$%%&--*$*$%%$%%&%$$%&$**-$&>",
"X o3i1i7628 u20io03oouhll65202lg%$t$rytt&%%&%&er%%%=$%w*%%&%%rw>@  +3 o3000300o uo2o88uu03uouv3X-$*$%%%$%$*$%$&%**$%r$%=%$%->r$*",
"X i262u8 0o o0qu00X3uhibl60uu66O-$rr&&&%wew$%&rrw&%r$%=&&&t$%tr-+ O+X0qo30 3uu0O30iouuuu3upgu33X>%==%%%%%$$$$%$$$%$%%%r%%$$%*r$*",
"+u83o181o ooo00u31611750XO60i30X%%=r%=r%w%%$r%&%r%t%%=w*nt%%$nn*X+O X0o3 380uh66i1603uuu00gpoo2X-$$%r&&*$%=%$t&%%%$t%%r&$%$k%r%*",
"X608huou3u0080ouuu1353ou8u03333+$r%w%&t%t$$%w%&%w%%$-%$%%%wr&wt$ O  oo 133060657i2 quu8uo3   37 *%r%=$$=-%%%%&=%%$%=w%%*%$$%=r%$",
"o81i27ioi16336u3030q368 u33oO63+$w$%%%%%=%%t%$r%%%$%=%$%%%$%t%&& 0u6ou5276u3065561ouo30uo o3336 -&%%&&%&*$$%$=&&$%%%%%r&$%w=j%r$",
"6l5llss2l28063ou308ii116o  oo63X-$%%%t$$&%%%&$%&$%&$r$$%r%rwtw%$+o 0ou841hu68iq21uou   38oo u36g>&r%$&%%**$%%r%%&%&rtww%%%%%%&=&",
"lm6030263qo 033 o3uu03000o 3u8oX-%%r%%%%%%%%%%$%$%%%%$-%$=%%&tt-;3o83hh6l6ohuh10 oq3u3 ouo33136O-%%$=$**$&%$&=%$$%$=w=ttt*&r$ww$",
"+u0o 3u 0o 03 3X3ouo0 ouuo o o3X$%%=%*$t%%%tt%w%t%$$%%$*=&=%$%=*X oui6o660ll308000 0uuo3ooq1io3@*==%%*%**$=%%&%%$%&$&%w%%%%=&tt$",
"X03o3o30XX ouo 0 3303 033  3o36X*t%%$r&ttrwk*tt%$%%&%&&%=$%%%&j*Xoui2l0i3322326u300o3uXuooiuuu3+>%*%=$%r-==$&%%*%%$$%%%%$$&&=w&%",
"Xo3oo  o03uo03o300Oo30ouuouq366X%$$t$%%ty%%t$%r%$&$%%$%$&%r*t%r* o87526603ii261oO 30O6o3 30 ou3X-$:*=r*$$%%%$%&$%%%%$%rr=%$$rrr%",
"+o   0o333uo3o3  oO X  ouuu0336 $w%$%%%%r$%%$&Mw$$$**$$%%%-%%%%Nz3o16ui24q663qoo3uo00j030o303 oX>$$%==%:$=&%=$&%tr=%$$%=n%%%$r%%",
"Xooo3o3o0o03oo  0o003i08uuu80o3 %%w$rwrr%%%t%ttr$=$$**=&&$=&%%%* 3lh6u 80065ou0ouu3 O3u30 0000o.>-$$*&*:*$$$*-&=$&$%&%%&%%t$%&$*",
"o  o33ou3o00ooo3u56ou8l5u5iu u8 &%%%%%w%%%%=r%$%%*$=%%=%&*$w%$%-X6l66u312iq  33   3goo00q366u33+>**-***>***>&=%$$$*==-%%*$%%%%%$",
"+ o 0uo3u30 3030uu63o122l3u1 33o-%$%%%r%$wnkk$$**$%$$%%t%w$=%$$- l226ml0680ouuuo3  03z1o 662 X+B:*N-*<::>**>*$%$%$****%%%%$%%&$*",
"+30@0600oo03o0o2u862oo023u1lo83z-%tt$%%t$=kw*>**&=$&%t%%=r%$%%w*Ol2228o818326 o 0g0XOXoX z;@Xo1 -*-:>:<:--*%%&$&$=**$$%*$$%$%&%=",
"+ go0033o00j00u12uqiooi620u1uuu *%w%w&$%%%rw&--%r&$%r=&&=%=$w%$- qmbloio0 O001 o  @VV+zXXVXX.o1@:>::-,>:$$%&$%$==r$$*=$=*$$&%$%*",
"Xx 03000 a 80l2C1 ou33ou1uooi3oX$r%te&%%r=krw&%$%%%$=%$$$%$%%%$*oou1  6zV.V+.BB 0O 6636613XXX+0X>%$:>:>-*=%%$%=&%**$$$=%%%%&%%r$",
"X o303o080 722212o0u0 ou0oooo8uo-%%r%rr%wwr%=t*=$&&%r%$%%*=%%%%*X03 ;o 63@@#@#X3O.  3003630O36 B-$t:>::-*$%$$=%%r*$>=t$$r%%%$%$%",
"+3u03 3iiu36uo2h1uq6j uu6088u03o:*www%=ww%%=%&%%%%%%%wt$$$r=$$%* o +X 3o630..BV+OOoo303 3q@o03 X>%t%>:-*:-*-$%-$$-$**$$%$r%%$=%*",
"X3000giooouu8io1uop 3 3oo3o0oo0 =:&%$%w=%%$>>**%eye&$%%$r%%%-%%>X+;X@83 3zXO@BV.3 0 0q03ogV033oX-$&r**&>*-$$>->-%-%=%%%$*r%%%%$$",
"+@+@ X  gOX+@cXXXX+XX@@XX.XX+XOX**>*--*-$--,<>-*$$**---->,*---->@z@XX+@@+X  @.+V.X  OgXXX@@++O+.->*-,->*-->:>-*-*->---$*-*---***",
"Z<<:*>%$-*-----=**-:>-$**,:>,-,*XzXgXXXXX@0@ +O XXX  XX..+XXXXXO**$*>>>**$***-*>$$&%*&***-*>->>-0 XXXX + oXXXXXX+@ @..+  XV.....",
"::*-$$=w%&%&&&=%&k$->$=$*->*&%%>X30866836v327226198853683626083A*%%r=%$&%t%rr%*%w&&&=%&%=%%%rr&*X goio8o8u u8636313363858X 88 O+",
"-*&=wtw=rr&%r&%$&%*-*$*$>**$$*$-X0  ou 811oo163o3u21o3666626630X*$=$=&=%%&%rt%$*=%$$$%%%$%%$%r%>Xo8oouuuu13q u 0oX3o0  03uo83q3B",
"*%%%%%=&%&%%$%%$-*&-$$&%=$>$&**-X ou3ug3u18o3o  oo03 3618388366X-%&%=$$*%==r$*$$%%-$:%**$$$%$%n>Xoq0 ouuoiq0o3X  oXO o ou3o 06oX",
"*%%$%$%&%%&$%$%$---->%$%r$>-,*%:+o030oo oo3uiuouo88o o0u1 o0800O-%&$$%$$=&%=%$$$%$$%>$**$$*==tt>g3  3uouo 3uouoO  X0o o g03oo0oX",
"-%$%$-$***$$-$%r,**>&$%%%$>>%-*: 3o30O0o0300 o020oo338oo XX 03uO-$%$$%w=%*&&%=*$%$%%$*%%%%**%%r*+o 00u66ui1u8uo O X u6o  3uq03oX",
">$$=$%*$*$->->-r-*>$*-$*&$*$*$$>Xoo Oou3o033o60i0oo0260o g o006 *&&==%r=$$**-==r=%=%$r$-%%%$%$r-+o3o ouuo86uuo0oo00ooooo0ooq3uAo",
",>$r%r%$%$%%*-*r%-*%$*$$rr%$>>*>+ooi3oo3uq303ouuq0uou32u   u361d*%$&=%=%%=$*$=%r%%%&&$$-$%&&$$t>X1  u3 uu1iuuoo 3 O 33 o O61 36 ",
">&%%$%r%&$%=%r&r&rr&&*-$&r&&>*%$O3u16uu300u0 X852388o06oug03065 -$%w=&%&=r%--=$=&&$%%***=*-*%*r- ouu33oi 3u8   00OOa0u  331u 18 ",
"*r%%t%&*r&&&j%%t%&%&%%%$r%&%*$%*g0o3uo3oqu 3o363218u ouu8o ou38o-twrnr%%r$$%$$%%%$>-$$-%r$$>-$t-+O33o03uoo 0ou0q0 O o00308oo ouX",
"*%$%%wwr&&--=%-=t%%%$=%$%$%%%*$>X 03  33uuo3  u33 Oo00 go0AAu33 -%ww%=r$$==t=%%=*>$%&%$=$*$=%=%-X0o uq0iuoX 168ho30  03O3Oooo33 ",
"-&%$%%&%S$>**=>-**%&$&=%%*%&$r$>@ +ooo1o3o  33ou33oo30003u00 o X*==$==$&=$r$*&&%$*$-$$**$$=-*$%><Xo 33ou06089286p 3o00o03X X31u ",
"-%$%%%wrr&&>--*$-$%===r$$$=%r%r&X oo302u03u30u o00  000 o0oo X3X>%%&&=%%=%=$%%$%--%$-$&*$%$%%*r>.   30326h5515u3 g0683 0zo  u81X",
"-$%$%%%trnr%$***$$%&%t%&%$&r*%w$X3 ouuoooo3oo3uo o  u30oXg u633 *%*D&%%$*$%=r%-$>*%$*-*%-$&$-$r*X003o3X0oi3o8u u0quu0uuuou3u302X",
"-%$*$$*$t&r&w&>**%&&%%$$r*$&%%r-Xoooo3iu0uii6u oo3  3  3u3o0ou6z*$&%%%%%%r%$%%-$*=$$=%>%%$%&%*&*+3 o oo1uo+o3oo38h 3uuuo3ououou+",
"%%%$%%%%%%&r%=******$-$$&$=$$rw*X3uo60111iuu0 uooiooo0  uuu3 j8o$%%=$&&&-*$%-$$%*-=$%%r=$$*%%=r*@1u1303o3 O; oqou682 uq3ul8u3q3 ",
"*%w&r$w%tw=$%&$$-::->-*&%&=r==w$X03u1123iouu3o6o16000u33hi3ug 6 -$%=%===-=****%%*$=$-$=w$%*%$$&: l36j6ouo310iuo161h6uu326iu0 360",
"$ew%%%tt%ww%r$%%$$-*-$**>$%%%%&*@31io15houo331uo6 303uu qo  pu5g*$*$%$%$>-$$-*$-%&%&%$=$%%%&$$$-cou  3 6uiu 03 6h71hh620ou33hh20",
"wew%tt$rnr%%rt&%$$*&*%****>%%%&*Xoh2h806 2io06uo80  0030 uuo1i5X*=%***&-*$*$=&=$*$%%$$$=&%&%$%&- o3gpu30 uuu8o331lilu0q0u0oo23mq",
"%www=%*$%%*=wt*&%&&w$-**%$$$%$&%Xu20303o uiuuuo31303i33  331213 %r$$*%>*->$*$$%$-$%=r%%r%%$=%*%-Xuu3o033Ou3i313060606ouo330 0bF6",
"*n%$%=t$$$%$&*%$$t%%rwr=%&-$r%r$Xu8ou81u 02u3uou308130    00021 -%%$$$*$*$-->%$*-$*$%&&%%r$$$*t>.3008io381i106u30603uo3 ouu6o60 ",
"$=w=%$=%&&$%$$$=&rrrw%rr=r$$$$&*Xu58u086180 uq01u632oo  3uuuo13 $%=$$***$%*>-$%*-%$%$=&%$$&%r%%>+0 oouo0022262o331ioo8 Xoo0s6 oX",
",%=n$$&$$%%&%%%ye&rr&t%tewr=%%%*X1081ou823uuooo60u003uo03 G1uuo@-w=%$**$*=&=-%%**$%%*$&$*%r=r$%>Oouiuioj21630uou o0o0p0og uiu 1X",
"-r=%r%$*%%$n&%ww%r%$%=trwterr%&-Xoo08u25mhui02i o ooo0o0u  uuoo *%%%$-$$*%%=>$*--$%$%%$%&rwrt%%-@ 80q18iuil3oo 60u30q03oo3uqo33X",
",$%%&=&%$%%=r%%%&=&$$$$%%%&r=w%*Xo16oi8oi81i20o16 3 o33o3u uuuuX-*%=%%$$%=%$$$$%%%$$%=$-**=w=rw* i8ouuuo030i1u61uq0o 30oX 00 3OX",
"-%**%%&$-$%$&$%%%$$=%$*%$$$$r%r*go5uuuu3uiiuu0o60 o03uuuou03018 *$$$&r%$%**=$%&&$$%&&$$$$*--&n%$32o ii8oo 61200p0q  0o30X o 0O X",
">$**&-%%%$r&$*%$$%=r&$%%&%r$w=e%X3o26iuouuou0quuu30q1ui8uu185uuX-$=%$$$%==$%&$=&$$*%&&t%*-*>*>->X  02iuo030o0300uoXu8303  28uo1@",
",&%::>*$-$$$$*&$%=%$$%$r=wnr&w=&Xuuh8hhoihui8i1116ou3060182S27ic$$&&$%%**%%w%%r=r$*%%*%==>>*>$*>XX 60o0O03o oo 03u u o3ou871oo1 ",
"$&%&-$$*$=%&%&&$%&&$=%%*-rwww%wr uuu6hui6i 60uq33o0o1l221h8308 +-r%$%$%&%$$&tr%t%&=w%w$%$$**$$&*XX3133303  Xu8q0o603o3p00816h62.",
"*$$$r$$$$=*->$=-$%%%%%$%=$$$%%*-O6luo815386o3uo3u08ii0q0u118213+:*%*$*$r%&%wre$%%r$%$%$&%&$-%%%-+ o 0u0qoXo ou0o5H0 0 pu30o060oz",
"*%r$&**$$$***-:*-:%%$w%==%=&=*$>@Xi6o 6631uoooou1326o  6i136ioo+::$*r&=$%&%*$%%$%&$r%=$%r=&*%&%>Xo10o3o  o03  u830oOOX 3 30X03 .",
"$$**-*---->**->:-*:$-$*-:$*->$$* X 33 30qo ooo o36 o   Ouu0 g XX><>-**>-**->>-*=>***-*---=*=---&O X c X XO oXX   XXBO XX+0  XXX+",
"..+.++B@XV. ;OXzoXX  XX X  oou 1&$&=$$**=$$$*$$$=$$%$-$&%$$*$*>-XXcX0OXX3XXcXX.XX X+B++V+XXX + 3*>>>---->->:>>,>>::,*-$*>$$-**-:",
" O..VJ#VV#o cOo682668836126h2u5orwww&t%%rrwwwyr&%%rtywnwrrwrrr$$X 3  u5 3385668625u1oh 30306 06D>*%**&$&***%&$%&r&&rrw&&w%$$&%$r",
"X X.B+KLVK+Oo  X;. .X330uu023blu%wtw%$$$%=$$%$$%w%%ettt%%$r=wr$*+ o3u88511uX00u000800 33o303166 *$*$%%***>*$&=$--**%$r%r&t%%&&&$",
"X1XVXK@..B@@V@+g0oO@30 03o30142u$w%t$%=&%$*$$$%*rr%nwwt&=t&&%Sr*+o3o u151uo3iuu6033u33o  0OX33 .>**$=-%%>*$>>>%$$%r=&%$%&t$%%%w>",
"Vo0 +VVV+..@+@VV. @O0 3003316u83$%t$$%%%&&%=$$$%%*%$%wwwwt%&r%t%Xu3uoou0qi818u 00  ouuooo33 . o *%%$$*$**$rr*>--$-&$&&%&ww$$&&r*",
"@o60 +X.,OBK@XX0@O.XVo  @o 8ou9 %&tt%$**$%-%%$&&%$%%wSt%%%$%r%t-Xo u1qu00 o62 306  33u   0O..Vi+--*$>*$$>=>*>**%$*$%%$%rw%*%&$&-",
"V0o3X o@+VXXB.O   3o.XX+O 31u31o=%$%$r==-$*k%%$%%&rttrt$%$%%%=r$Xo326333uooo8 oo o o o X 3 .+Oo.>$*$-ry&***::--=-$$$%%$$&r*&=&&,",
"X03O@6uu VV+X.X Xa03.@V oo 3v3u $%%r%%&%=$%*$%&%rrwwrwtw%%$=r%r*X3008 ou   3 + Xg o3oo33u1X3.o .-$$%$r$%&&*,$*-%%$=$%ww=%%%%%wt*",
"X uoO00 1@++X X0   3810 3uq08 3o$%%we%%%&$=w%$&%ttwwrw%%%&=t$%r*X06  o1u oX0o@V+X+.00 0o0 +X  1@-%$%&&$*$&**>$**$%$%%%%$%$$$rtn$",
"Xo333+1;0@+V+OXO0@01003o Xooou8 $$%teyr$=rrwwtwnewwwt$t%&&&t%$y$X38ui081i o80X;X.d@@Xf o ;O Xa0.*%%$-%$$*-%%--::--:$%&$%$%&t%$r$",
"X3  0X+X60Xo 0 o O0 o6ooxX oo14u$rnntwy%=rt%wwwnwr%%%%%%%r%$r%r*+ooo181uuo o3o1VzX.XPVX@OOo0oo2X>%$%-*$*%&$&$$-->$%*-%%%*%$$%%&*",
"X ;OX@oo Oo XO  O 00 3o3ouugo58 $%%twnew==%rwt%%%$%%$=r%w%%$r%r$X8uoouiuioo3080XX  XV+oX 003uo6+-=&$$*****-*r=>%-%&%=&%*$%$&%rr$",
"XA+   0  X1XOX@0 ooXu6ooo8iuo33 %$wttwInr-*jt%%jr$$&&$%$$$%$%&w$X oi6uu1u8O o0u8 X XX a  o03338.*&*&%&%%-*%&&w%-**$&%=&=*$&%%%r$",
"+ oo  60AOoX@VX  ooo8u30ooi8u33 *%trtr%%$$===%-&%$*%$&&%r$%$%ny$X q321121o o1813oo8  0 0OX +o+1@-**$%$=r=%=%$&%%***%&&%%%%&$wjr*",
"X@O030Oo@X+J#X0 u8u3uu88uu0 386f$nw%t%t%%%$=$%%%&=$%$%$$%%%k&ww-X 8818i1ioo06ouuo08308 30 o+ .uV-*$%%%*=r%&$$%%&$%&=$$$$r*$%r%t$",
"+0o3o00 OXVVXX z3hou6o80iuo3O66 %&%%%%%%$%&*$$$$%*r$%&t%%%%w%&n$Xouo0vi636i3o 0q3u1663q +oO + 3.$$%&$$$&%%=%%%%$*-%%$&r&=&r$$wtw",
"+O oOo 0oXoa1Xo3 q o03i8uoo0636 $rwr$%&%$t%%--$=$%%$$&%$%%%tr%y%X0q0ouui 60o303i0 o0800o X.zBX8.%&%%%$&%%$*$r$$$w%w%%=&*%%$%%$w%",
" X   oOAOzoo   8uu0oo  ouo0 uh2 %&w%$%r*$%%%%&%%%%%t%w&&%%t%$%y$X0 oou08008ou802o uquo 0   zOo1V*%&%%t%%%%%&%wtttwt&%%$%&%%rwwUr",
"Xo3 3 O O XoX03op3306u oo06uuuh $t&%%$%ryw%%t%-%$%%&w&%&*tet%rw*Xu21i6 0003u 806ou30o036Oo@o   +$wtrw$%w%$&%%wwenn%ewr$-*&%%w%r*",
"  3  0A0600OOo  30302iu2oq035130&&r%=%%%tnwr%wr%$%rt$%=%%%&$%wr%0163i1uo33u3i 830261u6860 XXo 1 r&t&=$%t%$&%%t%rw&j&t%%$*$&wtr&-",
"+O0oXO  3@03.o XoX0u0256oo  020X$%=%$$%trt%%t%w%%$%$%%%%%%r%wtw$u330ui8o ouo63312lhui616o03q606Oreeewnewr%$%=rt$%$%$*=rSt%t&n&r-",
"Xo 3 X.OoBOX;3o xa03u6l3580ou5l -&r%%ntwt%%w%%r%$=r&te%*t%t%rwy%X1l21uuo3ou0p3ou13 o6uu3o1a 3Oug&%$&r%r$$-**$%%%$%%r$*$%%w%w%rw-",
" 60OXo @8.@;X003 x oo63251uuu333$trwettnwtrrrt%tttrw%ty&$$t%=wr=ou32h806u opoo3uuoo1u6iu330o 08X$=$=$%-*%==$$&&&$$$=w%r%%%%=w%%*",
"0lsmo1 X0. o ooodx q3025h11o0133ttwnwtewtwrt&%%t%nr%%tne%%%&rrr-X326160ouo go3puu32oi8u 168u 33X$$&&%$$%=%$%%===%%%%%$%&$%%%%rw-",
"622230o368uo0 XXOaapo82h226ui78orrynnttyyr%w%$twtnw%%&=%%&&%t%&*Xou1308ou3 08Oo681651uuo3o63ou8 *&r$$$$$$=$$**$r%$%wr%%$%%t$%=$$",
"X 00qoo003u  X.B 1oO31i16h8u221o=wtwwwytrr&=r%t=%rw%$$%%%$%tr%&% 1uuuuuui00uui561o 671iuo 81i10.-=%%%%%$$-%%=%%%%&&%%%$tr%$$%&%*",
"B+ X3o30q0oO.V@X  X0 u3u0j35 l0g$rtnwntrt%$&%r%re&%%&$t%%%%=%%t$XOo3ouuuuuooi618uo6u2ou8600122uX$r%%$%*>*$$$%%%%$&$%w%%$$%%%%%$$",
"+o3 3oo33uoO      Oou3 030q1888 $%%%ntrtr%$$$r%%r%tt$$%&%%tr&wy*X33iiuu3 3q5682lo1ooou3030366o1@$r$%&$$*>$%=%%%%%%=$%r%%%%$%%$*>",
"Xou306uoooOOOo8o0q 06ou60ouu 6o3$tr$%%$%%$&&%&&%t%&%%w%&%t%&&&w$ 21oouo0 3oo01i1oio3 oio 3068uo $%%%&$%$$-*&%$%%%t%%$%$%%$t$r%$*",
"go o318u3OV+X36hq0  066iuu 6ouuu$%%%&%t%r$%%&rr%*%%%www%%trr%%%$G81u8u300 Xo12ui66 o 3u X0310u8 %%%%$%$*%=*%%&%&$r%$%%%%%%t$$%$$",
"Ou3o3o3 X@+XOOuu6q3o  3cuu118uo **%&%$$rw$$$*$%$=$w$t%r%&t%%%$**G3633 fo    o16u3330303 3q300q X-$%%%&%=$%$*%%%%$%$%%$%*%r$%%$=-",
" 0@O6X  +X.zX@X+XXXXXXXX+XX  XXX----$%**--,***--**$%=*$&$$$&=-**+XOX XXXXO;x +@+ OXX .+XXOXOOzXX*->--$--*=*----$*--**--*$&*$>-=:",
"-*-*-***----**--$>*>-$*->>*--*>>;XzXXXXXOgz j0X 0XX     XX X+@XX-***$%=-%$%%&****$**---*-*---<>>B.+XXzXXX XXXXO  X X X+zz XX@XXV",
"-$%$$%=&r&&rj&&t&rrrrr&%&%%&rr%-X836181338u660u3uu616853uq03o06X*$=rwnewn%%$=ner%tw%rr=k%&%%=>:*@X03o 833u33H36742662633633663 X",
",%%$%&&&rtwtr&&==%w%%*%rrttw&$%*Xu0 uup3oo866u1263868316303o38 .=%w%we&wtw%&rr&%tyrrytr&&&&%&%$*XO306583686633v81h03138Oj6v3666X",
">=%*$$$%r%$%$$&%&%%$r$t$=wtr%r$-Xo  u ou3oO0oui21u1u1uuu3o00u3qO$$$%=rne%r%%$$$%=$$%r%$$$%%$&r%-+zo6uOooo3O00ou3o8uO O 33333uh7X",
"-$%-%=$%%%%%%%$%%r%$twt$r$%trw%>XX uiq6  uuoo o8806uu0ou  330u1X%&%&%%%=%$&%%$$%r%%$e=%wr%$$=S&-Xg30u  300 o60u3813800o0 061664u",
":*=*$%%$%$$$%$$%%&%=$%t%&&Itwrt-Xo 3111uo8houui6l220o 3uoouo039 $t%$%%r%%%&$&%=t%%%$tw%=r&%$*%t-X 3o3uoog uu0 q830q30 33Oq3 ou9c",
":$$$%*>**>$====$*r&$%%$%*=Srwwr$  ou286hu88 3uo33b56o03oou860o8A-%rw%=wrt%$%$%%%%%t%=%%&%*$%=%%$ooo 03o63O63oo03331u  u3ouuoo620",
":$$%$%$$-=-$=$%$*=>->*>-%&&j%tr$XouXoo68oh130862826230308uo20o8 -%*%$$%$$t%r%r%w%%%t$$t$=$=%rw&=@ oo0oOO 00333333o3iu oo ouu83l ",
"*%&$=$-$$%$$=$%$$$$**-&--$=%$%r>X3i 3315uoi16011i20362567h8iu36;>$%%&%$w%&r$%%%%%$%tr*t%&$$$=r%-Vo0o  Xo  3  00 3 uuqo36oo3u o6 ",
"$$%$$%$r&%%$&%-**=%$%&%%%%%%$tt-Xu03o031o31ui1866061625o6h8u116;-$%%%=%$&%%&wrr$%&$rrr%$&-*$rrr-+o0 u@O333 o0o0633u13 303uiou83X",
",&&%&$$$$%%%t$$*-*$$$%$%%%$%&%r>f0380o069h8iui 330ou82uhl60583l -%t%&&%%%%=w%tttt$%%%=%%=%%%%yt*Xo3o+o 3  oo3 u133o8u30o03ouu18 ",
">%%$$%=$%St*%%%%$>*-%$&%%%$%%$%-@30u08ui2311uou68iou8761i7i8636 $%%%w%%%r$tww%r%$%w=&&$&==$%%w%*++O0oo0 03o3ou8361og+O6uuuiuu13 ",
">$=%$%&&%&&%$&$$%*$=%%&%%%%$&t%>X03o02882762ui6051uo322l88O3038 *r%rwwrr%%$%t%r$%=%&%%%%r%=%%r%*  80oX0OX303uu6888o0 Ooo1lmi066 ",
",*=$$%=%&%%%%&$&%*%%%&%%&$$$%%%>. 006556380uO8o88238592huoo o8h $rw%&&r&$%%n%%%%wnr$$t%%%%=&$n$-  +O O  O oo  658u3oo@x o38u263X",
",---%$%%%$==r%%%$$$%%%$tt&%$t%%-X00oOuo021ooou3o31h27u5ouu8ui12 %tww&et%%%%%r%%tn%e%$%%&=&%%$t%-XuoO.Oo  3o33 03v060 XXo3066019X",
">$$*%&r=%&%r$$&%%$$$&$$=&$%%%rt-X0o  3uu030u1uu83i77h3ugo883115 &%nwtttt%$w%y%%%%%w&%%$%&**%%t%$ 8001@XO  3u3u338333A0Oo o661223",
"-=r$%=$%&&%%%%%r$%%=&%%%&t$%rwt* 3  oouu30u621ou3u148iuuu13i8uo %%wt%%tw%%r%&$%t&wtw&%&%%**%rw=- o00i oXOooOo6088o uu3X@ o0uo16 ",
">*%%*%$$$$r%==%$$$$=%$===%=&%%w*X81u3ouoo6u01uu81o98uuuu13ooo3u0=r%wttt$&%r%etttr%w%%%&&&&%t&It*3u2j3oo8Ooo33O3u @a3u3XX o3ui36X",
"-$$%%$&=%%%t$%->%*$$$%&t%$%%$%rD+o2 ou3ou303uo674u32u5u5151uu163*r&wnw&$$%rty%%tt$%$r&w%*&&=%tw$o65135u1  o3o+3Ooo o0u30    ou0.",
"*%$=$$r%%%%%$%%%&$$%*%%=r%%%%rw$Xo0iuuo38o3 ou681763hh752ouuuh2 &%t%w%%%%%rttttwt%%%t$==r$%%$t%*Gh75u3o6uo3o330XXXo33ouoO33 0A B",
"-$%$%%&wrr%%%r=&%r%%$$%%%$%&r%r$ u31qoou3 o o h9216871765ih6u25G$r%%r%$%r%%tywrww%%%%t$$%*==&%-$ u1h5l0 ooug03 33o3ooo3u03oo836@",
"-$=&&$&%%%%$%&r%=%$$%=&%wrwe&ne$3u uuuo00 3oo6h82i66h2m5b5u6358 t%r%%%t%rt%ytrrwwtr=t%-%t%$%%&$$ ii35oo0m253   803o3 0X603o0005X",
"-$%&%%$$*%%&&%$%r%%$$&$&wwwrw&w>+  uuu 630uoo632h7808i8125hi8uuX$%w%t%%$=&$%tyr%wwwet%%wtwrtt%%* 6o17i82b26uu o88  333o 6  0036X",
">=$%%%%$r%&%%=%%t%%t%%%t%tnrwwt*XXou63118o81u6022h5h60uuiu82033X*tw%%wt%w$=&%ttetnw%tw%%%%rr%t*-X038hu 803ou6u o60uo30o uog3o63X",
"*r$$%tr%r%%%$tr%$rwt$%$%$&r&r%%r+XXo6661i 8u02399u6u68u112532j5O$%wtwywt%$r&%rtyt%r&%%%%%%$$$$%*guu028oi0qoouu3h8o6u 0 ouuooX30X",
"*$%r$$%%%&$$%twt%ttw$rjr$w$*=wt* oXoh588u u3l3857h7h1ou8880863o *nw%wt%w&&%wr%r%&$$%t%%$$=$&&$%*X1o3  u20o3uiuo8uop oO0u u60O.0X",
"$*%%%%%t%%%%w%%r%t%%$ttr%%%$*w%-Xou671ooou1i666b23o18oo6Oz30uo3X*=%wr%te%twwww%%%%wr%%%$%nrt%%%*Xooo 3 oo0o uoo3130go3 3oi0 O00@",
"*%%twww=$rrtw=w%t%%t%=w=%$wryew&zoiiuoo3uq511ui5l2i81u30 Oo0uo +>$=ey%%%rtwwwwr%%%%%w%yr&rt%%tr$o8u3uo o063uiuu85ouuo  33u0o33 X",
"*rtrw%r%t%%wy%t&&*%$=%%%%$$$$%$>+31uo1iuou31366u951uuuu300 3  +.:-%&%%%t%nwttnwwwwrwwww%r%%%t%&*+iuu6 ou00uuo3063oo80o330u3O03 z",
"*r%r%t%r%%ww%r%%$%%=&-$$*$*%%%$-@031uou3oo06lh1645uu oo o0 i 3X.>*%&%%%%wwttr%rww%%%Mtt%%&r%=tr-36uouiuu66038 033uO3uij 03oo u3z",
"-=%=t%%&%&r%$%%$%%&*$->--*=-$*::K#++oooo. 330o 356ooX  X OO30 X@-*&=&%%wwn%$r$%%%r%r&%%$$rw&r%%=Ooo3o8ou27bsi8883633130oq03 o  X",
":-$*$******--->-->>>>>,:>>--:->:.#@.d+X.@X+X +XX  +.X .+zVV.XX@X:>***-%&r&$$->-$*$*****=-****=-* 0 oX X 3 o033232  0   3oXo O.OX"
};
