/* XPM */
static char *df20ef594405422997fdc9991ed831ef[] = {
/* columns rows colors chars-per-pixel */
"128 128 84 1 ",
"  c #2C2723",
". c #352C27",
"X c #423023",
"o c #3E3527",
"O c #423030",
"+ c #47392C",
"@ c #473E35",
"# c #352727",
"$ c #503527",
"% c #4B422C",
"& c #2C2323",
"* c #2C1B1B",
"= c #23231B",
"- c #27231B",
"; c #5E3E2C",
": c #594B35",
"> c #594B3E",
", c #704230",
"< c #504230",
"1 c #593E42",
"2 c #4B3539",
"3 c #625035",
"4 c #351B1B",
"5 c #474754",
"6 c #39302C",
"7 c #392C1B",
"8 c #795942",
"9 c #796254",
"0 c #674750",
"q c #675447",
"w c #8B624B",
"e c #3E3E3E",
"r c #86705E",
"t c #705059",
"y c #5E1B1B",
"u c #5E3E42",
"i c #6B5439",
"p c #7D4B35",
"a c #503539",
"s c #30301B",
"d c #471B1B",
"f c #594B30",
"g c #3E1B1B",
"h c #705939",
"j c #6B424B",
"k c #82673E",
"l c #5E4B1B",
"z c #4B3E1B",
"x c #39301B",
"c c #986B54",
"v c #7D5967",
"b c #70231B",
"n c #2C2C2C",
"m c #626262",
"M c #425447",
"N c #3E4B3E",
"B c #303039",
"V c #273027",
"C c #501B1B",
"Z c #866270",
"A c #795E39",
"S c #8B503E",
"D c #621B1B",
"F c #59501B",
"G c #591B1B",
"H c #947D6B",
"J c #505050",
"K c #4B1B1B",
"L c #705E23",
"P c #39391C",
"I c #AB7962",
"U c #A68B79",
"Y c #6B1B1B",
"T c gray51",
"R c #42421C",
"E c #232723",
"W c #27272C",
"Q c #94707D",
"! c #9D5942",
"~ c gray44",
"^ c #27271B",
"/ c #2C3930",
"( c #354235",
") c #231B1B",
/* pixels */
" .X .oOX.X.XX+....@XX+XXXXX.o ..# #.#.XXXX...XX+XXXXXX...o#.+$%X.............. ....&*=-**.....o.. .. o.X....X.O..o.O.Xo..XX. . #",
".o;:>>%O+X$;;;$X%,;$;;$$+O<;;,1X;21,;3,:$;$;;,<<;;%;1<+%<%O *$3%3:;;;<$%++++O$+++ &4**51OO;$2oO@<O6++;$1;+:%21X7X+2X$%X#o222#X6#",
".21189:>0qqqq8q8888www3@e@:9qq9999rrwwrwtq8888ww8808883>93>2>qqwwwwww31:>03@2:19q>1Oe>98883>00qqqqqq08>>903339q0q1qt8:>>q:38tr2o",
"o2:y;;:>;X<;$<X<;;$;,:<.# 6Ou1+<:i;$;;p8<+$$$a;aa;OX$$@+;a<2sOX;pp3;i<$+6X6.76++2X$O&X<@+<$<+a;3<,;$<<O+O+OX6$;$<$$$$1211+<:oq:o",
"O#1$$;;;$oO<<;a%;o@i;3$o>X7O#$@;::XXd;93$++X;;;;$$#6$a@;a+$+$>:$,e%:3<O@@oO$ .2#of,i;#@+O+1<>f;,;,,3:%;;++$+3O$$2$<<u$>:;a:3:8%.",
"X10$aO$;;+O<2;<$$O@<$f;;$<OX<$g;iOO+X++;$eXO$+X$+$$X+;;3<.$a<<<$,;3phf@Oo+@X7+X6#<jih1O+X<3k33p1<$$,,;3a+;$$,;<$<6oa<:;>$+>3;81.",
"+<3$aO$X$X+;a<++$O;<$2$X$$3l26z$3;+$;O@+...O$<$$;$$;u32O2<o$3i3;;,3,3O@+2oX#$2$Xl;;,,:@6oOfh3u;aa;;X;i:+$$;$$OO$a$++;:@OO.O<iw;X",
"+18$X+o+6o;:Oa;aaOo.##6X.oo>:1<pp;Ouu<+o  7+<;$;;3f;;>X%o6<<uaau;;<2++.$. sOfOO+><6f22o.66<3a;azXO$;;O2%.X$$X7xOX+2;$2O6  7@39,O",
".O>$$%X@wc$OOa<<@$$o;;;7wcX;:upp3,$aq>O6wc.o;w9w;f>;;32+wc$2a;;;;a+oO;$$wcX%Oo$fcv8O2+X.wc6O:;<j<;;::e76wcX:$<%$$;;;<$X.wc#o<q@.",
".%><2+.e>>o<2+@$$a;;;X$X>>o;:;:3:3;;;<OX>>#0ww;<;;;,q>+.>>o+>>3;;;bO62o.>>oXn$1$<$9m>26#>>Xa1M,3<>>;$X6.>>6+f<a$$;;$1a.&>>.$O>+.",
".@>2++o.  7+O$+;;$$@<$X. #+<NO<<>f;;;$O. 6di;f3;<;a$;:6&&#X:8j3;;,,;$+X. #XO$X<o+$XBl>>X..O$>;3++fuf$$.&  76<+X+<;,$;o#&&-7O+qBV",
".@93o$@6.#.+$XX;>;@+2OX.  oa+++a$>;:;2X.o+6$;,3:a>@<:3.=&#O38i,pf,,;$2%. .O6>X:aX$$Xg7<<. $<1,;$$1<:>>o & X$;+O$$a;$;$. & X++>X.",
".;>;$+o..X$2<a;;++a;$7o6  O;<23<$+;;%+X:<X$;:3;;@;ii%<X#.X;h8ii,3:;;;XXX#XX<$<>:>:f+@76<:X$>+;333X<<+6X# 6o#O$++a$$$3;X##.X%<9@.",
".28;+..o.$$12<;$,+;X$$2o..6;a+<;;+<<<XiiXO$;;>6>;a<i:+$$X$$;3<<::<XO$.O. 7o6X;f,,+%O$<$$88:;++1<2+:<2X%Ooo+<<O$1:+;<<a$$XoX++9>.",
".+8;o66O$X+XO2X;<:$$+@6<oo2;<$$X$<:f;89$2a12<1OO$;2f><XXXX$$:>@a@+$+$7&7XX%XX+:3$7++<+X,%89<<<++$;3,<++<$$;f,;;;<2;f:<$O$o%+<0;.",
"OO:;@+2,,XO+X$;3+$<;211%;@2+2<$$aO$<wr;1o%+@6X+@>u<:><.$;3;X$1;$<+<$XX+o;:i<2@;p;<7$ai;%%:9q;$+o$;;1$+XX$:;;2+;;$22;;++$%$;<;w,X",
"X;83;$$:3;$$a$f$+$;@22<<1<;+$2Od1O+qw<<<<XoO+;>3;p;<$+:3j>$C$:<$<;;;$;3;,p12$<:oiqf;6O<;$@<qv<+$;i;>1<X;O;@;$+$+<@@$+;<<<;<:3w;X",
".1q;;$<$,,$$;;,3:$$:O<>a$<+;oo#6a$v9$<<<<<$>O$$O$,;+@><uuq;$$<:;;$,;u3;<aaO+XX+;;p3O<13@++++8r<a,,:@2$aa$$$O;+<2@@o+1;a2@<f@$81.",
".O>+:,;;;:$g7,;33$X;>>2.Xa;$X3$$+itt@++3,i;8i<;ui<.<>3i<1;;;$$;;<;;,;;3ii;oX@>+o>1OX6+<X+$;$i9q$X<<;<<<;<$+7X+O$6.@O:,<o$;u;,>. ",
" 61X$;$;;,$+6.2;qii;<>a2<<$;;$$;qtq<2<$;,i>,$3:,u$$323u@<11>p;;;<<<;;$;;f:h3XOXXz6$;OO+<:>,<<Ziw;<O;<X;;;;Xo+aOX$@2$;;;;;<<a<q%O",
".29aa;;;f,;$$+;;O3;,hiq;X$+6X><<9>$<o+<;3pA,;,<a<,u,:<;2;::813,;;a;;$$;X$;;,:+++O*;<4<$+1;fj+18iX$$:XO+;+<XXX$+2+a%;;3;;;@a62q>.",
".:0O;p3a,,,u1<;;uaX>>u<++a<aO<$qrt@$X$;3iSS;$;<q@;;i;;;;,3<,,$;a:<;X$;,XXXX+.:><X&4O+++<1<+;;:D1q$<<<><$ ++$++OO2<::<;:$o@+1u32o",
".;3X+X<ooX$O$;3+2O X$2;O<$;a+;88F;;$.X$;,p;G;S,1;;3<f;,$;a<,:;;++:<<+a;$$$XX.O%zoX4soX.O$;,;;#X8qr<;<1<$<+@XXX:+a<;;a$$++.+O$>1.",
".<3a<@<6.#X+;u<<aBn#a$<;<<$@;;wrwu++<$$;;ppu>3;,;;,,;;;3u<1i;3,;pha<gf<$$X;<>@u$g*4+;;<$<f<$$;$wr8+<$X<X;,;$oX;<;11$$XX&  o;<qO.",
".%8<$g  wcO><@2aa6.+u2X;,;++<w8w;$<$;;;;;,3<2;<X$;,,:12<<:;;;;if,,+&463:;31;<@oX4*-<<:<<<>3eX,;:Hrr;7++X$$a$$$;;<;<;$;2 wcX1:8%.",
"o$qO$+.#>>.$;<O<u++6+X1;3;;O;q>i:O2<$$:Oo+,;;;$<<3;+q><>u31>a>;*$4*&*71>J<@+<o4*4-&:<:<<<OO;;<$;r9wi<<++$XX<;;;$$,,,2$6#>>#++q%X",
"X+9u1XXX##.z;;a$3;$O@a1;<;;;wtq#+OX;fa$O+O;,,:<33p<O;,::u1qt1o;4*4g O:ua#*&g#4&4<$O+<;ifX@1<;<;$<wwrih31$a;;;;:;;,,;;X..  77+>+.",
"+;9$o@%o..XXX;@++;O%@@@<;;<;9v8OO$a;$aO6#.;,;,,i;+Oau,:1<;;3O+OaOO+>;33;3f<<X66.#a%>q23744;;,3:3aw8w<::;<:;<;$>;;a$#XX. #.O$38%.",
"o:8<@o7#.6o$<$$+;<@;<oX2<+.q9wv;XO2,$$<;;$;ifap3,;6O%u221:u:<;;$<O+$d;<<2f<:::>>Xf>:::3<O2;<::>$+8wcr++<;$$+@$$+$OO++X.Xo6o2:9%.",
".;8<X7oX+o<;3$XX$$$;;O$;XoOq8w$<oO@;,,$,,;;;$;;,,;<2O,2Oau@1q;$<;XK$X$a>t;;LA,33##*<;hpApa<<<::@a:www;+$,<<;<<XOOXX$OXoXXoo<<9+ ",
".,8;;$+XO+2;$<O$X7a<;%<O;<%i9t;$o+:;;,,;,;XX$<,pi3;,,p;,;:@a<;3,,$<$12$3+;;,p33,@oP<;3,p,$<<+@<@<;rr9<;;<<<$O%$O6XXuX+oo2O+<<>6n",
".+8;;;%X@26$;;<$2266$;,;$;w9q8:<;X@O;,,;;$X67+:p;+O;<3,;,,3:a:<;$$<$;3;;;;;<i3,p33;32<<2$a<<f,,;<%8rIwa3<if;a<<f;;;OXX+.$$;<<q@ ",
".$8$<;+>J<+aX;;++$$2+;;;:$9v8q<a<O .X;;,;;$O$3,iXXX$+aa;,:+:;ua<<<,$;3:33:>@3<$,i>;:;<3<$<;$:ii<<;8qw8+$#<,;;+.@3;;<O+$X<;:@Xq+ ",
" $:<;<++1$+$6;:<:%::1;;$;;vwvtO+<O.u<+$;Xd$;$;,@;O+;$OX;iq0i3,;;13i;@+:ii3<+<@O213aq<+;X<$$u3i3<@<Zccw+$&*7:+X<+;3f1X%$$;;;<>8$n",
".$3;$;a+X;$$O;i$f;q:<;2+XwwwwqaO@O$<a$+X$X$+#$,3i:<+:$;a:333,;,:<p,$3@ei><OOX@@1a<1+>;$ahq3hh,i:1@twcrv7*4#@+;@$<a<3:$$;:;,:@:@.",
"Xo><<;a><;;>p3;+;$;;<a;<1ZZt9;:a;$:;;;+6$1;+<$aOpi$$$1;:3>:fu,fu;,,;>+;,$@O@@O+7o>;@>A$1u;1,pp333:<wcrrO*4;;:+2+++f3;+;;$;;;<1+.",
"X<qOO$>%$$$f,3@<;;f3<;<;+9q>r,;2$a<;3,++O$$O;XXX3;$<3:33<;1%<;$;:,;++O;;X2eOa;3+Xua<iiiC$;++p,ii;,;qZ8G#4#$:<>a<<;:;$+<X+$a$+12.",
".@q<1u:;33$;,L;;+<,;O$+<utt9v;;<$;;;;;;++OX@O6XO;a13h<;;,$;<:22;$,,,;<,,$1@$+<;1i:u>ih$$g;f;8pp;;;Xv8>K*4#+<;:;,<;;$$<;XO<<:1:6.",
".;3<;u;f$$$f;$+;<3@+$$<+v9t9Z@;$@$@<<O$a2<2@u<X<:;u;i3,;,i;f,2@;;;,8hha;;$$$;;,;iu<;i;X4#$;;8,;$a<a9qtiq4X &X:<3<+;,,,;6+6+:$t+.",
".$q;;;$$X.+<$+:;3,,,f:;:r99tv;<++$O+<>$6O;:;2+<<;ihi383a;;$;;++:;;;$;:$,;;;;<38i3:i3,$#44X>uA,$$$;;v98tv$;@2g<3f<;3i;;$$..$2,9X.",
".O1$;%$$wcX;;::$3i$,3,32t9898+2+$aX@+<$<a$$$@XX$;,@o+;3<$;%+%@@$<;1;,$<;;$;;O<:33ih$X$<;<+$23;X$X;;rw8qt;;;+<f$ff,;$X$X7wc=7X:$.",
" @0<XX+X>>+<;;;;$$<$;;;,9tiw9$X$O$;+;<;$:3<+o+$$+12@1XA;,,<o+@+a2;;uuu$;a$i3;@O;33i3q3q<>q$$<aaXX;<Zcqtqu,,;;>:3i,<a+X7#>>#o#>% ",
".@3$1OOX#.X<pp,p,,;;$;$;qw9w9+$$$$+::a;;+O<;$3$XO+nX.X+$O$@oOo6<;;<$XO$$X+;3u:1;,,;i,:>+:;$$a<<X,,:rvqt9<:::$;;,<@<+++.&- 6+<t> ",
".@2$;X#-  o$,3;;$+;$a$+@wvq98+@O+$6X<a;;$+$;+<;OX66O2+;X<XX+;+O+2;$++@$z+O63>aoXi,::3i,8$1;;$a$3:ppwrZrr1<;;;+$<<2<OXXo   @a10%.",
"oO8:+Oo  X$;p;$;a$$2777#tq988$<$+6OO$<@$$:<$:+1O;1oO662O++XO#X6>:;$@$$+1X;$a;2+$;;3<<$O$>,i,,<;<:hpIZq8wX+a$a:@;;<$oXX7.##.>19%.",
"+$q1><OO.+f;;$++@O+@<oO2qt911t$X$O+2+O<<3;+;a:O++XO$a#o$:a6.66O;,,;<<1$$;1;..6X$,3:<+;g$,3;;i$:$+<cwwrrra+a@;i;3<X$;+oOnXO 2<91.",
".2>Oa;$OX$%+;$O@OO+$+O66qqiqqiX++@++X2<$+<$$,oa;,;+$X6$6+Oa.X$Oq:<;$>:;;;3,,+6;:;<<OO<@<;O3:<+O:<;wIc9q>OO<<a9,;;<f;$1.X<X;+<9$.",
".1q+Oz;1;;$$2OOXoO<O$6X6qKi89iXoO++2@$<<+a;;2;$;;;1X7XXO+$+:+++3@a<O++;;;38p$$>@f$@<;eeu<1;o1>%X<;IIw8r9@X$1>>;;11;,@q21>1<X$>1X",
".2>#621<<$:;$>$2@O+$X@a@t2i8tt$2+o6oX$$+;;;,<$;;;X<$.$$<:<O<<OOq><@2a<,3::pp3A:3>;<X$O.$;$XOXO<$<iIcrwrr@@;>8:;;,;;;$@2O+2a;$91o",
".+8u;;<;;;:XX$X.<++;$<2X999vw88<++#XX+#X$$;:;;;$XO<;;,:3;2+2+@<<+>;@a<,a;ipp,h,$3:<<#@O;;$@;::;;;Ir98wqrt2+:i83,>:;;<+<O+<<X$9%O",
"#O1;;;;$<+Of<XX++aOXX$XX299tq8t2+O+1$1a<<<;;;:,,$6@3ipki:++f$>:O>q;<;p,ii,iihA3>>::<aO@<+@$,p,$O,ZHrrZZii;;ippi:>,;;:+$+a<:$<q:.",
".$8$$:$@$<a:3;;+7O.$$$$+@qt889F+<<@<<;<33;;;:;,;;aO:ihi:u,3,i:3iq;@:q3;i<1iip3<i;i>@@@+;$@3,,p$7$www9vi$$uh,,,i3<;;,j<:3;>;:,q;o",
".,9$a$$$<go;O<3;:;++$;;$Oqqv9qZv<<@<<;:33,;<u:;,:::3i:;u;1$,i3f>@<>>>i3;@@3p,,p83@:>:<O+<2>3,p8pUwHr8rYX+;;,ph,3<;;ii,3$;;:3;3;.",
"+%1&*7$;:23$;++<;<;$<+$,;w9q9r9t@<X1<>:;;,i,i>;,:u2;3,,,:3>ih::@1@1<qq<<;,f;$;,u<>@$i$#$oo+:3iX%rHr8rrw#XO8q33;+@X2;$;;+O<<;$9h.",
"o%:&&-#+$%$;;<<$;,,,;O$;;>r9r99q9o*&X>331>8;<:,,,;;Aph,III9rr999TrrZZrwwc;;+o;$;a2+2>+6$<+OX<+frrIcrrt;,+X6$:>3aeOo@<a<O%X++OqOX",
"X1>o<0XO#6f:1X<$333,;u3@a:q2R>qqmOE.>:>:aO;;,i,,fu;$;;;:pcvrviirr9rZ9wr+$$$#X+$><+>@;:@1>1+a$23cHIcqtZ<h:1>i3>i><+<qa8;2 #o@@9h+",
"O%83>XXOwc#3q$<qii3333><@<KG9rrZrZX;u:331<,,,pp$$1+<@@1;;aaw9v9rwwrHH,;<:<<X$+<333;:+>:8>O$$u+crHI8qqv$<aOO$upi3:$;+2;;$wcO$;8+X",
".13;+Xo >>+2a;p8iii:>;<O+4&>r9wZZ8<;>33i>3p:3;1:;u,uXa@aa@aHcwwwcrHcw+;;>:+$+<>>u.O@a<uhq3,<;:wwrr8q9>u:<2oO;uqqiAp,;o$X>>o6$8+.",
".+0;:+X  -X+>>8q3,p;;:<aX*XrZwr8tvw3;:3iiipiq>1>3pp,,;<2O;,irwwrrrrr:$;;>3i3o+>o<@a>8@:qq3,,;ttrHH9vcau,<+$;$O1pp8iu1X..&-WOi02.",
".+q;%ao .&.6+<+:<883uq>f4*69rrr898wr:1:ih,,u>><,ppppp+2+;ihirc89rZrr>uq22<@3>>11+<2$uX+>213:wqwwHrwrwz;i>;,;;$>8ii8>%OX.& X;3w@ ",
".%>:<+X##.of>:@@+<+<,;*44g:;IIHHrrrcp,3,,:;@2<a;3,3>,3,,ihp,cH9t9rHHj1$@@a:uqj>>u3>ui>qiuq<O9tZwHt9H1;i8u3p,,13u3:;;%<X6#.$X+9;.",
"oO92<++X.O6,,<<.$X2Oo4*a;3,ic9wHrrrwc:i:,;p;@$$;u,3<@1:,;;<3rrwrrZZr3<a<u31><AASk8,,i;@::;$iZr9QHw9vmah8pq;,,,,;><@N++$+2O+;;q%+",
".;8<1<<XoX;,3;a<:<<;&4#$X;a$X99rrrr9w83%,,,;;ao<@@;;@+;;XX;<9999r8rrq<X@qi3i<$!!Su;,,pp,,,8tqrZcIIHii;3<;::i,p;aaf>@@O6+<<+O@>>+",
" $8<>:,>%;:<:iu;33:a6%$OX<+$Xj99wwwwk9,X,+$,;@2$6O<;:,:$O+1<wvtrti99@.O<iihiO2%3i<+$+,::<cwwiqqrHrHi3>iwuq;iup,:<1>1<$%126XXeq<o",
".<3o+$;;<<1:u1@a<@>1<;$1$XX$$>98t9www~9f$3,3;++Xg+;u;$O%$<><tvtt9tt972><,3>@+X$,iX;$:3h:qrcwtttm9Z;@O:8Sp,>u<+<,;>1:>3;OO+<@@q:.",
"#;0<<+a;;@a6@;$a$$a+2++@++2<@+99qqwww988q:<++o<+<u$6d$<:$$+<r8qr9qqqo6O:++<q;$<f<<<<;;<99rZ9wtvv99<:;3;,;;;:<;a;ui2e<;1On@@$;3#&",
"X1q2a+OO+;@O6a$a<<+@2++aX+O<<+oq9qi99qiqqq++;XXO+;<O+@<;$;,3crq9mqtto@@::<3;>f;;@+;<f;wrZttt8q9tw<;;:a;;;>>+@:<2<a:@$O<$O662:8Oe",
"@292<$$;,3@@2oO<<@+#6;++XXX<+<o<vi998iqitiiq+&#+$O@++;:f<@;;rw8999qq$X1>;;,;:;<<$f;;w8vwr9qi1qww$$$<<$>;+<12:,,;$3O2<1aOX.+$$3@2",
" ;0OX,pi,3+o+2+O+X+$oO6+X4X<;$<<8w88q9tlq11qq+&#aOoOO<<::<<%tt>9rrrv<XX:a3<@q>$$;;uc8itrHr9wwrr8<$+<@XO$$<<<;ip3;+O;2+O$;$<;;q.&",
"#;32$3u;f;::<@+$aaOX++O7+o$a$+O<<99qv99tq1tttt> +2+O<<+;<<6299rwrr9togX$3@<a:;>22rwwwvw99H89rrra:$<;>OO+:<31;:3A,au<+OO$<fu;;8+.",
"+,33;3f<+$+$>;<a<++++<24+OX$<;+O+$ll8ZZvtiitttqtwf<XoX2#<2+otwwwHw88a+7$,3>o2::9qwIcwwrwvwwvrr<$1<+<<;$:O$<u<@<f+33@+.#6o.Xu;q2X",
".20;;:<+.o$;;;::2<o@O<+&#+++%$$$$+*GR98i8qi9t9qi99w$74X1O%+<9r9wZ8qw;$X$,<<6$99qqwccww9wwwZZZ:$+<;<$<+6<;;<aOO2o2<<$$X6.  o+<8:o",
" <3,;%+6wco;++;;aa.@:@<+O$XXO<#$O$**Kq9vt88>qt9qqq98ii;>aOO@rr9rc88c8;<aa<vtqwZw9rr8rw89ww9qa<$1>;$a<$$+<;;$+o#@+u<2#$O.wco%;0$.",
".;w;26. >>$+xOf$$+@$::>@e$OoOXoOX++-*t8q88wtqvttt89wrr9tqq6+999cw,89+<wwqtZq888qtq8qw99ww8v+O2@$+;<;;<$X6;;;:O+;;:BOXX@6>>+X+3$.",
".;8@$+.  .6XXO+;$@@+<<%:@Oog+X&XO@O#O79qwii89vqttt9q99t9qqt999ww8kt9qiw8998qww88qq88tv9rrZOXXXOO67<<$$#O@$;$;#;$$$O26O . .#7oq;X",
".%q;++o.   .O7X;OX+;;:a<;q$X++7X2O#.6@O889tqttqq9vtqt98qtiqZrwrkr9vti9r9wrr9rwvq9qqwqrr9tO$X.7OO.OXXO2+X<<$$7;+X$X6#@O#-   oX>;.",
" +>;;X+.#6.oO6a;@XO$;<<;u<<<$oXO+X@6+<<$@tq>Gvwr8wwww89t>t989wwwwwr999w99rrrwr9Zqq89vrr<31>XX$+O@a+++X+.+++.;;;,,+X$O<.# # ..1X.",
" #q;+X+%67$;$Xa:f<a;;u1@$+@++@2@XoO@$$$$O>v>1wq88ww9v88q1trqqq9kw89r9wvvq9qrrrr8vtitv9<>q;;&X2+:>2$O3$o$a$#6X;$33i<$<$+6o.o761O.",
".o>;;++X+f;@a:;;,,;$<Oo@;+$;2O2O<<<+OXO$+.Oovrtt9wwrw88ttqtqqv9rvZ9Zw9rvv9q99wwwZcww;$<;<<$O+<;a<2o<$+O$;$X$$%$XX<,3+@XX$oX6o:O.",
"o%q%;;o;;2++$1;;$;;:<++O+;:3:@21$@O6$X. 7+X2+6ttqr9wtiq88ttq9v9wwwww9vt9tqqqZwwwcwO$X$$a+aO$<$<>1a$O$$$$;X;a+;+;+@33o;;;$XX.6:%o",
"X%q;;<a2;+<$;++<<$$,;<+%O;a++2<+#Oa$$oO6<;aa6 .6ttrwiitt8iiqqtrrr9v9vrrvv9vq9ww8;<;;f;;+OO#O<,;$+@O+$$X;X;;X$$;f;;>3,;;;2X;$$>;X",
".%:6X+<+<<+;;:3<;$a;,;@<$@1+a+@<a1OX.XO+:<<$>o n..Otwi1it9t9q89wZ11qww89tt99r>:;<;:@3,$+XOX$;:@oOO+X$$$#X$+$$$u;;;;+X+<:1+$<$3$X",
".$>o6X+On@3t;7$:f;$u$$$;+1@;;u;;<$<XOo#7$a7Xaf<O<+@<:<c9r9H9rtiZ9vcwwZZrqt<<<e>$+;;:$<2X;+@O+O+@O@ooOO7.<+2+2X$Oa$1>O$:u@a<<+0+.",
".O0a<$$O+X<+#+$3+.4$$$@<12O;;;a<;;$+X2X#X4O+;<<o.#O<a<:<;+rHrrr99vwwrv<<1<%a+O7+$O<;$$@+<X$u;a+2+6X@66.O+Oa#O+@@e:+<uu<<<a;;$0O#",
".@9>@XO<uX#&7$,;<$$#$$<@<$;>+;+<<;%$X##oXX+;;$1+12<;;;<<2O6;rrrHvqqr$%+$::a<2<;3$$$$$<$$$2O%a$o@X.#6oW6.2aX<$+1+:1@<1u;<:+<a2q@n",
"V@t<;4XX++$ 7X;:><O@X+6o<1<OX<;++O+$X2XX+XX+$$XOO$++<@>%$@+X8w8wwi8r<XX+@6@:23$$+<<$;;$$<a12:$o##&&*^#&o<:<<@2a<O$X3q+;$n.o21q@#",
".o3;$6+XooO$<3XXO$@2@O<$X$;;;<<f$%a$X$$$2<<;;XX6$<$@<aaX@$++w8www899%+;>+2O<>:o%<<$+;<+$+a@@<X6o**-#6n+<;u3::;<i1a$<<++6o6+<a0$ ",
"#X8>a>.$X6X2<:$X$@@@6<$$;;;i;::,++;a<+$$@O;;;XX$+$O@@o@X77XOr9r9qrrw<i>O6O$:1h;<<O$;O@+<11@Xo+& s& &+a<,:>;33iu3u;<;;3<6 .$:<qX#",
"##1<O;;$wco$q;;$;+$O<@;;<O<;i;,u;:+@#o<+<X+aOO$+$O<O2o6++za$r9krqtZv@><;O+<$+>;aoX+@X6@1a6& #oOnO@O26X$:>>:i33j3;;<:11$7wc6%<q2.",
".61$Oa%X>>.X@a3<%;+OO;$$o@+;;;;aO++.2o2<a;XXXO$$+$2O+$2@+<XXqrrrZtr9><@u>O.X6OO<+.X2<<a<<##O@X6=@<1:e&#X+;;<i;;;;;>$1<6#>>.+$>;.",
"#6q;;$  -&&6#6.#6a1$O2:;@@<a2<+2a<22@22$+<<$$@$$$f+@+a<1$o+$i99IHrr9@+<:;;$Oo2<u$O##6+a;+@2o+Ogn3q1@+ao #a33a1a1$$O>32O&&#6$<3;.",
"X,w:1++.& .$2>Ooa<$2$+X%+2<++2@<@OX@O<$O$<<a+@O$2$+a+$;<$;$<q9qcH9wr:$+$Oa+6$;$+$o+oO@<<$6@OO.Xo,ii@e+OOa1+2a1<$OX+3;$^. .oX;q%X",
"X,9;q+X.oo$XXO.+i;+X;:@6O$+O>@++:1O@:+X#4%<<<<<$>@X22O$a;;,$qw8wHrqwi<1>u+OX$O+;;+oOoO<:<$++Oe62i331<2O>@$@@<+@+>O$;,2O .X6.<># ",
"X38;$2$$X<<@6$$$X$;;,<$a@;</2<u1a$+;;+XX#$XXa<<$2O+@@O(@<<;>9vwv9wZt$;;3i<++<:@O+$+$o+1+><++o6o2;a>J3<+a@@$<a2<+6O$X><OX7o+O<>+.",
"X;8$;,$;$<2Oo$,,<@;;;::O;;i,;ui@a>uiaXX$$XXa@X<<X+<$+#O+%+<XqqtZ8t9tXO$ii;<:>;>;;+2$a;+;Xo.@+@<#O@>:1;aa+1+@a@@O@<a1@$$$Oo+<a3:X",
"@$:gG;;,:%$<$;;;;;3,;$<@2;3iX;+a+@<aOX6XX$:$:+<+OOO+<<+O@$;X8qqw8qqt6@;u;:<<@a>;+$O$@@3;$X@J$;O6aa<1>>iqq>0uo<>u>3;X;,;$;%$Xat;X",
"<$;g7,8p3<;;,;3;;$3XX;a<a+X;$X$O<<u@0aO:$Xo+O;+X+eO;3;3$7$$$9q89i9rr<2<i$%@O@++<OXO@<2<;;+O1+XO+.2@1,,ipi3>,;:<<$<1<;;;;;1O+O:,X",
"X,a4g$pp,;;$;$@XX+<X&;i>$+O$;;<1:<a;$+><+O@2+$f;<;;;;;;$XX;$8889iwH9OXXX$2<<XO$+++$22Xe<;+OX@.a$O.@:3;:p,>3q><O<><<<;$<;;;O+#<:o",
".X@6#d,p;,;;,$O.o;$OX;,><$<X;33,+;;@oXui:O#47XO$;;,pp;;$O#$$8w8tlwrrOO2+$;$$+XXOXa$O64.Oa@+$XX$;:O:;;<pp,:fa+@;;<u<;;3$:3,@22>X ",
"O%aon$p,;;;$$X 6$;;$2<$<oOo,,i;:;;a<>2$uu>@ai;$g$<;,,,$OxX+<89wmt899<@<1O+<<$$O+XX$+676;<<Os+6$<+%a13ASi3:<@2+a<:;;3u;$,,,<OO3;O",
"X$>go<,;;<;<+$;<@;p33<$;3pS;,A3>;+$a<;@X$<1<+;2:,,,;$Xg;;X<;$9w888Z+@;12$++$$+OOXO#XX+X;$+O;;$$2@a+@:,;fj3;;<<<O6;$;+<++ui3:a3;.",
".$1+O@;;;;;7+2$$$@<;2$$$;3h3Swi++$2$;<$$aX;+;XXO6+;;8;<oX++$;8wZrw9$<>u<+<+<+++oX6o###o;$$6;<;$<;<@>>;:3:;;;;,<$$<X.<;$7<<$;;8:#",
".;:+$+;X;X$;$$<;<<+$<<$+<3pp,$1O$:>;;;+X%;;,<:ua$>f,kpX+XXX;;wwwwwi+a<>,;;$++66OoOxOO$XXOs76XX@i;;:1:uaXO;,h,;;;;$72XX#o.+$3;8:.",
".<01;<X7.#$;;<$$;;;XX<O$$;,;7Ca<$;$;;;;;$;<;f;2o2X$;p,31;3<$;wwtw8q2+O<O$;$$+66X.#oooOXX6oX+$<<,X..2<:;+;X$h8;;;;u;OoX67 .$;,9;.",
" X<$+O77wcX;+$@$X$&X<<O+>,,$$X+<;<;OO2++OX$<;;+.X@@<;$$$>;$$;wrqiw9<;@.7$aOOXoO6..X++OoO.O1o$;;6#6<Ou@;aaO6$hh,,;<2a22O wcX$;8X&",
"OXqX&&6#>> X$$@$f;%<$+o$;,;#7$;$<+2@+;<6 a;f3:aa@2+33<#7+$$;;wt98q9$2+@X<32@;XXX++$++@O+@aa;;$+:>>a<>3$$O#$X;@;;;;;<+./ >>X$;8;+",
".$1<Oo6   .+O<<$;;,$<;$;,ii:X:@:>2+<a;>3<@<;3;,<;;3i,>$2;$;$;;w8qr<O661<f$Xo$$XXOO$OXo@;$$+;$$<;;$$;;<+OXO+<f;;$;,,;$76. .X$;8;X",
"2%3O>Oo..#o$%f;;;;;,;;,,3AA$;ip:<@;;;$:a$<>@;;<;1u,3;af<;,$;;;8ti9@6n6O>@O+OOX+X+X#O@6.$;$,;<$++@+$;3;$6o.$$@@$XO$;$$+6. #X+;8;+",
".$:$%OX .XX;;;;p,,;;;$;:ih;O+3;:;<;<$6X.o>>;>:f+@;:;O+O++O<u,<q888@@6 .+@<;$O$@++$#O6XXo$;;;$<O;:$3;,;;:q$<X$$a$X;;$12X. X$o$q;+",
".$2q1a%X.XX;;;;X$$;$$<;;u;<2<<<;:a;$:Xo@6X::<i3@1;:u6o6$+@>3:Xt88t;66+Oa<;<$+$O<Oo76+$a;,,;;,1$:3h,3;3;;$$@+$,,;;;$;6O+XX$$:;2s ",
".%3ai:><a6+$;;>:;u>;<2;;;,<2<@;;;;$adX2O6;:<<::$uf$+oOO$X<u3$Ol888<%:>@<++X+OOO@O#+<;;$;1$XX112ff3,;;,,,;;+<;,,,,;;;;;X$$f1,33X&",
".+9>@O;%mXX$;<<3+O%$$u,;;:;>><2+;;;Ja7$3;;:<:OX+@$3<+2$;$$++$Xqqw8$:<X<@+@662%O#44$<l;3;<$@O<<3a;3,;;,,,;$OO$;,,33i,;X$;;;;3::$.",
".$>+a@;$+(OXu<;3O#X$$,z;:;;<<:@O;;;:.+$iu;++$;o@@$9<O<;$;;$;++a9r+a<@@++OO++<e#O$X#$f;;$O6+<@X$;;;$X6X;;<1xO+;;;3,,;$<;<X+$33:O.",
".;3$$;3$O>$<;,;<+<XO$;<u;;,;;;@2;;<O@aO;1$@7Xg$<@<$<6+@;3XsO+uO99a+<2;<$XX+OX&+.OX+X$;;2@+X+6o,,,;3+O+;;;$;O+;:,<;:;;;++o<$;;>O.",
".;>@X$$X+$X;;,;;3$.q;$,h2+;,,;;3;;,;<OOO<+6O@;X++a;$+o;;;$<+O+$t96o$,fOO#XO$X6O+O6X6X;+<@+$XX+$,,;;;;;$$X4o$<;;<@1;;+;$+2<;,3q@ ",
" O0+$2+@u$X$,,$$<@<@X;,.X<O$;;$;f+oO.$@<::$a@;:<O$+;;<a;$2a2XOOZq<<++;# X$$a+;$;$O+6+@@+.66@$<$$;<,,$X$$g#X7<$+Oo<;;3,>33;,;X3: ",
"O>9>a$6XX<;;,,,;;>3<O<22aO;<,;;;3:@O@O$;OOO+<<1$X+$;$O+$$X$$+6;t9;$4*# #<$a+6&z;$$+O6.X+#.+X4#o;2+;$;;u;2X;a;+O#.;,;<33;;,;$+q;.",
"+$qX<26#.X;$,,;;$;,+O>;>$<u;;;;3;:,1oX1;+2@$;ai+XXO$+XX1;$+,,,$q9<4oo$6.$o;O22X$,;;$$$o2+oBO.;$X@$$3,,;;$;<;;a:aXX$,33$$$+u3u8O#",
"+;32;<<+oo$,$$;;3,,;;;<..$o#@$;;;:i;$+>XX 43;$,:$$+XX6<;+oo;3;;;+++$X$+o.XX;+6X;$<<$$$XX..o+<<+1+$;;<;;XX%<$;;>+.X$,i3XXX6o$a1+.",
".+3<$;$7  7;;$$<$;;<;;$X#.$o$;,;<3i+$$+6.#$,$$,q;6O+o<;$Xo7O$XXX<$++.$XX  .$Xo$;+++X$$o7  X;p,>OO$3:aO$O..+2;;+a<oO;,3$$  .+<11X",
".+1$<;7.wcX;<3;;;X$+$XX7wc$;$$;,fi3<>O2 wcX$,;i3i:2OXXXowc6O+X6X++;.X+X#wc.o+%<+@Xx6#ooXwc-X$,f3:>qOO@X.wco%;;:<<$i;3%XXwc61+>+#",
".193e$6 >>.$,;;Xon#X& XX>>$XoX+;3i,;<7XX>>67$$;:i::><X$#>>.$;++o6+@.<$X#>>.+$a%$oOO6#67 >>Xa;3:;;;;++2O#>>X2;;;:u<:>;+$X>>of;>1.",
".,w;2$%  =#$;;:+2#O;;7*-  $$++<;;>3;$67....X$<+<+<u>>$. . 7$;$;O+o6XXo.#==6X$X@a$+@nn6+ n&7X$$:3;:<;:o..#.o$+<f,:<$O+$.. - Oo8$.",
"+3cp;$o.. o$;3,<33$a<O6# .$$#7$<;X+<:O.oX..3:3<$;:>1;X7&&#o$;3;<<+$<OX7   .o&7;;:<O.Bn# =-.X.$$$3:<f,+oX#.X+++<<<:;$Xo. ==&.+:2X",
"X<t,<2%+$$6OX+,;;+X,%oOOoX$;XXX+;;O<;OX$++f3::;$<<<:3$XXoo$;;;;3$$+;<+.#.#6oOX;;$OX76.oX .o1>;O<<<<:%oXo$$<$++<$$;;3+XX. .+2%0@.",
"o:r,1+.$;$f$$$;;$>:;:XgXX$$$<@$;;;;;;$$$@+$$;%@+;+O;:;$oO.X;<f>;$$O$;Xo..$+:X<,3:@OX+.X44o+2;32<@2><<+$$X;i2a>+$;;;$<+7 7o+@aq2.",
"o<3$$XX;:%+$++$;$%:;$;+%$$X$O;$;;%;2$$$;$$o$$%X$;$+@$7$;;++$3ph;$++X%+Xo7Xo6;%,:2+X+.* ))7+%$6O@@+:Xo<$;;;$XX+@1+2%+o@+++$f6;16O",
"66..*o7$$X...^ Xo.X$$+X$XXo.6o77.777#XXX$X.X..XXXXX.o..+oOoX<;<X+.6oX o.67.#o67o.#.7*=*=). .#oo.    7oO$o+X6.#=#666oo66o.6.6 .6#"
};
