/* XPM */
static char *eee01d561bbd4d97dbec9c51c4e4f8a6[] = {
/* columns rows colors chars-per-pixel */
"128 128 60 1 ",
"  c #47392C",
". c #594B35",
"X c #27231B",
"o c #3E3527",
"O c #504230",
"+ c #423023",
"@ c #4B422C",
"# c #39301B",
"$ c #594B30",
"% c #6B5439",
"& c #473E35",
"* c #594B3E",
"= c #2C2723",
"- c #705939",
"; c #625035",
": c #82673E",
"> c #8B624B",
", c #795942",
"< c #986B54",
"1 c #795E39",
"2 c #8B503E",
"3 c #9D5942",
"4 c #42421B",
"5 c #67591B",
"6 c #AB5E4B",
"7 c #704230",
"8 c #AB7962",
"9 c #947D6B",
"0 c #86705E",
"q c #796254",
"w c #3E4B3E",
"e c #675447",
"r c #503527",
"t c #39302C",
"y c #425447",
"u c #94793E",
"i c #947027",
"p c #352C27",
"a c #5E3E2C",
"s c #7D6723",
"d c #8B703E",
"f c #BD6754",
"g c #866B23",
"h c #705E23",
"j c #B8866B",
"k c #A2792C",
"l c #AF7D30",
"z c #59501B",
"x c #1B1B1B",
"c c #7D4B35",
"v c #62796B",
"b c #597062",
"n c #CA9479",
"m c #506759",
"M c #231B1B",
"N c #B49886",
"B c #A68B79",
"V c #232723",
"C c #1C1C1B",
"Z c #354235",
/* pixels */
" . Xo OX.+oXX..Xo@#XO@. .$%.#+o.$ &Xo.+*.X+= @. # o+X+oo#@O.X +#++X+X+O++++ .OO.++O--;.+XX;.;oXX+XX+o ++++XO   +oooXX  oX=oXX. +",
".%;Xo$:-;+X$;>:O $.O;$@.$,>$.X.:%%$=o%.<;#+o;%%.@.X.%o#o.%.-##.#X1OO O:1.o+-:1-1++-231.45-61.oO7.1OoX;:-+oX$;;OXo+OO; o+XO1;XOX+",
"+O*<. 1O 8%+ 1.,>@;..@9.#$%O0qo$,@*<#$X,X<2w+$O,>X.$.@<$X;+ <,o++.$<@O2.X8eO::Oe<.X1+@9.+-:.0q++;r*<X+; X<* $.=e<ooOo#<$=-1O<q++",
"XOt6@;%o=:t..O@&>o$$.#>@;%,#e% %,&&,&$O$=>2y+;#&1X%-.#6$@$o=$@# ++t>$.:1=:tOu:@&,.Oi #>.1.1.e%+.; t,t.;op>*O;;o&-##O+#>$=:.X$@+.",
"o++=X-1++XX1,;$X= $.OXX@$%,@oX@,,$op;%O$+X=@X;.+=O;O@X=O$%X@=X$.X;=oOa%:+++-u: O s13:XX sO;OXX;i1Oo=XOaXo= .$-X++;;;.oX=#1OX++r.",
"X++.X;1+$.$,,%%%.,..;:$%$:>$% :%,,$%%1+%+%eeO@@.$$%@%%%$>,.$;,>@X1..$$:%o:%,::.i:-666,.;io11OO:1:;.$..-;-.:;$$ ..:7-;.;;-;-O11.O",
"O-;-+-$O%%%,,%%,%%O;,:d%-:<,,-,,,>%%%$;,.:*e;$%X1,<$,%%,,%%%$,,.+-;$1-$%O7%,.1.d:536f61g1;1is11:g-%,;;-.:;$#h:.1a:11s$-;;X::.;O#",
"O+. +.-O%,,1%,%>:%%%>%%%$%<,<,,,$,%,%,,%O,,,,,,>%,<O%%,%,$%;$@$..:;+O.1u-u6, 1;d:i6;uu3:sas3ia:;r;,,1;#;%$$ Ou1:1Od.s1d;O;d1o+. ",
"X;O*oO%.%,,:,,%,1,%,,$%>$,>,<,>,:%1,%,>: >>>%%,>>>>$,,,1%-$ *t#X#-.*oo;u11661d:3%i%,d.6%15sisa:-1;6-:,%XO.$O.:::2-:#i%$-%;-O&to+",
"OOej@@%+,%%1>>%,%,>>,%,>.>,,>,>,,,:%%>,,+,q<-%:,<>>;>,,>.$.o9e##X ej.o,u,i,,,6d66k,66661oasus1--+:>%%,*&o.-.1:.::,.$%d$1::O 9qXo",
"#XXo&:%;%:,$%<,,:,%,>%%>.%,%,,>,><%>,%,,+>0<%11%,>>%>,,<1$% p=%& O=XXO,6,,6%66661;6f:6:O4s1ls:- ;d%,,$$$.1; ;1s-d,$$1,$::,OoXXoX",
".$ .<,%:,,>$,<>%$%%,%,><%%>%%,%,%,%>>,<,;,q>,1%1:,$%>>,>;$>$%$>&X$X.-.%:,:8>666udz666uhX11.3ksOO-s-->q>$Oa.O-$$$2u;::u$##&;$;.:O",
"&:O$>,,<,>>.:<,:%%,>,,><$><,,>,,%,,,>,>,+,q<,-%-,%$;>>%>:%>%%;,@o%.1$;:,,:,,u6ui1;ddfuO;u.-usi-@;:$,$:%1.1;1;-:;%$%:$-1d$ $d:;>O",
"$$+O,%,>$,,@$<,%,,>>,$,,$><>,<>,,-,,,,,> %q>>$>;,,-+,>%>1:>%%-%.O1;#..:d:du,d:u6.sk:6,;d65.-siis511%.;1:;;.11-1;d:u%:;:.. ;1$.1 ",
"@$oXt;:>.$>;%>>$>,>>>.:>$>,>,>,,,$,:;>,>O$ee,.<;%,;X%>,>;$,;.#OXO$OX=X;uX:d,6,-u-:-6:,11u:.iig11..;.$;1.O;.@a;;-:,$$d%,:a1;;Oo. ",
"@.e6.@%>::>%%>>:>1,,>.%>$,%>,>>,,,,,%>>>.$%$>O>$$>;.,,,>;-% <u oXOe6 o$,;%1d6d1:3i;u:d11:hs:i1.+O.O.aO@-O or1%;d%%d$d$%$$;;#<u +",
"@XX;X@1,1:d%1,,1;.,>,O1>%,,,,>>$>,.%%%>$.%e,>+8.;%%.,:,>%+@==pXoX.=;X.%,:;;1k;1.u-+6666kg:-:.17+sOO..-.1a.;:;111:6:$t6%.$.;o=p +",
"$.xx=;1,%:,,,,%;%O%>,Ou,,,,%><>.<<.,:>>%;>>e>+>O,d%$,>>>,+%+xx$o+-=x=$,6: 11:.i:di+d6663i1.ig-aO1;-a;$.1a;#;;1;%:,d%$,%.;:1Oxxsr",
"@O.O$11,,-6,:1:%%X:>,.6:6%$%,><@<>O,,,,%,>>e,+,;>%,%,%,,%X,O*.%+.,;@%$$d:+Od;.uu66%@6:6r;d;:1.gsiad:1-a11o#.::-:,6%%::%6d$uu@,:.",
"@;$;$%%%,.:dd;%:,+>,,;616%%%><<$>>;%%,,$%>>q,+%%,:,,1,%>,+,+%+$+O:%;1$--. 1u.1,:6:1$u6u-k11dO5sag;.;;.asao151,;:,u:-%6,6d@dd%u@O",
"$;. #@1,>;::d::,,O,>>1>$<,%%%><%%<$,,,,.%>,e>X%;>%,%,,,,,., #+.X+1.o -1d.o+::::1u61u;6ddu::d.:a+i5.=.OOsaX.aa$;$%u::u,&:;:1O#.XO",
"$O$dO.;%,;,%,.%:-X%>>-d;>1:.:>,;,,%,%>%$%,,e>+>@$;$-%%%:%.,oe*+XX.;dX O-$OO-11,,%616:66;-i..;ia;ssr.X X;a.O;Oc;1$@.$1: ; ;;Oe* O",
"@X*uO..::;%:>-,1,O:>>->.>::;:,>,>%%,,,,$@,,*>O,;,O;$,%%:,+,=,,o++o&u X@u1-;,u1d666O6:$f$;3oorlr1ga5OX#X@1a  X2-1::..-:.1=;.=>,O.",
"@#+= -;:>;>,6%:1%;;,,$,;>;:;-,>,,;%%%,,$;,qv,$,%>+:%>%11<+,o+=$o=+==X-$6;;.@2;;66$+::1,-1:=X:i7.i1r+p=;oaap-rd.$%:X#o1$::X..=X-;",
"$..%%%;1>,,1,$%1%@:,,%,;>$:.;,,,%$,,$,,$.,,b%1,,%;:,<%1%<X,$$X,o#-Oo.$$u:.1.@d,:u.r-:u6.Oio-di;+l-;rOO%O+;X1.:1$::..O..:1O;%-;:;",
"@:;%%,%d,1,,>,,+>,:%,,>;<$$:.,,>%%<,$%,%%,,*,,,<%;>><,%,<;,%,O>+o;;;;.::%+1X-6,d%-1 u3u1;d.d:2;Xi1O+O=@.r;X;X:-$:d O=O ;:1;11uua",
"..r@;%$,>%>>,%>;,1,,,,,,,$:%;1,>%,>,$%$,$,,&,%>,,O>><%%,,.%%$+,XoO-ro :6:;d.;:,d-du;,d61%d-d:d.ri1O++XaOa.o: 11a$1oop;. -a$-+s-+",
".+ #X$.,>>>,>,,-%,,,,%,,,,,,-,,,%%,,$>,>-,,e,,>,,O<<<.%,>%-.&o@+X.##p;:,;::-:-u%%:16>6:1:,-1:,.;11o+ t.;;;;1Xc.:.;XX;:1o.a;O@.++",
"@+ejt$$:>,,,>,%+%>%>%,%,>%,%$,,$%,%1.$,,%$e,,,,,%+>><@1%>;%X6,.o +ejt.1,%ud:,:,$,6.66,6;-6:::s;-i; 1o.1.5+OXo1.;--Or1:-;aa;O>,OO",
".oo.X%;%,%,%>,<.,<:>:,1%>%,,$$,1;%:$;.$%$;**>%1%-O>,, ,$,r%=p=&XXop#o$d%%d;,6d$:$.d<n,6,:6:s::1;iu.:O;;r+rOX+::...O;;:;d;+1+==.O",
"$OO@$%:,>>>><,>;,>>,1,%:,,,,%,%,:%%%%,,,$$*%>:%,:O<,>.<:,%,O*X,  OXO1:d::1d,6:,%6d%:<>66131::dc..d11O-11O+;;O1- ...+rik-O;h1+O-O",
";..$%,%,,>,><:,O,>,11%%:>>>%%,%,%,%%%%%,%,qq:$;,%.<,>@,%:%,.q-%XX-;%,:,:1%66d:6,6f1.66,611s;,$i@.rda $11++$;.-1  OOOa.-.:kksa;1-",
"@++X$$%%:>1d,%%.%,:>1,%;>,>$ $$,$,$.,-1%,%ee;$$;>%,,,O,,%.$+*$$o+1ug11%,1:6,.:6%666,66,611du.O;;dO:;X OaO-::O,:o#--i3 11-u:i1+;.",
"@;ooX.%%%>1,,%,1,,:%->,.,$,%$.;,%,1O,$$:$;*m;%$$<,:,1%$,%;$;@o@oOu1.o;:%%3,-;;d,:6,>661:r;:,O1aa+-;carX.X11.O::  ; 131:i::;;X+X ",
"@;$<#+%,%>-,,1,$:<$.1>,-,$%%$;.,%,%O>%1,1O&:;%$.>,1,1$>,>1$ >,@o;1*<#.si%$,%;O;1u6,68,d;;;1.X+i1ui;ca.+111$.-;:O+;1r3id1d:.o>qXX",
".$tdtr:,->-,>;>$%>>%$,>.,%$%%%.,%,,;>>1,,;**:%%+>,:>,%%,,1$=%*$  Otdt;:,;.u>,:::%:16$:,%1;::ia.i:k1:a$.:::1;s1:Xa1 rii1.:1.o%%XO",
"@$+=;-:,;,$->-,;%,,%->>$:%$%,$O$,>>$>,%,%+&&,,,O,,1>,,%1%:%O=X%.o.+=O.:,-;6,66,$$66:666>%a1dk:+2:31@1a1::1.;:s:OoO;s;i1:dd;;+O;.",
".%+O,:,:+,%;>1,;,,%,-,,;-;%%>.+-%,%%%,-,:$1.>>%O,,-%1%$:%-;$.%,Xo:;k;;:,,.,,$,6,:%,-666,@d,6k:i6%6i.a,%k7a..du:+O1:.:31,6:u2.ud;",
".>--,;,,.>%1,%,,,<>>$>,$$.:%>@$%>%,>,,$>,%1;>>>$,,$1;:-,%;%%.:,O;66fu11:,:6%;dd$36:,,66,+32:kad:%6s$a,:ka:11-d2rsaa.u6d:i:d6;1,-",
".:. ..:<O,1-,;,%,<,>$,,,$;$$%%%%,;,,%$;,1-$1%<>$;:$%.:-,%;%;+.$ ;dus.;::,;,d-66O>6<,16,611:;d$1$:,s:::::+:#-.1:aasiha:d%d.,,o+:-",
"@;O@ O->O%,;$$$,>>%>;>,,%.;%,%%$,@>%,@$>%1%%,>%;;$%$O%1,:.1 @tO  :;$X;d%1$,$%d6;66<6,,,6:a@-,:$.:,su,$$112o.@1:asi:1O:-:-$%o@#.@",
".+*j@Oa>@$%+$,%$,>:%$>>::.;1,,%;<.>>,@$>>%%%%%%;%%,,O,%1.;.oj0#O Oej.;1$31u6>,.,<6d,6-u,$:166;:.1:$:s;Xd%1 X1:i;1:1aOi#d;@1o90.-",
".++=X.a,$%,+:,%%%,,,$<>%%1$,>,$-,.>%>O$>,$%*.;;;%,$:;<1:1.Oo+.. o.XXX.5sd:u6,,%666,%,6;6,a1:1:2u$::$1%X17-=;:i217::;Ou $;-1oXo;1",
"@$O.%-1%%,,+%%%%%,%1,,,%$$$$<%$-,+,%, :,,;:&;;;.%%%,%,-+$O1$+%:Xo;;.gidiu:u66,d,666%%%d$;O,i;d2s-:111;OO-;O1:3di$:%-O: 1:.;;.O,1",
"O;;-,;1>,,>O,,%:,,,,,,>,%-1$>$$.,+>,,.,,,$7;.-;.%,:$1,:.:+%,+,%O.u66fgu,:ik66,d.6:f%6:,d..%d1::-;1:$.O1+.1O$:2i:Xi-;.:.$1;O:::u;",
"#a.;O..,,,>;$>%1>,%,%%%,,-;%,$%O,+,,%+,%%$aO--..%1;;1%,;,+:,X,$#.uu:ddu6>ik6,1,:6,f,<6,k$;k:.;i1;:;1;11;---;dud;#i11O:%%$$;,:-$#",
".@O#o ;%%,>;%>$:,%,,%%%,,.$,%@$+,+>,%;%1:1aO::$;%;-.%--;,X,$ot..;:.to.d%,d,66,3%66,$66%;.iidd$:;;;;:1s1;-d1-1u@;o:i1a6> i.u$# O ",
"  *<t+$%1,,.,>$%,%,,,%%,%;:,,$,;,.>,%;%;1%aO1:-.%,$%%.re,+et<< #O5e>t ,$%d:6>663>3,d66&1$2d:d1idX$d$@;d1.1r-:d.:o1:1 66..11#<<  ",
"oOX*#O:$a,,;,,%:,,,,%%,-1-%,%%%1$-,%,.$-%-a ;;-.;,1$$;%,% *=Xp  O.=*# ;%u6;%,,6d,6,<$u.-:s:u%%,<o%i;;.1:X;a;-:;1X-31Od6$:d-oopOo",
"XOO#-$$%1:,%>>%%,,,>%,>%,.1%$,%$%%%%,%,$$-aO..-,+:1%.;,*$..== +.#$= .$1,62:.%,6i,>%1%6$,.:i%:;,6X%2.;@:;.O-7;;.1.dk.;dd%:11  X1p",
"O-,$:,;%;1,,,,%1>>,>%,>.%;;$$%%O%%;1%:<;.-aa--,,+1;%@.$.$$.+o*.O ,$$.;,%6:$o%6$s%26$66%:-i1::-%,o,a-;+iOO7aa--11-u31:u1,21:u:;%X",
".1>%%%$1-:,>,,%:,>,>$%>;>-;$;,$O$;O1%%8+.;;a;$:$+;.%@O%&e$-o.. X.,%$$$>,6;1-;611,,66f,,6a:3%d.a: %1sa+1+.1raO,d:;uk:1::;:$:%;#,O",
".:$#..1:::,,,,%,,>,>$,>;>%1$.%:. .O1$->+O@;1;:%-.$;$;@%te%$oOp+=-6.X#$,,d-%:;,1.:,:@8,16d1i:dOa7@:-s++.aa1:%r::uX:6:,.$ -=:1oo;X",
"O$$eO.1:,,,,>>%%,>,>,>%;,%%$;,%$;.o:,.;;$%11::,%::%X*;@*%%%+,%X=.:&,#@%%,%d6$-u;.d%#6%,6:1:1:.-1r:-7;..;:;$-i:-:+1u$:-:.:-$.,* X",
"OO*8$@%$%,,,>,,:>>>>,,%%,%%%%%%%%. 1; o;$%%%%$,,;%$$$1$q%%*=,,p= O*8$;%,,:%6$%6:-,6,%,6:d;1;:.:.+:;O.;.;i;1-1:;d.i:::-:$1:1=,, .",
"O.Xp %,%:,,,,,%,>,,<,:,%,:,%$$%@ X.:O.@$,%11%%,%@$@$$$>O1%$#=M#=o;XpO%%%,%%%:,$:%,,2,f$.6.1$:.%-;:;X;a-:::::1$+::::,:1ud111o++1:",
"O%%O%,%%$,,>,,,>>,,<>1,,,%%%$,%o;@;. ;$;>$-7%$>$.$;%%.,+1$$%%+$xX-.O$,,%,3%,;,:1%%@:66.i65i$,-%O.i%.a7:::d::iu;d,u-:$d:d:;.1..:1",
"X:,$:%%--%%,,,,,,%,<<$%%,,:%$$$;.%,$%,%$%-$$%;,$.$%%$.,+$-:,,O$po%%.%%,%$1%,;6%1,,6366.:6:k$%@1.1g1;:7:1:1::s6ad%:;%:u;ud;X;:@tO",
" ;;++%:$$@@%;,:%.$,<>O.$%%$;O.O$+.$.@$,%$X#a.$%  $$$$+%+.O$**X$pp$:O.%:%-.#$;,,.-:,d6.$$$:uO;X;;.1r+O;$;-.O;u:...;$$@1.;1:-OO =o",
"X.OtX;:;O&=@.%@.OX%,%X;o.%;@  o.;OXto.$$Ot##X,%#&  $;+&Xo.$o&#==...t+$:$ t=.1,$O. $O1O. .;:O.  .;;Ot+#$OO& X:d #to.1; &o;:;.@=Xo",
"XOej@;:;#N*@.-@q6#%,$tf;@,.t<u# $Oej#.$$t83m.e&><t.%O&n$X$$o9q=pO.ej#;1@#N*-:2#qu.::,*f;o:@=<u...OejO=$.#8e+:1X><#;:;&n$.:1#9qp+",
"+@oO#$-@X X%O;#oO %,@X#p$,O o=.O$Xp=X$%*pXo+;,#o& .,@=. O%%o =#=O.o##:;@  =%,%.p.#,6$ .=p:OooXOOOO==+O%OXXX;:d4 &O;..X.oX;-pX=XO",
"O%.O$%:%O#%,$11$$.,>%oX%,>;..O,.$O.O$%:%o.&%%>*#$::,1#@$+>%;$;$oO;;+%%%1;+.@,,: %,6<O-.:.:,$--$-O;OOO;:;OXOsk1  --:;X;--.;1OO ;.",
"o@.+ OO@XX#.oO..OX@@.=X.@&+X  .   ##.@..+#ttX*t.#  .Oo.@+@#t#OoooO +@;.+#XOX+@:.$%%$;%$$.o1..O; +OoXXO oo X+. +oOO X=O.  OXX +O+",
"X. oX o XooXpXoX=XXoXo=++XXo==X X X++X XXX oo OOXXXoXpp=XXooo=o O$@. @@.@.X  .&&&#o ..XX.e&##ooo*#& #&@$oto&@$O#oX@o*.=#X#&OXX@+",
"O,#O @;%-oo ;@.Xpo ;-O=oO-o.==o-;.O#+:1..oX+-%;.Xo..  XX..o.po o$>.# $>%$@#O:%,*##,%.%# $>>$.X+.<$$X.%,,.@X@,;O;XO,;<;#X$%>$#o;+",
"X$*<@@$$#8%X-; e<= O+@BO=.X 0q+..p%<  .Xp<2y11 ,<o . &<$o.+O<>oX$%&<@.,$#<%+$;$,>@$;o&9.@%, 0,Xo$.*<t@%$.<*=%OXe>X%O>@<$..$#<,.+",
"..t>$$$;=:t ;tp&>#X +=>.o;OXe%X oXt,tO-o=>2y:;o&1=.op=6$ -p=$@#X@;t6$$:$=:t+:;&&,@,%Ot>@$,%Xe%#o,.t,t$%$=>*.,$#&-t$$%#>%%O$X$@@O",
".;p ;%.$p=p@$&==pOXoO=X -..oX=.;..X+O;XX=ppr$1 +=X.X#X=XO;oo==; ..po.%;$X=o$,$;tp.,,$Xp ,%%tXX$+%.opX%$$ =#.%;.po$$;$X=X,;$OX=;;",
";:&:,*%%&$%%%%&X&;$.X#.-$;.;..X; ;;.O-:&=Xw-%:-1$$:O;..O;1....:O %$.%%%-O$%%%-O,%,,,,$%%@$,,%,% %%%%.%%$@@%-,$O&;$-;$%%O,.:$O-:$",
"#6$%6;&%1,*%$:&.e;.;.. %--:1::.   $$;:%$X$;-$:--%d$ ;:;.1:OX.;-O ,%;$%%.:,,%%:;>,,%,,,,,%%>>,>%.,,,,$,,;$,%O,%.%%$-;;,,.:.1:;;;;",
"@%@;@&*$,>e%,%*#&&t & X.:$1;:d;..o --:;1.$;--:;1$1;..:;; -;Xo= =@%$Xo$%1,,,,-,,,>,>>>,%>,,,>%q%-%%%,%$,a,,,$,%$,,1,1%%>+:,:$ o..",
"#%#* @*$,,%e%%*;&&&.@t&$:;:..-,$- o..%$:;.&$--.-;$$.;-.$ ..=&&p=@$.*o.$$%>%%%%,,,,>>,,;>,,,,,e,;%%%>%%%;%%,%%,@%%O%1,%,O-$1 &&oO",
"#Oej@.&-,,,,%**&&$@& t.-@.:;1:%:; O.O ;-;&;1:;O:&11.$;1: ;o=jqop..ejO.$%,>%,%$,,,,,,,,$,>,,,,,,;%>,>%;,1%,,%>>%$,-.%,%,O.1$ 9qX@",
"#$=X.$*-%,e*%*%&..;.t&$%;.:$$:$. oo=.=-$$*;;X;;:;;.O&O$1..XXX=X O$Xo=$,:,,%%$$,,$%$,,,%@<,%,>,%:$<%,>%,%%,:%,<,$,--;%%,.---#X+..",
"#$t$,%*$%,,****&:$$&&;%::@$$$d@.Xo===o;$@1aa--$:;;.O.;.;;.oXXo$=.%$@O%%%>,%%$$:%%,%,,,,$<,%%>>%>.<>,<%%,%>%,$<,,$;::%%,%,1%%;O:;",
".%$%,*&&,*,e&*e%%&-$$;%%%&#@:-;-.=X XO-;$$;$&-;1&$.X$1;.;&; .O$p.,%,-,%%,,1%$$%>%,,,>>,%<%$%,,>,.e<,>%$,%,%, <,,:$-:>,,%>%-%,;,$",
".:@%%;;&,*e,*,,%$&%$%.$%:&;$:-$11oX. ..$% t7**1%$@..;-;-...;t=to.%..O%%%,>%,--%,%,>,q,,$q%$%,,%,$%>,>,$$%%%,$,,,$%;.>$%:,%-,;.$.",
"@,O #&&*%$*,,&,,1;@&%;&%%*$*%%%%OOp O.;*$O.7*%%$$..$$. &X.  XpppO$XX=.%%,>%%$-,%:%,%>,$$>,$e>e,%$%,>%,$$%$%%%%,,%%;+,$$;:%;;OXO+",
"@@e6.#$&%%*,*&,%:$$$:;%,%*$&$,:;. O. .$&@O.7%,$:$..$$ #&-.#=<6==O@*6O.%:%,$,*$,::,:%,,$$,%$$q,%$,%>,,,$%:%,%,%>,,>;O%$$;--;@<u#o",
" @ ;X#%&%e,,%@,%,&%%,;,,%*:*$%,,;.%$X :;.;;$-:;-;@::*&t.*; ==oop.O=;o@%,,%$$$%%-,%,-,%.%,;%,<q%,%%>>,,$%%,%%,$>,%>.1$>,%%-;p=X.O",
"@@=V=&%&,,%,*&e%,$**,:%:$*:;$u%--;;:;;$;...;.;.;.O.$$@.;*.O=xxXp# xx=$,%%,;%$%;%*,,%$%O%,%%>%,e%,%%,%%@1%%,%,;>,-,+1,%%;1.;Xxx$O",
"$,.&,@e$,>,%e$,*.-&$$1$%:%%11:1O-. =.-1....;t-;:. $;$$.&$O.# =.X#@;.%%,%,$.;$%$%$,,%,$.%,,,@%,,%,@%%$%$>%$,$,$>,,,%$$-$::;-$.$%.",
"$,%%,%*,,,,,e$,*$1&%$@%;:,.;:,.X.  = ;-$;;;...1-O.$;;@.&$.-&O#.p.;$.&%%,,.O$$%$,$$%%%..%%%>$%<e,,$%,%$$>%;,$,%>>1%%$$%-::$;-;.,;",
"@%$.&&%,,%#$,$,%#*&*$%,1:%$--$-O @& ...;@$$;-O;;O&%@&;&&-.-.optX.#to#$%%%$;%%,:%-1,>,-.,,,>,%<,e$%;%$,;,;.%%>%,>$%.-%,;:-;..Oo$.",
"$$$:. ,,,,$$,%,%&*%%$%%:d#:-::u: ;&;$.;;#-$$$.;-O1:..*&X&;; e%ooX $d#$,%%$,,%,%,,,,,,,$,>>,>0>%%*%%,$,.,%;%%>,,,$,;%$%;,%.- ,*.O",
"..&d.#%,%:,$%%e%$%%%%%$%1;;1&,,:;:O.O-;:.-$-$;$:..;.#$$.O..=>,Xo  *uO&,;%$,,,,,%,,,>>,%>%>,<>,%,@%;%%,.,;O$%,,,%.,;%:%.:,$-o>,..",
"@$==.;,,%>%$*.*$*%$$,%;,%$$%%6%11%=;;-11.-$$;;-:.$;#;$.;-..p=C. o ==X$%$%@%:%%:%,%$,,,%<%%%>$>$$$$;%%%O$.$$$>,%,.$$1%%.1>$;o+=;.",
"$%*%,$>>&,,,&t%%$%$$%&&ud:11$6,1#%;$-.$:$;&:-.$:.@.X;:=.;X.@Oo$XX.@@%,%,%$,%%,;%:%$,,,%<%$%,$,$.%,@:$%O1.%%$,%$%.@@%;.+1,.$ O%:.",
"#6,%,,%,,,%,*&e,&&&%,&@,%.@.t66$-1$$1::$$@&$$@$1.O..;.O==.;&;X;=X;%$,,,$,;,,,,1%,$%>,,,>$>,%,,;%%,%%$%O;%,%$,$$$$$;,:;+;,;%$;%,.",
" ,%@&$%,,,*%%$e%-*$%%&;,%1$$$%>@%,&-.;1&..&&..;:.. O.OO= ;$OX=#oo$$#$%,%%$,%>,-1,$,,>,%>,>,%,,@%%,q%%$;%$%%$%@%,;$@>;$+.,;;%.;;X",
"X,##=;,%,6,%;,,,$-$$,$$%%$%%,%,@$,%tt -$..t&..:$; OOO@;=O.$.t=Xo . #X;,%,;1,%%;;>;%,,>e>>,%;,%@%*@,,,:$..$$-$:%%.%;>.1-$$a..t#Oo",
" ;ej*;:,,><%.,**:&*t$$&,d.%$%,*,,;%$*@&$$Ot;-;;$1 ;.  XoX  =<>Xo#@ej&$%%,1$,%>;%,;,:,>><>%,$>$-,$$>q>:%%;%$%%;%$$,%&+,1>%-O#>,.o",
"X@o.&%%>,%,$@%*e&&,t&&=:,;,*,,&,%%#1&.#;;.&%:.;$1 ;-#.o  $#===poX@o. %%%,-%,,>:;>->,>>,<,,,%>@$,,,q,>@%,,,;,,-.,;>@;+,;<,;+Xp=@O",
"X.@.%%%,%,%%$%,0X%%t&-&&%;%*d,%,*%t,;&$1-O&%1;$%. ;@.O .O.t#==XX $@@%%-,>.%,%,d.>1,,<,>>>,%%,$%,,%,q,$%,%>.>,$O%$>%:;>-<,:+%.$-O",
"t$,$,%%,%%%$eqee$,*&e$$*%.1&1%$&%&t .;:-$.;$:::%$ ;.$@@;XO=@#pOo.,%%,,$>>.:,,,,.>.>><<><>>%%,%%,,,,q$%,<$<+,%%-,1>,>;>.>,%.,:%O+",
"t$>$,,@%,,,*.B%**&,t%$;&%-%$;%..%.&O%,,:11::1$.$;#; $$.;..o# = p %-@$:+,>;11,,:O,;,,>>%%$%@$>,%$,%,$%%%%$>+%1%.%%%,,+%+<,$O-O.++",
"$O@@$,t,,$>$.0%**tq*,%t%%$$@.1 #.-;.%::;@%*,@oo;$$$.$;1;..;O=Co= %.XX$.,>$%%,,:.,-,><>%,%%$%>%,$>,>%%,$>$,O,,%.1*$%>.%.>,;+OooX+",
"&O$<t$ ,%,%:$e-,,t,*>%;%%#%$.;$%1d:Xd::. $@7$ #@$&1;@$.;$$;o<>o=X;*<#@1,,%,,,,1;$.%><<$>,>$%,%,$%,>e%%,>*,%,,,;:1%%,$%O,,-O >>MM",
"t @:&$$%*,,,,,$,>*%*,,#*%;$%;1t$&$%.:$$. t++$$$&;$%O.@  $..=%%XpX.@dt;-,>,,%,,--:;:><>%><>%%,%$$%,e>%%,q$,$%,>;,1%%,%%$%,;oo%%++",
"&tX=$,@,%,>,,%%,,,%*,,.*,$;%1;#::$:1:;:;.;rr:.#==t$O@. XO#.+X=Oo $X=.%->,,,,%%1$%-,,>%%>>>,%$%,@>>,>%>>>e%$:,,$,-$%%,:;%$%+.++OO",
"&*%e>>%:,$%,>,%,,%%*%%;*%$%,%-$:d1,1:$:;@-ra%;t.==#X@ #;...X =.=;%$;%%$,$,,%%%,%,.,,<>%%,%%%-,>.>,>,%><,e%$%,%-1:1:%,,$%$%+$$;;.",
"&%,,><>%,%%,,,-%,%1;%*=$%$*$:;11-;,d-:$.t$$7%;%,oXXo .%;.; ..X.=.%%;%$;,$%%%.,$,%$,%,,;%,>,%$,, ,$@@@$q%$%,%,:1-:%:%%,$%-%.$%;.O",
"&%@@$%,%$>,e,e,%,,*..$ *$;&$$;%$-;,:.$,-@1$c:.&%& X @&. XO;OXX =.:.X..$%%%%>$,$,..%-%,$,,,%;.$%.%,%,@%>%$%,,,1.;%$%$$,%,$%O$*o+ ",
"&$.$.$%%$,>&%e,ee,$;$%$$$;&$$1:$:@:;;1::;1$cd;.d&&$XX O. O-o@# =O$O@ O%>>>>>*,:,;;%%,>%>>>%-.%%-,%$,$,,%,,,%,,$$,:,;%%$$$%O&&#oo",
"&#e8@%*$-,6$*e,e*e%e$%%$$%*.;:,;&1,*,%%$$@@$:$;,#%*.#X ..;-X89XX#.ej.o$,$,,>.%,$.$,%<>:,%,.-.$1$:%,$%>:eq,qe>>,%,:,.%$$$$,.t89 +",
"&t=X#>%$$,>:&e,,e%,,,,,*%,%;$;,$&:%;%%3$&$;7%.@:&%%oo..O@$$oX #pO.+=XO,%1,,%;,:$1$e%,,%,1:;$.%%%,,q$%,%$,,,e,>,%,1-+:$$$1,Xt XOX",
"t%.$,<,>t,>,&$%,,%*e,>,,,,%#%:,&,,*%:@,$%&&$$.@@@&%##@t.;#*t=#$tO:;@-$>,%%%1.>%$$$O@.;%,$,-::%%%>>q%,,%-,$,$,,,,,,-;,@$1-%+$.+1O",
"&%%%,>e,#,,,e*:$q,&,,eeq,*>&,,,,,$#*$;d:$$-$@O.$&&.p#..$$&*&t&$..,1%%$>>,,,$$,% %%$-;.%,%,.O,%;-,>%%><%$,%%$,,%%,,--1.;:;:O,;;1O",
"t%%&%,%%&,,,e,%*ee;%,*%%%$,ee,>,%:$d;%,-1%%*.t.,&&  O.@@.@&*=&&#.%;$$.>:%,:-%,:;,O;:-.;:1O -%%;%1,:$$>;:%%%;,,%%,,:;-O1%O$+,.O$O",
"=&.t &,$%<>%e%,%*&%$%%,,%%,;@%,$d1:$:%,$*$$t@&O%&@O  #$$$=&t== o+1O# O,%%%%;$1-O-+O-;O-.+%$,-;;:%,-.O$@%$%$$,%%%11,O>+.a+++-OXO ",
"=#%>&%,:<>,*,,*,,*$O,%%%&,,1*-,::$:$$;$;t1$Z#.o-.@#oO@-&&@&=8<== $e>&o,,,:%O-%,.;+%.-+;.1$;%-;:%,,;;$%.:,,%$>,,:%;,+,+.-@r+@<<#X",
"t==*#%,*<>e,%>e,>,:-%,%$$;%$*%,6%:;%:$;:$$$&.&.$X$O=.t&&@&&=op==O.#*t$<,,,%%%%,-:;-+1+%%<;$OO$,,>,,,,%$,,,,$@,>,>:,.>;-,@<-=Xp@.",
"t&==.,,:,>e<%>>,>,,,>%&$$$d$,,,::%%%$:;-:#t$;;X.$$Oot&t$&t&===toX;X $$>,,,,:-%,+;%;O.X;%>%-+$,,%,,%%>,%%$>,%%,,>>%>.>.%,$,$@XX$.",
"@%@**&1%%>><,ee%%e,%,%&-;.:;,,;@$-1%;$:;$ w2 ;=;#.$.&tt&&&&&=@$# :$+>%>,,,,$.>,4.$;+;.>%,,1%%%,1%%,%,>,,%,>,<>,>%1,-%;%,$,%$%$%.",
"%%$&@$$%,%>e,$,,%e,:%,*-&$%#,6.$#$.$:$1.$.tc$;X1 :$=&tt&t&&&==* .:$O,%,>,%%%O,,;%+-;1O+-,,%,,%,$%,>%<,%,%%,,>>>>:%>-,O1,.,,$%;%O",
"$,.oX.$%%$>,%%,ee*,,,,,1%,:#,,$@.:;%$:d.;Xt71;X;.$%t&t&t&tt@ppt=.:; #%%,%%,:+,%O:X1:XX-%,$:,%$,:$,<,,,,,%$>;>>,>,$<%>.%%$,%;#o$.",
"$%@,#$@$%.e>,*,q,*,>,*>%,,$$%%,.@,@$;$,$: tc-1o;t*$#&&#@.&to,%o=$$&, $1,%1:-O%,:---,.+%>,%,,%$,%%%>>%%,>,%>;,>%,:$,$<;,$%,$X,*O.",
"&%&8%%,$&*%>>*,,$%<>,%>,,,@O;.%;=$ ,%@,%% tc-1X%#$%#&t @;&.=,,==;.*8%$%,,1,-O%:>r1%,% %>,%%%,-,,,%>,%%,,>%>$>>,,,$%;<O,:$,.=,%t#",
"&$==#%<%&t$><,,%%,>,,%,,,>$O..t$$$%$:$>,1tOa;.t*&$$=&@t&&&&o=Xt=;.+= ,,,%1,:o%:%;1-,,O$,<<,%,1,%,%$%%%>>>%<@%%$,,$<%<O%>:,.o==@$",
"&,$$%%>%,%e,*%,%,*q>>%6,>,%;t;;.,$&$$$,,%.;$ ;=*&$-.&.t@@&&&..& ;1;%%,%>:1>%O%,d.::>,$%,>,q<>,%>,%%,>O>>>,,@>>,,>,9,>--%,>;@.,%$",
"%>%,*%,d,>>,e,%q,e,>,%,%,,%$t&&&%,=$d#;%$OOr$$ **%$;&&p#&t&*$@&=$%%%-%%%,;,%-,%;O-1,,.$,,,%,>0,,,>,,,->>>%,.,>,$%$<,>%%:%>.,%,$;",
"t>@$=%>,%@$%*,,*@&,%>%$@$*%$ #&$&.%;@=&,@Xp+&*=&ttt.$&=o#t&&.pt=;:$@.%:,%;$$$,%.X.-;%OO%%,;,$*e>>,%ee;>>,O@#%>%$*@>%>%@.$,$,%&%@",
"=*;&o.,%t&=&,q@.#=%&%..X$%$XOX=;%..&ot#% t+X@&X.tpo#& toX&&=t=Xp.1O&o$1,.&t.%,$O X.:$X. @,;..#tq>%.&O >%$&# ,>$@&o,,% &XO,$.tt.@",
"#oej# $$tN*te%#qu.,;@*f;.$@t<u ;%.ej.&;-=8>m.;=><=. =&n@p&t=BqoX..ejO$$%tN*@%%#q6#.1.&f;#>$#<u#,,@ej$.,@t8e q,&><oe%$&n$.>$#9q#@",
"t X.o&%.X X&,,OX.@>&$=.p$$@XoXOO%$=XX%$;X o+:$X=&#$.tp.o &==X== O@p. %-$X =@%% p  .;O+#p$>;+opX>%&pp=.%%X p$,,t=&+%%$X.X%,$# p..",
"&.&t**%$&t$,%>%&%,<*%%;$:$$;@$,1;%$@%$1;.=w2,$#t;$$$ttt&&t&tXXt=O%;@%,%,$@;;,,;@.$11$O %,>;.@,$,%$$@%$,,@ $>>,$&%O,%%.@ ,,%$#@,;",
"@o@tt&&###&$$&#t@&*&@.. .O#X.;&Xo..&# OO# t$1.X=OO.@===opV=p==== @@&@@O;$.O.@$.#.@Oo. o@.@  @@##@X&#&.@$@O.*&@&@&o.@@ . .$#...@$"
};
